  0
SECTION
  2
HEADER
  9
$ACADVER
  1
AC1009
  9
$INSBASE
 10
0.0
 20
0.0
 30
0.0
  9
$EXTMIN
 10
0.0
 20
0.0
 30
0.0
  9
$EXTMAX
 10
0.0
 20
0.0
 30
0.0
  0
ENDSEC
  0
SECTION
  2
TABLES
  0
TABLE
  2
VPORT
 70
1
  0
VPORT
  2
*ACTIVE
 70
0
 10
0.0
 20
0.0
 11
1.0
 21
1.0
 12
-5.0
 22
1.0
 13
0.0
 23
0.0
 14
0.1
 24
0.1
 15
0.1
 25
0.1
 16
0.0
 26
0.0
 36
1.0
 17
0.0
 27
0.0
 37
0.0
 40
10.0
 41
1.0
 42
50.0
 43
0.0
 44
0.0
 50
0.0
 51
0.0
 71
0
 72
100
 73
1
 74
1
 75
0
 76
0
 77
0
 78
0
  0
ENDTAB
  0
TABLE
  2
LTYPE
 70
8
  0
LTYPE
  2
CONTINUOUS
 70
0
  3
Solid line
 72
65
 73
0
 40
0.0
  0
LTYPE
  2
DOT
 70
0
  3
. . . . . . .
 72
65
 73
2
 40
0.25
 49
0.0
 49
-0.25
  0
LTYPE
  2
DASHED
 70
0
  3
__ __ __ __ __
 72
65
 73
2
 40
0.8
 49
0.5
 49
-0.3
  0
LTYPE
  2
DASHDOT
 70
0
  3
__ . __ . __ .
 72
65
 73
4
 40
1.0
 49
0.5
 49
-0.25
 49
0.0
 49
-0.25
  0
LTYPE
  2
DIVIDE
 70
0
  3
____ . . ____ . . 
 72
65
 73
6
 40
1.25
 49
0.5
 49
-0.25
 49
0.0
 49
-0.25
 49
0.0
 49
-0.25
  0
LTYPE
  2
BORDER
 70
0
  3
__ __ . __ __ . 
 72
65
 73
6
 40
1.75
 49
0.5
 49
-0.25
 49
0.5
 49
-0.25
 49
0.0
 49
-0.25
  0
LTYPE
  2
HIDDEN
 70
0
  3
__ __ __ __ __
 72
65
 73
2
 40
0.4
 49
0.25
 49
-0.25
  0
LTYPE
  2
CENTER
 70
0
  3
____ _ ____ _ __
 72
65
 73
4
 40
2.0
 49
1.25
 49
-0.25
 49
0.25
 49
-0.25
  0
ENDTAB
  0
TABLE
  2
LAYER
 70
1
  0
LAYER
  2
PYDXF
 70
64
 62
7
  6
continuous
  0
ENDTAB
  0
TABLE
  2
STYLE
 70
1
  0
STYLE
  2
STANDARD
 70
0
 40
0
 41
1.0
 50
0.0
 71
0
 42
1
 3
ARIAL.TTF
 4

  0
ENDTAB
  0
TABLE
  2
VIEW
 70
1
  0
VIEW
  2
BF_TOPVIEW
 70
0
 40
120.0
 10
0.0
 20
0.0
 41
200.0
 11
0.0
 21
0.0
 31
1.0
 12
0.0
 22
0.0
 32
0.0
 42
50.0
 43
0.0
 44
0.0
 50
0.0
 71
0
  0
ENDTAB
  0
ENDSEC
  0
SECTION
  2
BLOCKS
  0
ENDSEC
  0
SECTION
  2
ENTITIES
  0
LINE
  8
0
 10
-0.5350387692451477
 20
0.20644143223762512
 30
0.18015536665916443
 11
-0.044648922979831696
 21
0.2044089287519455
 31
0.18015538156032562
  0
LINE
  8
0
 10
-0.5350387692451477
 20
0.20644143223762512
 30
0.18015536665916443
 11
-0.5354138612747192
 21
0.11594313383102417
 31
0.17658594250679016
  0
LINE
  8
0
 10
-0.5354138612747192
 20
0.11594313383102417
 30
0.17658594250679016
 11
-0.04502401128411293
 21
0.11391062289476395
 31
0.17658594250679016
  0
LINE
  8
0
 10
-0.044648922979831696
 20
0.2044089287519455
 30
0.18015538156032562
 11
-0.04502401128411293
 21
0.11391062289476395
 31
0.17658594250679016
  0
LINE
  8
0
 10
-0.5350372791290283
 20
0.20679612457752228
 30
0.17116236686706543
 11
-0.0446474514901638
 21
0.20476362109184265
 31
0.17116236686706543
  0
LINE
  8
0
 10
-0.5350372791290283
 20
0.20679612457752228
 30
0.17116236686706543
 11
-0.5354123711585999
 21
0.11629783362150192
 31
0.16759292781352997
  0
LINE
  8
0
 10
-0.5354123711585999
 20
0.11629783362150192
 30
0.16759292781352997
 11
-0.04502253979444504
 21
0.1142653226852417
 31
0.16759294271469116
  0
LINE
  8
0
 10
-0.0446474514901638
 20
0.20476362109184265
 30
0.17116236686706543
 11
-0.04502253979444504
 21
0.1142653226852417
 31
0.16759294271469116
  0
LINE
  8
0
 10
-0.5350387692451477
 20
0.20644143223762512
 30
0.18015536665916443
 11
-0.5350372791290283
 21
0.20679612457752228
 31
0.17116236686706543
  0
LINE
  8
0
 10
-0.5354138612747192
 20
0.11594313383102417
 30
0.17658594250679016
 11
-0.5354123711585999
 21
0.11629783362150192
 31
0.16759292781352997
  0
LINE
  8
0
 10
-0.044648922979831696
 20
0.2044089287519455
 30
0.18015538156032562
 11
-0.0446474514901638
 21
0.20476362109184265
 31
0.17116236686706543
  0
LINE
  8
0
 10
-0.04502401128411293
 20
0.11391062289476395
 30
0.17658594250679016
 11
-0.04502253979444504
 21
0.1142653226852417
 31
0.16759294271469116
  0
LINE
  8
0
 10
-0.053338296711444855
 20
-0.12594932317733765
 30
0.16417011618614197
 11
-0.542708158493042
 21
-0.12614721059799194
 31
0.16417011618614197
  0
LINE
  8
0
 10
-0.053338296711444855
 20
-0.12594932317733765
 30
0.16417011618614197
 11
-0.053384892642498016
 21
-0.010731972754001617
 31
0.16417011618614197
  0
LINE
  8
0
 10
-0.053384892642498016
 20
-0.010731972754001617
 30
0.16417011618614197
 11
-0.5427547693252563
 21
-0.010929875075817108
 31
0.16417011618614197
  0
LINE
  8
0
 10
-0.542708158493042
 20
-0.12614721059799194
 30
0.16417011618614197
 11
-0.5427547693252563
 21
-0.010929875075817108
 31
0.16417011618614197
  0
LINE
  8
0
 10
-0.053338296711444855
 20
-0.12594932317733765
 30
0.15517011284828186
 11
-0.542708158493042
 21
-0.12614721059799194
 31
0.15517011284828186
  0
LINE
  8
0
 10
-0.053338296711444855
 20
-0.12594932317733765
 30
0.15517011284828186
 11
-0.053384892642498016
 21
-0.010731972754001617
 31
0.15517011284828186
  0
LINE
  8
0
 10
-0.053384892642498016
 20
-0.010731972754001617
 30
0.15517011284828186
 11
-0.5427547693252563
 21
-0.010929875075817108
 31
0.15517011284828186
  0
LINE
  8
0
 10
-0.542708158493042
 20
-0.12614721059799194
 30
0.15517011284828186
 11
-0.5427547693252563
 21
-0.010929875075817108
 31
0.15517011284828186
  0
LINE
  8
0
 10
-0.053338296711444855
 20
-0.12594932317733765
 30
0.16417011618614197
 11
-0.053338296711444855
 21
-0.12594932317733765
 31
0.15517011284828186
  0
LINE
  8
0
 10
-0.053384892642498016
 20
-0.010731972754001617
 30
0.16417011618614197
 11
-0.053384892642498016
 21
-0.010731972754001617
 31
0.15517011284828186
  0
LINE
  8
0
 10
-0.542708158493042
 20
-0.12614721059799194
 30
0.16417011618614197
 11
-0.542708158493042
 21
-0.12614721059799194
 31
0.15517011284828186
  0
LINE
  8
0
 10
-0.5427547693252563
 20
-0.010929875075817108
 30
0.16417011618614197
 11
-0.5427547693252563
 21
-0.010929875075817108
 31
0.15517011284828186
  0
LINE
  8
0
 10
-0.04446132108569145
 20
0.009245142340660095
 30
0.16977007687091827
 11
-0.04446132481098175
 21
0.0989493802189827
 31
0.16977007687091827
  0
LINE
  8
0
 10
-0.04446132108569145
 20
0.009245142340660095
 30
0.16977007687091827
 11
-0.5369454622268677
 21
0.009245120920240879
 31
0.16977007687091827
  0
LINE
  8
0
 10
-0.04446132481098175
 20
0.0989493802189827
 30
0.16977007687091827
 11
-0.5369454622268677
 21
0.0989493653178215
 31
0.16977007687091827
  0
LINE
  8
0
 10
-0.04446132108569145
 20
0.009245142340660095
 30
0.16977007687091827
 11
-0.04446132108569145
 21
0.009245142340660095
 31
0.16066740453243256
  0
LINE
  8
0
 10
-0.04446132108569145
 20
0.009245142340660095
 30
0.16066740453243256
 11
-0.07936038076877594
 21
0.036205120384693146
 31
0.16066740453243256
  0
LINE
  8
0
 10
-0.04446132108569145
 20
0.009245142340660095
 30
0.16066740453243256
 11
-0.5369454622268677
 21
0.009245120920240879
 31
0.16066740453243256
  0
LINE
  8
0
 10
-0.04446132481098175
 20
0.0989493802189827
 30
0.16066740453243256
 11
-0.5369454622268677
 21
0.0989493653178215
 31
0.16066740453243256
  0
LINE
  8
0
 10
-0.04446132108569145
 20
0.009245142340660095
 30
0.16977007687091827
 11
-0.07936038076877594
 21
0.03604346141219139
 31
0.16977007687091827
  0
LINE
  8
0
 10
-0.07936038076877594
 20
0.03604346141219139
 30
0.16977007687091827
 11
-0.07936038076877594
 21
0.08098522573709488
 31
0.16977007687091827
  0
LINE
  8
0
 10
-0.07936038076877594
 20
0.08098522573709488
 30
0.16977007687091827
 11
-0.20940151810646057
 21
0.08098521828651428
 31
0.16977007687091827
  0
LINE
  8
0
 10
-0.07936038076877594
 20
0.03604346141219139
 30
0.16977007687091827
 11
-0.20940151810646057
 21
0.036043453961610794
 31
0.16977007687091827
  0
LINE
  8
0
 10
-0.20940151810646057
 20
0.08098521828651428
 30
0.16977007687091827
 11
-0.20940151810646057
 21
0.036043453961610794
 31
0.16977007687091827
  0
LINE
  8
0
 10
-0.3793603777885437
 20
0.0360434465110302
 30
0.16977007687091827
 11
-0.5094015002250671
 21
0.0360434390604496
 31
0.16977007687091827
  0
LINE
  8
0
 10
-0.5369454622268677
 20
0.0989493653178215
 30
0.16977007687091827
 11
-0.5094015002250671
 21
0.08098521083593369
 31
0.16977007687091827
  0
LINE
  8
0
 10
-0.20940151810646057
 20
0.036043453961610794
 30
0.16977007687091827
 11
-0.20940151810646057
 21
0.03620511293411255
 31
0.16066740453243256
  0
LINE
  8
0
 10
-0.3793603777885437
 20
0.0360434465110302
 30
0.16977007687091827
 11
-0.3793603777885437
 21
0.03620510548353195
 31
0.16066740453243256
  0
LINE
  8
0
 10
-0.5369454622268677
 20
0.009245120920240879
 30
0.16066740453243256
 11
-0.5094015002250671
 21
0.03620510175824165
 31
0.16066740453243256
  0
LINE
  8
0
 10
-0.5369454622268677
 20
0.0989493653178215
 30
0.16066740453243256
 11
-0.5094015002250671
 21
0.08114685863256454
 31
0.16066740453243256
  0
LINE
  8
0
 10
-0.20940151810646057
 20
0.03620511293411255
 30
0.16066740453243256
 11
-0.07936038076877594
 21
0.036205120384693146
 31
0.16066740453243256
  0
LINE
  8
0
 10
-0.20940151810646057
 20
0.03620511293411255
 30
0.16066740453243256
 11
-0.20940151810646057
 21
0.08114687353372574
 31
0.16066740453243256
  0
LINE
  8
0
 10
-0.3793603777885437
 20
0.03620510548353195
 30
0.16066740453243256
 11
-0.3793604075908661
 21
0.08114686608314514
 31
0.16066740453243256
  0
LINE
  8
0
 10
-0.04446132481098175
 20
0.0989493802189827
 30
0.16066740453243256
 11
-0.07936038076877594
 21
0.08114688098430634
 31
0.16066740453243256
  0
LINE
  8
0
 10
-0.3793604075908661
 20
0.08098521083593369
 30
0.16977007687091827
 11
-0.3793603777885437
 21
0.0360434465110302
 31
0.16977007687091827
  0
LINE
  8
0
 10
-0.20940151810646057
 20
0.08114687353372574
 30
0.16066740453243256
 11
-0.07936038076877594
 21
0.08114688098430634
 31
0.16066740453243256
  0
LINE
  8
0
 10
-0.5369454622268677
 20
0.009245120920240879
 30
0.16977007687091827
 11
-0.5369454622268677
 21
0.0989493653178215
 31
0.16977007687091827
  0
LINE
  8
0
 10
-0.04446132481098175
 20
0.0989493802189827
 30
0.16977007687091827
 11
-0.04446132481098175
 21
0.0989493802189827
 31
0.16066740453243256
  0
LINE
  8
0
 10
-0.3793604075908661
 20
0.08098521083593369
 30
0.16977007687091827
 11
-0.5094015002250671
 21
0.08098521083593369
 31
0.16977007687091827
  0
LINE
  8
0
 10
-0.20940151810646057
 20
0.08098521828651428
 30
0.16977007687091827
 11
-0.20940151810646057
 21
0.08114687353372574
 31
0.16066740453243256
  0
LINE
  8
0
 10
-0.5094015002250671
 20
0.08114685863256454
 30
0.16066740453243256
 11
-0.3793604075908661
 21
0.08114686608314514
 31
0.16066740453243256
  0
LINE
  8
0
 10
-0.5369454622268677
 20
0.0989493653178215
 30
0.16977007687091827
 11
-0.5369454622268677
 21
0.0989493653178215
 31
0.16066740453243256
  0
LINE
  8
0
 10
-0.5369454622268677
 20
0.009245120920240879
 30
0.16977007687091827
 11
-0.5369454622268677
 21
0.009245120920240879
 31
0.16066740453243256
  0
LINE
  8
0
 10
-0.04446132481098175
 20
0.0989493802189827
 30
0.16977007687091827
 11
-0.07936038076877594
 21
0.08098522573709488
 31
0.16977007687091827
  0
LINE
  8
0
 10
-0.04446132108569145
 20
0.009245142340660095
 30
0.16066740453243256
 11
-0.04446132481098175
 21
0.0989493802189827
 31
0.16066740453243256
  0
LINE
  8
0
 10
-0.5094015002250671
 20
0.0360434390604496
 30
0.16977007687091827
 11
-0.5094015002250671
 21
0.08098521083593369
 31
0.16977007687091827
  0
LINE
  8
0
 10
-0.3793604075908661
 20
0.08098521083593369
 30
0.16977007687091827
 11
-0.3793604075908661
 21
0.08114686608314514
 31
0.16066740453243256
  0
LINE
  8
0
 10
-0.5094015002250671
 20
0.0360434390604496
 30
0.16977007687091827
 11
-0.5094015002250671
 21
0.03620510175824165
 31
0.16066740453243256
  0
LINE
  8
0
 10
-0.5369454622268677
 20
0.009245120920240879
 30
0.16066740453243256
 11
-0.5369454622268677
 21
0.0989493653178215
 31
0.16066740453243256
  0
LINE
  8
0
 10
-0.5369454622268677
 20
0.009245120920240879
 30
0.16977007687091827
 11
-0.5094015002250671
 21
0.0360434390604496
 31
0.16977007687091827
  0
LINE
  8
0
 10
-0.5094015002250671
 20
0.08098521083593369
 30
0.16977007687091827
 11
-0.5094015002250671
 21
0.08114685863256454
 31
0.16066740453243256
  0
LINE
  8
0
 10
-0.07936038076877594
 20
0.03604346141219139
 30
0.16977007687091827
 11
-0.07936038076877594
 21
0.036205120384693146
 31
0.16066740453243256
  0
LINE
  8
0
 10
-0.3793603777885437
 20
0.03620510548353195
 30
0.16066740453243256
 11
-0.5094015002250671
 21
0.03620510175824165
 31
0.16066740453243256
  0
LINE
  8
0
 10
-0.07936038076877594
 20
0.036205120384693146
 30
0.16066740453243256
 11
-0.07936038076877594
 21
0.08114688098430634
 31
0.16066740453243256
  0
LINE
  8
0
 10
-0.07936038076877594
 20
0.08098522573709488
 30
0.16977007687091827
 11
-0.07936038076877594
 21
0.08114688098430634
 31
0.16066740453243256
  0
LINE
  8
0
 10
-0.5094015002250671
 20
0.03620510175824165
 30
0.16066740453243256
 11
-0.5094015002250671
 21
0.08114685863256454
 31
0.16066740453243256
  0
LINE
  8
0
 10
-0.003933041822165251
 20
0.22043848037719727
 30
0.36643606424331665
 11
-0.003933041822165251
 21
0.7290401458740234
 31
0.36643606424331665
  0
LINE
  8
0
 10
-0.003933041822165251
 20
0.22043848037719727
 30
0.36643606424331665
 11
-0.5566095113754272
 21
0.22043848037719727
 31
0.3664359748363495
  0
LINE
  8
0
 10
-0.5566095113754272
 20
0.22043848037719727
 30
0.3664359748363495
 11
-0.5566095113754272
 21
0.7290401458740234
 31
0.3664359748363495
  0
LINE
  8
0
 10
-0.003933041822165251
 20
0.7290401458740234
 30
0.36643606424331665
 11
-0.5566095113754272
 21
0.7290401458740234
 31
0.3664359748363495
  0
LINE
  8
0
 10
-0.003933042753487825
 20
0.22043848037719727
 30
0.37543606758117676
 11
-0.003933042753487825
 21
0.7290401458740234
 31
0.37543606758117676
  0
LINE
  8
0
 10
-0.003933042753487825
 20
0.22043848037719727
 30
0.37543606758117676
 11
-0.556609570980072
 21
0.22043848037719727
 31
0.3754359781742096
  0
LINE
  8
0
 10
-0.556609570980072
 20
0.22043848037719727
 30
0.3754359781742096
 11
-0.556609570980072
 21
0.7290401458740234
 31
0.3754359781742096
  0
LINE
  8
0
 10
-0.003933042753487825
 20
0.7290401458740234
 30
0.37543606758117676
 11
-0.556609570980072
 21
0.7290401458740234
 31
0.3754359781742096
  0
LINE
  8
0
 10
-0.003933041822165251
 20
0.22043848037719727
 30
0.36643606424331665
 11
-0.003933042753487825
 21
0.22043848037719727
 31
0.37543606758117676
  0
LINE
  8
0
 10
-0.5566095113754272
 20
0.22043848037719727
 30
0.3664359748363495
 11
-0.556609570980072
 21
0.22043848037719727
 31
0.3754359781742096
  0
LINE
  8
0
 10
-0.003933041822165251
 20
0.7290401458740234
 30
0.36643606424331665
 11
-0.003933042753487825
 21
0.7290401458740234
 31
0.37543606758117676
  0
LINE
  8
0
 10
-0.5566095113754272
 20
0.7290401458740234
 30
0.3664359748363495
 11
-0.556609570980072
 21
0.7290401458740234
 31
0.3754359781742096
  0
ENDSEC
  0
EOF
