  0
SECTION
  2
HEADER
  9
$ACADVER
  1
AC1009
  9
$INSBASE
 10
0.0
 20
0.0
 30
0.0
  9
$EXTMIN
 10
0.0
 20
0.0
 30
0.0
  9
$EXTMAX
 10
0.0
 20
0.0
 30
0.0
  0
ENDSEC
  0
SECTION
  2
TABLES
  0
TABLE
  2
VPORT
 70
1
  0
VPORT
  2
*ACTIVE
 70
0
 10
0.0
 20
0.0
 11
1.0
 21
1.0
 12
-5.0
 22
1.0
 13
0.0
 23
0.0
 14
0.1
 24
0.1
 15
0.1
 25
0.1
 16
0.0
 26
0.0
 36
1.0
 17
0.0
 27
0.0
 37
0.0
 40
10.0
 41
1.0
 42
50.0
 43
0.0
 44
0.0
 50
0.0
 51
0.0
 71
0
 72
100
 73
1
 74
1
 75
0
 76
0
 77
0
 78
0
  0
ENDTAB
  0
TABLE
  2
LTYPE
 70
8
  0
LTYPE
  2
CONTINUOUS
 70
0
  3
Solid line
 72
65
 73
0
 40
0.0
  0
LTYPE
  2
DOT
 70
0
  3
. . . . . . .
 72
65
 73
2
 40
0.25
 49
0.0
 49
-0.25
  0
LTYPE
  2
DASHED
 70
0
  3
__ __ __ __ __
 72
65
 73
2
 40
0.8
 49
0.5
 49
-0.3
  0
LTYPE
  2
DASHDOT
 70
0
  3
__ . __ . __ .
 72
65
 73
4
 40
1.0
 49
0.5
 49
-0.25
 49
0.0
 49
-0.25
  0
LTYPE
  2
DIVIDE
 70
0
  3
____ . . ____ . . 
 72
65
 73
6
 40
1.25
 49
0.5
 49
-0.25
 49
0.0
 49
-0.25
 49
0.0
 49
-0.25
  0
LTYPE
  2
BORDER
 70
0
  3
__ __ . __ __ . 
 72
65
 73
6
 40
1.75
 49
0.5
 49
-0.25
 49
0.5
 49
-0.25
 49
0.0
 49
-0.25
  0
LTYPE
  2
HIDDEN
 70
0
  3
__ __ __ __ __
 72
65
 73
2
 40
0.4
 49
0.25
 49
-0.25
  0
LTYPE
  2
CENTER
 70
0
  3
____ _ ____ _ __
 72
65
 73
4
 40
2.0
 49
1.25
 49
-0.25
 49
0.25
 49
-0.25
  0
ENDTAB
  0
TABLE
  2
LAYER
 70
1
  0
LAYER
  2
PYDXF
 70
64
 62
7
  6
continuous
  0
ENDTAB
  0
TABLE
  2
STYLE
 70
1
  0
STYLE
  2
STANDARD
 70
0
 40
0
 41
1.0
 50
0.0
 71
0
 42
1
 3
ARIAL.TTF
 4

  0
ENDTAB
  0
TABLE
  2
VIEW
 70
1
  0
VIEW
  2
BF_TOPVIEW
 70
0
 40
120.0
 10
0.0
 20
0.0
 41
200.0
 11
0.0
 21
0.0
 31
1.0
 12
0.0
 22
0.0
 32
0.0
 42
50.0
 43
0.0
 44
0.0
 50
0.0
 71
0
  0
ENDTAB
  0
ENDSEC
  0
SECTION
  2
BLOCKS
  0
ENDSEC
  0
SECTION
  2
ENTITIES
  0
LINE
  8
0
 10
-0.7747307419776917
 20
0.25762563943862915
 30
0.5699858665466309
 11
-0.7747307419776917
 21
0.7486199736595154
 31
0.5699858665466309
  0
LINE
  8
0
 10
-0.7747307419776917
 20
0.25762563943862915
 30
0.5699858665466309
 11
-0.6208296418190002
 21
0.25762563943862915
 31
0.5699858665466309
  0
LINE
  8
0
 10
-0.6208296418190002
 20
0.25762563943862915
 30
0.5699858665466309
 11
-0.6208296418190002
 21
0.7486199736595154
 31
0.5699858665466309
  0
LINE
  8
0
 10
-0.7747307419776917
 20
0.7486199736595154
 30
0.5699858665466309
 11
-0.6208296418190002
 21
0.7486199736595154
 31
0.5699858665466309
  0
LINE
  8
0
 10
-0.7747307419776917
 20
0.25762563943862915
 30
0.5609859228134155
 11
-0.7747307419776917
 21
0.7486199736595154
 31
0.5609859228134155
  0
LINE
  8
0
 10
-0.7747307419776917
 20
0.25762563943862915
 30
0.5609859228134155
 11
-0.6208296418190002
 21
0.25762563943862915
 31
0.5609859228134155
  0
LINE
  8
0
 10
-0.6208296418190002
 20
0.25762563943862915
 30
0.5609859228134155
 11
-0.6208296418190002
 21
0.7486199736595154
 31
0.5609859228134155
  0
LINE
  8
0
 10
-0.7747307419776917
 20
0.7486199736595154
 30
0.5609859228134155
 11
-0.6208296418190002
 21
0.7486199736595154
 31
0.5609859228134155
  0
LINE
  8
0
 10
-0.7747307419776917
 20
0.25762563943862915
 30
0.5699858665466309
 11
-0.7747307419776917
 21
0.25762563943862915
 31
0.5609859228134155
  0
LINE
  8
0
 10
-0.6208296418190002
 20
0.25762563943862915
 30
0.5699858665466309
 11
-0.6208296418190002
 21
0.25762563943862915
 31
0.5609859228134155
  0
LINE
  8
0
 10
-0.7747307419776917
 20
0.7486199736595154
 30
0.5699858665466309
 11
-0.7747307419776917
 21
0.7486199736595154
 31
0.5609859228134155
  0
LINE
  8
0
 10
-0.6208296418190002
 20
0.7486199736595154
 30
0.5699858665466309
 11
-0.6208296418190002
 21
0.7486199736595154
 31
0.5609859228134155
  0
LINE
  8
0
 10
-1.2050824165344238
 20
-0.13105978071689606
 30
0.2526293098926544
 11
-0.7807801961898804
 21
-0.13105978071689606
 31
0.2526293098926544
  0
LINE
  8
0
 10
-1.2050824165344238
 20
-0.13105978071689606
 30
0.2526293098926544
 11
-1.2050824165344238
 21
0.41273802518844604
 31
0.2526293694972992
  0
LINE
  8
0
 10
-1.2050824165344238
 20
0.41273802518844604
 30
0.2526293694972992
 11
-1.0533376932144165
 21
0.48116958141326904
 31
0.2526293694972992
  0
LINE
  8
0
 10
-1.0533376932144165
 20
0.48116958141326904
 30
0.2526293694972992
 11
-0.9920607209205627
 21
0.3736417293548584
 31
0.2539304792881012
  0
LINE
  8
0
 10
-0.7807801961898804
 20
-0.13105978071689606
 30
0.2526293098926544
 11
-0.7763322591781616
 21
-0.016354307532310486
 31
0.2539304494857788
  0
LINE
  8
0
 10
-0.7763322591781616
 20
-0.016354307532310486
 30
0.2539304494857788
 11
-0.8228592872619629
 21
-0.01696936786174774
 31
0.2552315294742584
  0
LINE
  8
0
 10
-1.013283610343933
 20
0.3392895758152008
 30
0.2552315592765808
 11
-1.028152346611023
 21
0.2902735769748688
 31
0.2552315592765808
  0
LINE
  8
0
 10
-1.028152346611023
 20
0.2902735769748688
 30
0.2552315592765808
 11
-1.0331729650497437
 21
0.23929868638515472
 31
0.2552315592765808
  0
LINE
  8
0
 10
-1.0331729650497437
 20
0.23929868638515472
 30
0.2552315592765808
 11
-1.028152346611023
 21
0.18832381069660187
 31
0.2552315592765808
  0
LINE
  8
0
 10
-1.028152346611023
 20
0.18832381069660187
 30
0.2552315592765808
 11
-1.013283610343933
 21
0.13930784165859222
 31
0.2552315294742584
  0
LINE
  8
0
 10
-1.013283610343933
 20
0.13930784165859222
 30
0.2552315294742584
 11
-0.9891380071640015
 21
0.09413449466228485
 31
0.2552315294742584
  0
LINE
  8
0
 10
-0.9891380071640015
 20
0.09413449466228485
 30
0.2552315294742584
 11
-0.9566434025764465
 21
0.05453974008560181
 31
0.2552315294742584
  0
LINE
  8
0
 10
-0.9566434025764465
 20
0.05453974008560181
 30
0.2552315294742584
 11
-0.9170485734939575
 21
0.022045165300369263
 31
0.2552315294742584
  0
LINE
  8
0
 10
-0.9170485734939575
 20
0.022045165300369263
 30
0.2552315294742584
 11
-0.8718752264976501
 21
-0.0021005866583436728
 31
0.2552315294742584
  0
LINE
  8
0
 10
-0.8718752264976501
 20
-0.0021005866583436728
 30
0.2552315294742584
 11
-0.8228592872619629
 21
-0.01696936786174774
 31
0.2552315294742584
  0
LINE
  8
0
 10
-0.9920607209205627
 20
0.3736417293548584
 30
0.2539304792881012
 11
-1.013283610343933
 21
0.3392895758152008
 31
0.2552315592765808
  0
LINE
  8
0
 10
-1.2051526308059692
 20
-0.13109569251537323
 30
0.2616289556026459
 11
-0.780850350856781
 21
-0.13109569251537323
 31
0.2616289556026459
  0
LINE
  8
0
 10
-1.2051526308059692
 20
-0.13109569251537323
 30
0.2616289556026459
 11
-1.2051526308059692
 21
0.41270211338996887
 31
0.26162901520729065
  0
LINE
  8
0
 10
-1.2051526308059692
 20
0.41270211338996887
 30
0.26162901520729065
 11
-1.053407907485962
 21
0.48113366961479187
 31
0.26162901520729065
  0
LINE
  8
0
 10
-1.053407907485962
 20
0.48113366961479187
 30
0.26162901520729065
 11
-0.9921308755874634
 21
0.3736058175563812
 31
0.26293012499809265
  0
LINE
  8
0
 10
-0.780850350856781
 20
-0.13109569251537323
 30
0.2616289556026459
 11
-0.776402473449707
 21
-0.016390204429626465
 31
0.26293009519577026
  0
LINE
  8
0
 10
-0.776402473449707
 20
-0.016390204429626465
 30
0.26293009519577026
 11
-0.8229295015335083
 21
-0.017005279660224915
 31
0.2642311751842499
  0
LINE
  8
0
 10
-1.0133538246154785
 20
0.33925363421440125
 30
0.26423120498657227
 11
-1.0282225608825684
 21
0.2902376353740692
 31
0.26423120498657227
  0
LINE
  8
0
 10
-1.0282225608825684
 20
0.2902376353740692
 30
0.26423120498657227
 11
-1.033243179321289
 21
0.23926277458667755
 31
0.26423120498657227
  0
LINE
  8
0
 10
-1.033243179321289
 20
0.23926277458667755
 30
0.26423120498657227
 11
-1.0282225608825684
 21
0.1882878988981247
 31
0.26423120498657227
  0
LINE
  8
0
 10
-1.0282225608825684
 20
0.1882878988981247
 30
0.26423120498657227
 11
-1.0133538246154785
 21
0.13927192986011505
 31
0.2642311751842499
  0
LINE
  8
0
 10
-1.0133538246154785
 20
0.13927192986011505
 30
0.2642311751842499
 11
-0.9892081618309021
 21
0.09409858286380768
 31
0.2642311751842499
  0
LINE
  8
0
 10
-0.9892081618309021
 20
0.09409858286380768
 30
0.2642311751842499
 11
-0.9567135572433472
 21
0.054503828287124634
 31
0.2642311751842499
  0
LINE
  8
0
 10
-0.9567135572433472
 20
0.054503828287124634
 30
0.2642311751842499
 11
-0.9171187877655029
 21
0.02200925350189209
 31
0.2642311751842499
  0
LINE
  8
0
 10
-0.9171187877655029
 20
0.02200925350189209
 30
0.2642311751842499
 11
-0.8719454407691956
 21
-0.0021364991553127766
 31
0.2642311751842499
  0
LINE
  8
0
 10
-0.8719454407691956
 20
-0.0021364991553127766
 30
0.2642311751842499
 11
-0.8229295015335083
 21
-0.017005279660224915
 31
0.2642311751842499
  0
LINE
  8
0
 10
-0.9921308755874634
 20
0.3736058175563812
 30
0.26293012499809265
 11
-1.0133538246154785
 21
0.33925363421440125
 31
0.26423120498657227
  0
LINE
  8
0
 10
-1.2050824165344238
 20
-0.13105978071689606
 30
0.2526293098926544
 11
-1.2051526308059692
 21
-0.13109569251537323
 31
0.2616289556026459
  0
LINE
  8
0
 10
-0.7807801961898804
 20
-0.13105978071689606
 30
0.2526293098926544
 11
-0.780850350856781
 21
-0.13109569251537323
 31
0.2616289556026459
  0
LINE
  8
0
 10
-1.2050824165344238
 20
0.41273802518844604
 30
0.2526293694972992
 11
-1.2051526308059692
 21
0.41270211338996887
 31
0.26162901520729065
  0
LINE
  8
0
 10
-1.0533376932144165
 20
0.48116958141326904
 30
0.2526293694972992
 11
-1.053407907485962
 21
0.48113366961479187
 31
0.26162901520729065
  0
LINE
  8
0
 10
-0.9920607209205627
 20
0.3736417293548584
 30
0.2539304792881012
 11
-0.9921308755874634
 21
0.3736058175563812
 31
0.26293012499809265
  0
LINE
  8
0
 10
-0.7763322591781616
 20
-0.016354307532310486
 30
0.2539304494857788
 11
-0.776402473449707
 21
-0.016390204429626465
 31
0.26293009519577026
  0
LINE
  8
0
 10
-1.013283610343933
 20
0.3392895758152008
 30
0.2552315592765808
 11
-1.0133538246154785
 21
0.33925363421440125
 31
0.26423120498657227
  0
LINE
  8
0
 10
-1.028152346611023
 20
0.2902735769748688
 30
0.2552315592765808
 11
-1.0282225608825684
 21
0.2902376353740692
 31
0.26423120498657227
  0
LINE
  8
0
 10
-1.0331729650497437
 20
0.23929868638515472
 30
0.2552315592765808
 11
-1.033243179321289
 21
0.23926277458667755
 31
0.26423120498657227
  0
LINE
  8
0
 10
-1.028152346611023
 20
0.18832381069660187
 30
0.2552315592765808
 11
-1.0282225608825684
 21
0.1882878988981247
 31
0.26423120498657227
  0
LINE
  8
0
 10
-1.013283610343933
 20
0.13930784165859222
 30
0.2552315294742584
 11
-1.0133538246154785
 21
0.13927192986011505
 31
0.2642311751842499
  0
LINE
  8
0
 10
-0.9891380071640015
 20
0.09413449466228485
 30
0.2552315294742584
 11
-0.9892081618309021
 21
0.09409858286380768
 31
0.2642311751842499
  0
LINE
  8
0
 10
-0.9566434025764465
 20
0.05453974008560181
 30
0.2552315294742584
 11
-0.9567135572433472
 21
0.054503828287124634
 31
0.2642311751842499
  0
LINE
  8
0
 10
-0.9170485734939575
 20
0.022045165300369263
 30
0.2552315294742584
 11
-0.9171187877655029
 21
0.02200925350189209
 31
0.2642311751842499
  0
LINE
  8
0
 10
-0.8718752264976501
 20
-0.0021005866583436728
 30
0.2552315294742584
 11
-0.8719454407691956
 21
-0.0021364991553127766
 31
0.2642311751842499
  0
LINE
  8
0
 10
-0.8228592872619629
 20
-0.01696936786174774
 30
0.2552315294742584
 11
-0.8229295015335083
 21
-0.017005279660224915
 31
0.2642311751842499
  0
LINE
  8
0
 10
-0.7807731032371521
 20
0.7501975297927856
 30
0.2526293098926544
 11
-1.2050753831863403
 21
0.7501973509788513
 31
0.2526293098926544
  0
LINE
  8
0
 10
-0.7807731032371521
 20
0.7501975297927856
 30
0.2526293098926544
 11
-0.780772864818573
 21
0.20639973878860474
 31
0.2526293694972992
  0
LINE
  8
0
 10
-0.780772864818573
 20
0.20639973878860474
 30
0.2526293694972992
 11
-0.9325175285339355
 21
0.13796812295913696
 31
0.2526293694972992
  0
LINE
  8
0
 10
-0.9325175285339355
 20
0.13796812295913696
 30
0.2526293694972992
 11
-0.9937946200370789
 21
0.24549594521522522
 31
0.2539304792881012
  0
LINE
  8
0
 10
-1.2050753831863403
 20
0.7501973509788513
 30
0.2526293098926544
 11
-1.2095232009887695
 21
0.6354919075965881
 31
0.2539304494857788
  0
LINE
  8
0
 10
-1.2095232009887695
 20
0.6354919075965881
 30
0.2539304494857788
 11
-1.1629961729049683
 21
0.6361069679260254
 31
0.2552315294742584
  0
LINE
  8
0
 10
-0.9725716710090637
 20
0.2798480987548828
 30
0.2552315592765808
 11
-0.9577029347419739
 21
0.32886412739753723
 31
0.2552315592765808
  0
LINE
  8
0
 10
-0.9577029347419739
 20
0.32886412739753723
 30
0.2552315592765808
 11
-0.952682375907898
 21
0.3798390030860901
 31
0.2552315592765808
  0
LINE
  8
0
 10
-0.952682375907898
 20
0.3798390030860901
 30
0.2552315592765808
 11
-0.9577029943466187
 21
0.43081387877464294
 31
0.2552315592765808
  0
LINE
  8
0
 10
-0.9577029943466187
 20
0.43081387877464294
 30
0.2552315592765808
 11
-0.9725717902183533
 21
0.4798298180103302
 31
0.2552315294742584
  0
LINE
  8
0
 10
-0.9725717902183533
 20
0.4798298180103302
 30
0.2552315294742584
 11
-0.9967174530029297
 21
0.52500319480896
 31
0.2552315294742584
  0
LINE
  8
0
 10
-0.9967174530029297
 20
0.52500319480896
 30
0.2552315294742584
 11
-1.0292119979858398
 21
0.5645979046821594
 31
0.2552315294742584
  0
LINE
  8
0
 10
-1.0292119979858398
 20
0.5645979046821594
 30
0.2552315294742584
 11
-1.0688068866729736
 21
0.5970924496650696
 31
0.2552315294742584
  0
LINE
  8
0
 10
-1.0688068866729736
 20
0.5970924496650696
 30
0.2552315294742584
 11
-1.1139801740646362
 21
0.6212382316589355
 31
0.2552315294742584
  0
LINE
  8
0
 10
-1.1139801740646362
 20
0.6212382316589355
 30
0.2552315294742584
 11
-1.1629961729049683
 21
0.6361069679260254
 31
0.2552315294742584
  0
LINE
  8
0
 10
-0.9937946200370789
 20
0.24549594521522522
 30
0.2539304792881012
 11
-0.9725716710090637
 21
0.2798480987548828
 31
0.2552315592765808
  0
LINE
  8
0
 10
-0.7807028889656067
 20
0.7502334117889404
 30
0.2616289556026459
 11
-1.205005168914795
 21
0.7502332925796509
 31
0.2616289556026459
  0
LINE
  8
0
 10
-0.7807028889656067
 20
0.7502334117889404
 30
0.2616289556026459
 11
-0.7807027101516724
 21
0.20643562078475952
 31
0.26162901520729065
  0
LINE
  8
0
 10
-0.7807027101516724
 20
0.20643562078475952
 30
0.26162901520729065
 11
-0.9324473142623901
 21
0.13800400495529175
 31
0.26162901520729065
  0
LINE
  8
0
 10
-0.9324473142623901
 20
0.13800400495529175
 30
0.26162901520729065
 11
-0.9937244057655334
 21
0.24553182721138
 31
0.26293012499809265
  0
LINE
  8
0
 10
-1.205005168914795
 20
0.7502332925796509
 30
0.2616289556026459
 11
-1.2094529867172241
 21
0.6355277895927429
 31
0.26293009519577026
  0
LINE
  8
0
 10
-1.2094529867172241
 20
0.6355277895927429
 30
0.26293009519577026
 11
-1.1629259586334229
 21
0.6361428499221802
 31
0.2642311751842499
  0
LINE
  8
0
 10
-0.9725015163421631
 20
0.27988401055336
 30
0.26423120498657227
 11
-0.9576327800750732
 21
0.3289000391960144
 31
0.26423120498657227
  0
LINE
  8
0
 10
-0.9576327800750732
 20
0.3289000391960144
 30
0.26423120498657227
 11
-0.9526121616363525
 21
0.37987491488456726
 31
0.26423120498657227
  0
LINE
  8
0
 10
-0.9526121616363525
 20
0.37987491488456726
 30
0.26423120498657227
 11
-0.9576327800750732
 21
0.4308497905731201
 31
0.26423120498657227
  0
LINE
  8
0
 10
-0.9576327800750732
 20
0.4308497905731201
 30
0.26423120498657227
 11
-0.9725015759468079
 21
0.4798657298088074
 31
0.2642311751842499
  0
LINE
  8
0
 10
-0.9725015759468079
 20
0.4798657298088074
 30
0.2642311751842499
 11
-0.9966472387313843
 21
0.5250390768051147
 31
0.2642311751842499
  0
LINE
  8
0
 10
-0.9966472387313843
 20
0.5250390768051147
 30
0.2642311751842499
 11
-1.029141902923584
 21
0.564633846282959
 31
0.2642311751842499
  0
LINE
  8
0
 10
-1.029141902923584
 20
0.564633846282959
 30
0.2642311751842499
 11
-1.0687366724014282
 21
0.5971283912658691
 31
0.2642311751842499
  0
LINE
  8
0
 10
-1.0687366724014282
 20
0.5971283912658691
 30
0.2642311751842499
 11
-1.1139100790023804
 21
0.6212741136550903
 31
0.2642311751842499
  0
LINE
  8
0
 10
-1.1139100790023804
 20
0.6212741136550903
 30
0.2642311751842499
 11
-1.1629259586334229
 21
0.6361428499221802
 31
0.2642311751842499
  0
LINE
  8
0
 10
-0.9937244057655334
 20
0.24553182721138
 30
0.26293012499809265
 11
-0.9725015163421631
 21
0.27988401055336
 31
0.26423120498657227
  0
LINE
  8
0
 10
-0.7807731032371521
 20
0.7501975297927856
 30
0.2526293098926544
 11
-0.7807028889656067
 21
0.7502334117889404
 31
0.2616289556026459
  0
LINE
  8
0
 10
-1.2050753831863403
 20
0.7501973509788513
 30
0.2526293098926544
 11
-1.205005168914795
 21
0.7502332925796509
 31
0.2616289556026459
  0
LINE
  8
0
 10
-0.780772864818573
 20
0.20639973878860474
 30
0.2526293694972992
 11
-0.7807027101516724
 21
0.20643562078475952
 31
0.26162901520729065
  0
LINE
  8
0
 10
-0.9325175285339355
 20
0.13796812295913696
 30
0.2526293694972992
 11
-0.9324473142623901
 21
0.13800400495529175
 31
0.26162901520729065
  0
LINE
  8
0
 10
-0.9937946200370789
 20
0.24549594521522522
 30
0.2539304792881012
 11
-0.9937244057655334
 21
0.24553182721138
 31
0.26293012499809265
  0
LINE
  8
0
 10
-1.2095232009887695
 20
0.6354919075965881
 30
0.2539304494857788
 11
-1.2094529867172241
 21
0.6355277895927429
 31
0.26293009519577026
  0
LINE
  8
0
 10
-0.9725716710090637
 20
0.2798480987548828
 30
0.2552315592765808
 11
-0.9725015163421631
 21
0.27988401055336
 31
0.26423120498657227
  0
LINE
  8
0
 10
-0.9577029347419739
 20
0.32886412739753723
 30
0.2552315592765808
 11
-0.9576327800750732
 21
0.3289000391960144
 31
0.26423120498657227
  0
LINE
  8
0
 10
-0.952682375907898
 20
0.3798390030860901
 30
0.2552315592765808
 11
-0.9526121616363525
 21
0.37987491488456726
 31
0.26423120498657227
  0
LINE
  8
0
 10
-0.9577029943466187
 20
0.43081387877464294
 30
0.2552315592765808
 11
-0.9576327800750732
 21
0.4308497905731201
 31
0.26423120498657227
  0
LINE
  8
0
 10
-0.9725717902183533
 20
0.4798298180103302
 30
0.2552315294742584
 11
-0.9725015759468079
 21
0.4798657298088074
 31
0.2642311751842499
  0
LINE
  8
0
 10
-0.9967174530029297
 20
0.52500319480896
 30
0.2552315294742584
 11
-0.9966472387313843
 21
0.5250390768051147
 31
0.2642311751842499
  0
LINE
  8
0
 10
-1.0292119979858398
 20
0.5645979046821594
 30
0.2552315294742584
 11
-1.029141902923584
 21
0.564633846282959
 31
0.2642311751842499
  0
LINE
  8
0
 10
-1.0688068866729736
 20
0.5970924496650696
 30
0.2552315294742584
 11
-1.0687366724014282
 21
0.5971283912658691
 31
0.2642311751842499
  0
LINE
  8
0
 10
-1.1139801740646362
 20
0.6212382316589355
 30
0.2552315294742584
 11
-1.1139100790023804
 21
0.6212741136550903
 31
0.2642311751842499
  0
LINE
  8
0
 10
-1.1629961729049683
 20
0.6361069679260254
 30
0.2552315294742584
 11
-1.1629259586334229
 21
0.6361428499221802
 31
0.2642311751842499
  0
LINE
  8
0
 10
-0.8049968481063843
 20
0.005971907638013363
 30
0.25609341263771057
 11
-0.804996907711029
 21
0.1770833134651184
 31
0.25609341263771057
  0
LINE
  8
0
 10
-0.8049968481063843
 20
0.005971907638013363
 30
0.25609341263771057
 11
-0.6338854432106018
 21
0.005971924401819706
 31
0.2560933530330658
  0
LINE
  8
0
 10
-0.6338854432106018
 20
0.005971924401819706
 30
0.2560933530330658
 11
-0.6338855028152466
 21
0.1770833283662796
 31
0.2560933530330658
  0
LINE
  8
0
 10
-0.804996907711029
 20
0.1770833134651184
 30
0.25609341263771057
 11
-0.6338855028152466
 21
0.1770833283662796
 31
0.2560933530330658
  0
LINE
  8
0
 10
-0.7014743089675903
 20
0.13357524573802948
 30
0.2560933828353882
 11
-0.7392089366912842
 21
0.14563536643981934
 31
0.2560933828353882
  0
LINE
  8
0
 10
-0.7392089366912842
 20
0.14563536643981934
 30
0.2560933828353882
 11
-0.7392089366912842
 21
0.10050161927938461
 31
0.2560933828353882
  0
LINE
  8
0
 10
-0.7392089366912842
 20
0.10050161927938461
 30
0.2560933828353882
 11
-0.7392089366912842
 21
0.04487084224820137
 31
0.2560933828353882
  0
LINE
  8
0
 10
-0.7115889191627502
 20
0.12692512571811676
 30
0.2560933828353882
 11
-0.7110128998756409
 21
0.12681056559085846
 31
0.2560933828353882
  0
LINE
  8
0
 10
-0.7115889191627502
 20
0.12692512571811676
 30
0.2560933828353882
 11
-0.7121749520301819
 21
0.1269635409116745
 31
0.2560933828353882
  0
LINE
  8
0
 10
-0.7127610445022583
 20
0.12692512571811676
 30
0.2560933828353882
 11
-0.7133370637893677
 21
0.12681056559085846
 31
0.2560933828353882
  0
LINE
  8
0
 10
-0.7127610445022583
 20
0.12692512571811676
 30
0.2560933828353882
 11
-0.7121749520301819
 21
0.1269635409116745
 31
0.2560933828353882
  0
LINE
  8
0
 10
-0.7138932347297668
 20
0.1266217678785324
 30
0.2560933828353882
 11
-0.714419960975647
 21
0.12636201083660126
 31
0.2560933828353882
  0
LINE
  8
0
 10
-0.7133370637893677
 20
0.12681056559085846
 30
0.2560933828353882
 11
-0.7138932347297668
 21
0.1266217678785324
 31
0.2560933828353882
  0
LINE
  8
0
 10
-0.7104567289352417
 20
0.1266217678785324
 30
0.2560933828353882
 11
-0.7099299430847168
 21
0.12636201083660126
 31
0.2560933828353882
  0
LINE
  8
0
 10
-0.7110128998756409
 20
0.12681056559085846
 30
0.2560933828353882
 11
-0.7104567289352417
 21
0.1266217678785324
 31
0.2560933828353882
  0
LINE
  8
0
 10
-0.7090000510215759
 20
0.12564843893051147
 30
0.2560933828353882
 11
-0.709441602230072
 21
0.1260356903076172
 31
0.2560933828353882
  0
LINE
  8
0
 10
-0.714419960975647
 20
0.12636201083660126
 30
0.2560933828353882
 11
-0.7149083018302917
 21
0.1260356903076172
 31
0.2560933828353882
  0
LINE
  8
0
 10
-0.7149083018302917
 20
0.1260356903076172
 30
0.2560933828353882
 11
-0.7153498530387878
 21
0.12564843893051147
 31
0.2560933828353882
  0
LINE
  8
0
 10
-0.7099299430847168
 20
0.12636201083660126
 30
0.2560933828353882
 11
-0.709441602230072
 21
0.1260356903076172
 31
0.2560933828353882
  0
LINE
  8
0
 10
-0.7086127996444702
 20
0.12520688772201538
 30
0.2560933828353882
 11
-0.7082865238189697
 21
0.12471853196620941
 31
0.2560933828353882
  0
LINE
  8
0
 10
-0.7090000510215759
 20
0.12564843893051147
 30
0.2560933828353882
 11
-0.7086127996444702
 21
0.12520688772201538
 31
0.2560933828353882
  0
LINE
  8
0
 10
-0.7153498530387878
 20
0.12564843893051147
 30
0.2560933828353882
 11
-0.7157371044158936
 21
0.12520688772201538
 31
0.2560933828353882
  0
LINE
  8
0
 10
-0.7157371044158936
 20
0.12520688772201538
 30
0.2560933828353882
 11
-0.7160634398460388
 21
0.12471853196620941
 31
0.2560933828353882
  0
LINE
  8
0
 10
-0.7160634398460388
 20
0.12471853196620941
 30
0.2560933828353882
 11
-0.71632319688797
 21
0.12419179826974869
 31
0.2560933828353882
  0
LINE
  8
0
 10
-0.7082865238189697
 20
0.12471853196620941
 30
0.2560933828353882
 11
-0.7080267667770386
 21
0.12419179826974869
 31
0.2560933828353882
  0
LINE
  8
0
 10
-0.71632319688797
 20
0.12419179826974869
 30
0.2560933828353882
 11
-0.7165119647979736
 21
0.12363563477993011
 31
0.2560933828353882
  0
LINE
  8
0
 10
-0.7080267667770386
 20
0.12419179826974869
 30
0.2560933828353882
 11
-0.7078379392623901
 21
0.12363563477993011
 31
0.2560933828353882
  0
LINE
  8
0
 10
-0.7076849937438965
 20
0.12247353792190552
 30
0.2560933828353882
 11
-0.7077233791351318
 21
0.12305959314107895
 31
0.2560933828353882
  0
LINE
  8
0
 10
-0.7165119647979736
 20
0.12363563477993011
 30
0.2560933828353882
 11
-0.7166265845298767
 21
0.12305959314107895
 31
0.2560933828353882
  0
LINE
  8
0
 10
-0.7166265845298767
 20
0.12305959314107895
 30
0.2560933828353882
 11
-0.7166649699211121
 21
0.12247353792190552
 31
0.2560933828353882
  0
LINE
  8
0
 10
-0.7078379392623901
 20
0.12363563477993011
 30
0.2560933828353882
 11
-0.7077233791351318
 21
0.12305959314107895
 31
0.2560933828353882
  0
LINE
  8
0
 10
-0.7076849937438965
 20
0.12247353792190552
 30
0.2560933828353882
 11
-0.7076849937438965
 21
0.08482783287763596
 31
0.2560933828353882
  0
LINE
  8
0
 10
-0.7166649699211121
 20
0.12247353792190552
 30
0.2560933828353882
 11
-0.7166649699211121
 21
0.037513941526412964
 31
0.2560933828353882
  0
LINE
  8
0
 10
-0.7053507566452026
 20
0.08367323130369186
 30
0.2560933828353882
 11
-0.7065404653549194
 21
0.08420482277870178
 31
0.2560933828353882
  0
LINE
  8
0
 10
-0.7076849937438965
 20
0.08482783287763596
 30
0.2560933828353882
 11
-0.7065404653549194
 21
0.08420482277870178
 31
0.2560933828353882
  0
LINE
  8
0
 10
-0.7053507566452026
 20
0.08367323130369186
 30
0.2560933828353882
 11
-0.7041231393814087
 21
0.08323628455400467
 31
0.2560933828353882
  0
LINE
  8
0
 10
-0.7434586882591248
 20
0.0839219018816948
 30
0.2560933828353882
 11
-0.7802896499633789
 21
0.07059323787689209
 31
0.25609341263771057
  0
LINE
  8
0
 10
-0.7434586882591248
 20
0.0839219018816948
 30
0.2560933828353882
 11
-0.7434586882591248
 21
0.07099557667970657
 31
0.2560933828353882
  0
LINE
  8
0
 10
-0.7041231393814087
 20
0.08323628455400467
 30
0.2560933828353882
 11
-0.7028651237487793
 21
0.08289670199155807
 31
0.2560933828353882
  0
LINE
  8
0
 10
-0.7028651237487793
 20
0.08289670199155807
 30
0.2560933828353882
 11
-0.7015843987464905
 21
0.08265651762485504
 31
0.2560933828353882
  0
LINE
  8
0
 10
-0.701260507106781
 20
0.07563809305429459
 30
0.2560933828353882
 11
-0.7023389339447021
 21
0.07539580762386322
 31
0.2560933828353882
  0
LINE
  8
0
 10
-0.7044900059700012
 20
0.07488629966974258
 30
0.2560933828353882
 11
-0.7055625319480896
 21
0.0746191069483757
 31
0.2560933828353882
  0
LINE
  8
0
 10
-0.7044900059700012
 20
0.07488629966974258
 30
0.2560933828353882
 11
-0.7034154534339905
 21
0.07514519989490509
 31
0.2560933828353882
  0
LINE
  8
0
 10
-0.7034154534339905
 20
0.07514519989490509
 30
0.2560933828353882
 11
-0.7023389339447021
 21
0.07539580762386322
 31
0.2560933828353882
  0
LINE
  8
0
 10
-0.7066329717636108
 20
0.07434365153312683
 30
0.2560933828353882
 11
-0.7055625319480896
 21
0.0746191069483757
 31
0.2560933828353882
  0
LINE
  8
0
 10
-0.7066329717636108
 20
0.07434365153312683
 30
0.2560933828353882
 11
-0.7077012062072754
 21
0.07405992597341537
 31
0.2560933828353882
  0
LINE
  8
0
 10
-0.7087672352790833
 20
0.07376796752214432
 30
0.2560933828353882
 11
-0.7098309993743896
 21
0.07346777617931366
 31
0.2560933828353882
  0
LINE
  8
0
 10
-0.7087672352790833
 20
0.07376796752214432
 30
0.2560933828353882
 11
-0.7077012062072754
 21
0.07405992597341537
 31
0.2560933828353882
  0
LINE
  8
0
 10
-0.7098309993743896
 20
0.07346777617931366
 30
0.2560933828353882
 11
-0.710892379283905
 21
0.07315939664840698
 31
0.2560933828353882
  0
LINE
  8
0
 10
-0.710892379283905
 20
0.07315939664840698
 30
0.2560933828353882
 11
-0.7124257683753967
 21
0.07271939516067505
 31
0.2560933828353882
  0
LINE
  8
0
 10
-0.7124257683753967
 20
0.07271939516067505
 30
0.2560933828353882
 11
-0.7124257683753967
 21
0.060445159673690796
 31
0.2560933828353882
  0
LINE
  8
0
 10
-0.7434586882591248
 20
0.07099557667970657
 30
0.2560933828353882
 11
-0.7682040929794312
 21
0.06206175312399864
 31
0.25609341263771057
  0
LINE
  8
0
 10
-0.7802896499633789
 20
0.07059323787689209
 30
0.25609341263771057
 11
-0.7813642621040344
 21
0.0701819434762001
 31
0.25609341263771057
  0
LINE
  8
0
 10
-0.7813642621040344
 20
0.0701819434762001
 30
0.25609341263771057
 11
-0.7824230194091797
 21
0.06973157078027725
 31
0.25609341263771057
  0
LINE
  8
0
 10
-0.7824230194091797
 20
0.06973157078027725
 30
0.25609341263771057
 11
-0.7834646105766296
 21
0.06924270838499069
 31
0.25609341263771057
  0
LINE
  8
0
 10
-0.7434586882591248
 20
0.05113223195075989
 30
0.2560933828353882
 11
-0.7434586882591248
 21
0.06235866621136665
 31
0.2560933828353882
  0
LINE
  8
0
 10
-0.7562462687492371
 20
0.05791149660944939
 30
0.2560933828353882
 11
-0.7434586882591248
 21
0.06235866621136665
 31
0.2560933828353882
  0
LINE
  8
0
 10
-0.7851585149765015
 20
0.06834425032138824
 30
0.25609341263771057
 11
-0.7844876050949097
 21
0.06871604174375534
 31
0.25609341263771057
  0
LINE
  8
0
 10
-0.7834646105766296
 20
0.06924270838499069
 30
0.25609341263771057
 11
-0.7844876050949097
 21
0.06871604174375534
 31
0.25609341263771057
  0
LINE
  8
0
 10
-0.7851585149765015
 20
0.06834425032138824
 30
0.25609341263771057
 11
-0.7861474752426147
 21
0.06775613874197006
 31
0.25609341263771057
  0
LINE
  8
0
 10
-0.7867945432662964
 20
0.06734409928321838
 30
0.25609341263771057
 11
-0.7874312996864319
 21
0.06691639125347137
 31
0.25609341263771057
  0
LINE
  8
0
 10
-0.7861474752426147
 20
0.06775613874197006
 30
0.25609341263771057
 11
-0.7867945432662964
 21
0.06734409928321838
 31
0.25609341263771057
  0
LINE
  8
0
 10
-0.7874312996864319
 20
0.06691639125347137
 30
0.25609341263771057
 11
-0.7880574464797974
 21
0.06647325307130814
 31
0.25609341263771057
  0
LINE
  8
0
 10
-0.7880574464797974
 20
0.06647325307130814
 30
0.25609341263771057
 11
-0.7887073755264282
 21
0.06597073376178741
 31
0.25609341263771057
  0
LINE
  8
0
 10
-0.7887073755264282
 20
0.06597073376178741
 30
0.25609341263771057
 11
-0.7893204092979431
 21
0.06534531712532043
 31
0.25609341263771057
  0
LINE
  8
0
 10
-0.7893204092979431
 20
0.06534531712532043
 30
0.25609341263771057
 11
-0.7898294925689697
 21
0.06463271379470825
 31
0.25609341263771057
  0
LINE
  8
0
 10
-0.7906249761581421
 20
0.06215078756213188
 30
0.25609341263771057
 11
-0.790489673614502
 21
0.06301604211330414
 31
0.25609341263771057
  0
LINE
  8
0
 10
-0.7898294925689697
 20
0.06463271379470825
 30
0.25609341263771057
 11
-0.7902224063873291
 21
0.0638500303030014
 31
0.25609341263771057
  0
LINE
  8
0
 10
-0.7902224063873291
 20
0.0638500303030014
 30
0.25609341263771057
 11
-0.790489673614502
 21
0.06301604211330414
 31
0.25609341263771057
  0
LINE
  8
0
 10
-0.7680045366287231
 20
0.05798448249697685
 30
0.25609341263771057
 11
-0.7685354948043823
 21
0.05814790725708008
 31
0.25609341263771057
  0
LINE
  8
0
 10
-0.7682040929794312
 20
0.06206175312399864
 30
0.25609341263771057
 11
-0.769115149974823
 21
0.061509232968091965
 31
0.25609341263771057
  0
LINE
  8
0
 10
-0.7685354948043823
 20
0.05814790725708008
 30
0.25609341263771057
 11
-0.7690590620040894
 21
0.058325089514255524
 31
0.25609341263771057
  0
LINE
  8
0
 10
-0.7697690725326538
 20
0.058633554726839066
 30
0.25609341263771057
 11
-0.7690590620040894
 21
0.058325089514255524
 31
0.25609341263771057
  0
LINE
  8
0
 10
-0.7697690725326538
 20
0.058633554726839066
 30
0.25609341263771057
 11
-0.7701539993286133
 21
0.059047698974609375
 31
0.25609341263771057
  0
LINE
  8
0
 10
-0.769115149974823
 20
0.061509232968091965
 30
0.25609341263771057
 11
-0.769803524017334
 21
0.060948021709918976
 31
0.25609341263771057
  0
LINE
  8
0
 10
-0.769803524017334
 20
0.060948021709918976
 30
0.25609341263771057
 11
-0.7703237533569336
 21
0.060143280774354935
 31
0.25609341263771057
  0
LINE
  8
0
 10
-0.7701539993286133
 20
0.059047698974609375
 30
0.25609341263771057
 11
-0.7703237533569336
 21
0.060143280774354935
 31
0.25609341263771057
  0
LINE
  8
0
 10
-0.7895888090133667
 20
0.05842692404985428
 30
0.25609341263771057
 11
-0.7890260219573975
 21
0.05775589123368263
 31
0.25609341263771057
  0
LINE
  8
0
 10
-0.7895888090133667
 20
0.05842692404985428
 30
0.25609341263771057
 11
-0.7902224063873291
 21
0.05957578495144844
 31
0.25609341263771057
  0
LINE
  8
0
 10
-0.7906249761581421
 20
0.06215078756213188
 30
0.25609341263771057
 11
-0.7906249761581421
 21
0.06127501651644707
 31
0.25609341263771057
  0
LINE
  8
0
 10
-0.7902224063873291
 20
0.05957578495144844
 30
0.25609341263771057
 11
-0.790489673614502
 21
0.06040976196527481
 31
0.25609341263771057
  0
LINE
  8
0
 10
-0.7906249761581421
 20
0.06127501651644707
 30
0.25609341263771057
 11
-0.790489673614502
 21
0.06040976196527481
 31
0.25609341263771057
  0
LINE
  8
0
 10
-0.7562462687492371
 20
0.05791149660944939
 30
0.2560933828353882
 11
-0.7567872405052185
 21
0.05776868388056755
 31
0.2560933828353882
  0
LINE
  8
0
 10
-0.7567872405052185
 20
0.05776868388056755
 30
0.2560933828353882
 11
-0.7573341727256775
 21
0.05764003470540047
 31
0.2560933828353882
  0
LINE
  8
0
 10
-0.7573341727256775
 20
0.05764003470540047
 30
0.2560933828353882
 11
-0.7578864097595215
 21
0.057525720447301865
 31
0.2560933828353882
  0
LINE
  8
0
 10
-0.7578864097595215
 20
0.057525720447301865
 30
0.2560933828353882
 11
-0.7584433555603027
 21
0.0574258528649807
 31
0.2560933828353882
  0
LINE
  8
0
 10
-0.7652587294578552
 20
0.05737936124205589
 30
0.25609341263771057
 11
-0.7658178806304932
 21
0.0574716180562973
 31
0.25609341263771057
  0
LINE
  8
0
 10
-0.7584433555603027
 20
0.0574258528649807
 30
0.2560933828353882
 11
-0.7590043544769287
 21
0.05734054371714592
 31
0.2560933828353882
  0
LINE
  8
0
 10
-0.7663726806640625
 20
0.05757838860154152
 30
0.25609341263771057
 11
-0.7658178806304932
 21
0.0574716180562973
 31
0.25609341263771057
  0
LINE
  8
0
 10
-0.7663726806640625
 20
0.05757838860154152
 30
0.25609341263771057
 11
-0.7669224739074707
 21
0.057699549943208694
 31
0.25609341263771057
  0
LINE
  8
0
 10
-0.7680045366287231
 20
0.05798448249697685
 30
0.25609341263771057
 11
-0.7674666047096252
 21
0.057834964245557785
 31
0.25609341263771057
  0
LINE
  8
0
 10
-0.7669224739074707
 20
0.057699549943208694
 30
0.25609341263771057
 11
-0.7674666047096252
 21
0.057834964245557785
 31
0.25609341263771057
  0
LINE
  8
0
 10
-0.7890260219573975
 20
0.05775589123368263
 30
0.25609341263771057
 11
-0.7883663773536682
 21
0.05717983469367027
 31
0.25609341263771057
  0
LINE
  8
0
 10
-0.7590043544769287
 20
0.05734054371714592
 30
0.2560933828353882
 11
-0.7595688700675964
 21
0.05726989731192589
 31
0.2560933828353882
  0
LINE
  8
0
 10
-0.7595688700675964
 20
0.05726989731192589
 30
0.2560933828353882
 11
-0.760136067867279
 21
0.057214006781578064
 31
0.2560933828353882
  0
LINE
  8
0
 10
-0.7607054710388184
 20
0.05717292055487633
 30
0.2560933828353882
 11
-0.760136067867279
 21
0.057214006781578064
 31
0.2560933828353882
  0
LINE
  8
0
 10
-0.7612763047218323
 20
0.05714667588472366
 30
0.2560933828353882
 11
-0.761847972869873
 21
0.057135336101055145
 31
0.2560933828353882
  0
LINE
  8
0
 10
-0.7607054710388184
 20
0.05717292055487633
 30
0.2560933828353882
 11
-0.7612763047218323
 21
0.05714667588472366
 31
0.2560933828353882
  0
LINE
  8
0
 10
-0.7624198198318481
 20
0.05713887885212898
 30
0.2560933828353882
 11
-0.761847972869873
 21
0.057135336101055145
 31
0.2560933828353882
  0
LINE
  8
0
 10
-0.762991189956665
 20
0.057157326489686966
 30
0.2560933828353882
 11
-0.7635613679885864
 21
0.05719064176082611
 31
0.2560933828353882
  0
LINE
  8
0
 10
-0.7624198198318481
 20
0.05713887885212898
 30
0.2560933828353882
 11
-0.762991189956665
 21
0.057157326489686966
 31
0.2560933828353882
  0
LINE
  8
0
 10
-0.7635613679885864
 20
0.05719064176082611
 30
0.2560933828353882
 11
-0.7641298174858093
 21
0.05723879113793373
 31
0.2560933828353882
  0
LINE
  8
0
 10
-0.7641298174858093
 20
0.05723879113793373
 30
0.2560933828353882
 11
-0.7646958231925964
 21
0.05730172619223595
 31
0.2560933828353882
  0
LINE
  8
0
 10
-0.7652587294578552
 20
0.05737936124205589
 30
0.25609341263771057
 11
-0.7646958231925964
 21
0.05730172619223595
 31
0.2560933828353882
  0
LINE
  8
0
 10
-0.7855837941169739
 20
0.055384453386068344
 30
0.25609341263771057
 11
-0.7847468256950378
 21
0.0549418143928051
 31
0.25609341263771057
  0
LINE
  8
0
 10
-0.7883663773536682
 20
0.05717983469367027
 30
0.25609341263771057
 11
-0.7875964045524597
 21
0.05662886053323746
 31
0.25609341263771057
  0
LINE
  8
0
 10
-0.7864031195640564
 20
0.05585893988609314
 30
0.25609341263771057
 11
-0.7855837941169739
 21
0.055384453386068344
 31
0.25609341263771057
  0
LINE
  8
0
 10
-0.7864031195640564
 20
0.05585893988609314
 30
0.25609341263771057
 11
-0.7875964045524597
 21
0.05662886053323746
 31
0.25609341263771057
  0
LINE
  8
0
 10
-0.7124257683753967
 20
0.05163558945059776
 30
0.2560933828353882
 11
-0.7124257683753967
 21
0.038992591202259064
 31
0.2560933828353882
  0
LINE
  8
0
 10
-0.7392089366912842
 20
0.04487084224820137
 30
0.2560933828353882
 11
-0.7166649699211121
 21
0.037513941526412964
 31
0.2560933828353882
  0
LINE
  8
0
 10
-0.7434586882591248
 20
0.05113223195075989
 30
0.2560933828353882
 11
-0.7448949813842773
 21
0.050920501351356506
 31
0.2560933828353882
  0
LINE
  8
0
 10
-0.7448949813842773
 20
0.050920501351356506
 30
0.2560933828353882
 11
-0.7463346123695374
 21
0.05073273554444313
 31
0.2560933828353882
  0
LINE
  8
0
 10
-0.7506694197654724
 20
0.05031358823180199
 30
0.2560933828353882
 11
-0.7492222189903259
 21
0.050429217517375946
 31
0.2560933828353882
  0
LINE
  8
0
 10
-0.7463346123695374
 20
0.05073273554444313
 30
0.2560933828353882
 11
-0.7477771639823914
 21
0.05056895315647125
 31
0.2560933828353882
  0
LINE
  8
0
 10
-0.7506694197654724
 20
0.05031358823180199
 30
0.2560933828353882
 11
-0.7521183490753174
 21
0.050222065299749374
 31
0.2560933828353882
  0
LINE
  8
0
 10
-0.7477771639823914
 20
0.05056895315647125
 30
0.2560933828353882
 11
-0.7492222189903259
 21
0.050429217517375946
 31
0.2560933828353882
  0
LINE
  8
0
 10
-0.7521183490753174
 20
0.050222065299749374
 30
0.2560933828353882
 11
-0.7535685896873474
 21
0.050154682248830795
 31
0.2560933828353882
  0
LINE
  8
0
 10
-0.7564714550971985
 20
0.050092440098524094
 30
0.2560933828353882
 11
-0.7550197839736938
 21
0.05011146888136864
 31
0.2560933828353882
  0
LINE
  8
0
 10
-0.7550197839736938
 20
0.05011146888136864
 30
0.2560933828353882
 11
-0.7535685896873474
 21
0.050154682248830795
 31
0.2560933828353882
  0
LINE
  8
0
 10
-0.7564714550971985
 20
0.050092440098524094
 30
0.2560933828353882
 11
-0.7579232454299927
 21
0.05009758472442627
 31
0.2560933828353882
  0
LINE
  8
0
 10
-0.7579232454299927
 20
0.05009758472442627
 30
0.2560933828353882
 11
-0.7593747973442078
 21
0.05012690648436546
 31
0.2560933828353882
  0
LINE
  8
0
 10
-0.763723611831665
 20
0.05035984516143799
 30
0.2560933828353882
 11
-0.7622753381729126
 21
0.050258051604032516
 31
0.2560933828353882
  0
LINE
  8
0
 10
-0.7608256340026855
 20
0.05018039792776108
 30
0.2560933828353882
 11
-0.7622753381729126
 21
0.050258051604032516
 31
0.2560933828353882
  0
LINE
  8
0
 10
-0.7608256340026855
 20
0.05018039792776108
 30
0.2560933828353882
 11
-0.7593747973442078
 21
0.05012690648436546
 31
0.2560933828353882
  0
LINE
  8
0
 10
-0.7680553197860718
 20
0.05080970376729965
 30
0.25609341263771057
 11
-0.7666140198707581
 21
0.050635699182748795
 31
0.25609341263771057
  0
LINE
  8
0
 10
-0.763723611831665
 20
0.05035984516143799
 30
0.2560933828353882
 11
-0.7651699781417847
 21
0.05048574134707451
 31
0.2560933828353882
  0
LINE
  8
0
 10
-0.7680553197860718
 20
0.05080970376729965
 30
0.25609341263771057
 11
-0.769493579864502
 21
0.05100768059492111
 31
0.25609341263771057
  0
LINE
  8
0
 10
-0.7651699781417847
 20
0.05048574134707451
 30
0.2560933828353882
 11
-0.7666140198707581
 21
0.050635699182748795
 31
0.25609341263771057
  0
LINE
  8
0
 10
-0.7737857699394226
 20
0.05174493417143822
 30
0.25609341263771057
 11
-0.7723592519760132
 21
0.051475364714860916
 31
0.25609341263771057
  0
LINE
  8
0
 10
-0.7723592519760132
 20
0.051475364714860916
 30
0.25609341263771057
 11
-0.7709283828735352
 21
0.05122959241271019
 31
0.25609341263771057
  0
LINE
  8
0
 10
-0.769493579864502
 20
0.05100768059492111
 30
0.25609341263771057
 11
-0.7709283828735352
 21
0.05122959241271019
 31
0.25609341263771057
  0
LINE
  8
0
 10
-0.7737857699394226
 20
0.05174493417143822
 30
0.25609341263771057
 11
-0.7752076983451843
 21
0.05203823372721672
 31
0.25609341263771057
  0
LINE
  8
0
 10
-0.7780358195304871
 20
0.05269565060734749
 30
0.25609341263771057
 11
-0.778964102268219
 21
0.05288185924291611
 31
0.25609341263771057
  0
LINE
  8
0
 10
-0.7752076983451843
 20
0.05203823372721672
 30
0.25609341263771057
 11
-0.7766245007514954
 21
0.05235515907406807
 31
0.25609341263771057
  0
LINE
  8
0
 10
-0.778964102268219
 20
0.05288185924291611
 30
0.25609341263771057
 11
-0.7803414463996887
 21
0.05322776734828949
 31
0.25609341263771057
  0
LINE
  8
0
 10
-0.7780358195304871
 20
0.05269565060734749
 30
0.25609341263771057
 11
-0.7766245007514954
 21
0.05235515907406807
 31
0.25609341263771057
  0
LINE
  8
0
 10
-0.7803414463996887
 20
0.05322776734828949
 30
0.25609341263771057
 11
-0.781247615814209
 21
0.05350225046277046
 31
0.25609341263771057
  0
LINE
  8
0
 10
-0.781247615814209
 20
0.05350225046277046
 30
0.25609341263771057
 11
-0.7825853824615479
 21
0.053978804498910904
 31
0.25609341263771057
  0
LINE
  8
0
 10
-0.7838934659957886
 20
0.05453169345855713
 30
0.25609341263771057
 11
-0.7825853824615479
 21
0.053978804498910904
 31
0.25609341263771057
  0
LINE
  8
0
 10
-0.7847468256950378
 20
0.0549418143928051
 30
0.25609341263771057
 11
-0.7838934659957886
 21
0.05453169345855713
 31
0.25609341263771057
  0
LINE
  8
0
 10
-0.7014743089675903
 20
0.13357524573802948
 30
0.2560933828353882
 11
-0.700928807258606
 21
0.1333867609500885
 31
0.2560933828353882
  0
LINE
  8
0
 10
-0.700928807258606
 20
0.1333867609500885
 30
0.2560933828353882
 11
-0.7003879547119141
 21
0.13318563997745514
 31
0.2560933828353882
  0
LINE
  8
0
 10
-0.6993209719657898
 20
0.13274575769901276
 30
0.2560933828353882
 11
-0.6998518705368042
 21
0.13297191262245178
 31
0.2560933828353882
  0
LINE
  8
0
 10
-0.7003879547119141
 20
0.13318563997745514
 30
0.2560933828353882
 11
-0.6998518705368042
 21
0.13297191262245178
 31
0.2560933828353882
  0
LINE
  8
0
 10
-0.6982756853103638
 20
0.13225656747817993
 30
0.2560933828353882
 11
-0.6987954378128052
 21
0.13250724971294403
 31
0.2560933828353882
  0
LINE
  8
0
 10
-0.6993209719657898
 20
0.13274575769901276
 30
0.2560933828353882
 11
-0.6987954378128052
 21
0.13250724971294403
 31
0.2560933828353882
  0
LINE
  8
0
 10
-0.6982756853103638
 20
0.13225656747817993
 30
0.2560933828353882
 11
-0.6977618932723999
 21
0.13199383020401
 31
0.2560933828353882
  0
LINE
  8
0
 10
-0.6952924132347107
 20
0.13050436973571777
 30
0.2560933828353882
 11
-0.6957721710205078
 21
0.13082516193389893
 31
0.2560933828353882
  0
LINE
  8
0
 10
-0.6943560838699341
 20
0.12982966005802155
 30
0.2560933828353882
 11
-0.6948202848434448
 21
0.130172461271286
 31
0.2560933828353882
  0
LINE
  8
0
 10
-0.6952924132347107
 20
0.13050436973571777
 30
0.2560933828353882
 11
-0.6948202848434448
 21
0.130172461271286
 31
0.2560933828353882
  0
LINE
  8
0
 10
-0.6943560838699341
 20
0.12982966005802155
 30
0.2560933828353882
 11
-0.6938999891281128
 21
0.12947608530521393
 31
0.2560933828353882
  0
LINE
  8
0
 10
-0.6962592005729675
 20
0.13113465905189514
 30
0.2560933828353882
 11
-0.6967533826828003
 21
0.1314326971769333
 31
0.2560933828353882
  0
LINE
  8
0
 10
-0.6972543597221375
 20
0.13171914219856262
 30
0.2560933828353882
 11
-0.6967533826828003
 21
0.1314326971769333
 31
0.2560933828353882
  0
LINE
  8
0
 10
-0.6977618932723999
 20
0.13199383020401
 30
0.2560933828353882
 11
-0.6972543597221375
 21
0.13171914219856262
 31
0.2560933828353882
  0
LINE
  8
0
 10
-0.6957721710205078
 20
0.13082516193389893
 30
0.2560933828353882
 11
-0.6962592005729675
 21
0.13113465905189514
 31
0.2560933828353882
  0
LINE
  8
0
 10
-0.6930131912231445
 20
0.12873750925064087
 30
0.2560933828353882
 11
-0.6934522390365601
 21
0.12911197543144226
 31
0.2560933828353882
  0
LINE
  8
0
 10
-0.6938999891281128
 20
0.12947608530521393
 30
0.2560933828353882
 11
-0.6934522390365601
 21
0.12911197543144226
 31
0.2560933828353882
  0
LINE
  8
0
 10
-0.6925829648971558
 20
0.12835289537906647
 30
0.2560933828353882
 11
-0.6921617984771729
 21
0.12795837223529816
 31
0.2560933828353882
  0
LINE
  8
0
 10
-0.6930131912231445
 20
0.12873750925064087
 30
0.2560933828353882
 11
-0.6925829648971558
 21
0.12835289537906647
 31
0.2560933828353882
  0
LINE
  8
0
 10
-0.6917499303817749
 20
0.12755410373210907
 30
0.2560933828353882
 11
-0.6913476586341858
 21
0.1271403431892395
 31
0.2560933828353882
  0
LINE
  8
0
 10
-0.6921617984771729
 20
0.12795837223529816
 30
0.2560933828353882
 11
-0.6917499303817749
 21
0.12755410373210907
 31
0.2560933828353882
  0
LINE
  8
0
 10
-0.6905726194381714
 20
0.12628522515296936
 30
0.2560933828353882
 11
-0.6909551620483398
 21
0.12671729922294617
 31
0.2560933828353882
  0
LINE
  8
0
 10
-0.6913476586341858
 20
0.1271403431892395
 30
0.2560933828353882
 11
-0.6909551620483398
 21
0.12671729922294617
 31
0.2560933828353882
  0
LINE
  8
0
 10
-0.6905726194381714
 20
0.12628522515296936
 30
0.2560933828353882
 11
-0.6896916627883911
 21
0.1252250373363495
 31
0.2560933828353882
  0
LINE
  8
0
 10
-0.6896916627883911
 20
0.1252250373363495
 30
0.2560933828353882
 11
-0.6888529658317566
 21
0.12413111329078674
 31
0.2560933828353882
  0
LINE
  8
0
 10
-0.6880579590797424
 20
0.12300506234169006
 30
0.2560933828353882
 11
-0.6873077154159546
 21
0.12184867262840271
 31
0.2560933828353882
  0
LINE
  8
0
 10
-0.6888529658317566
 20
0.12413111329078674
 30
0.2560933828353882
 11
-0.6880579590797424
 21
0.12300506234169006
 31
0.2560933828353882
  0
LINE
  8
0
 10
-0.6873077154159546
 20
0.12184867262840271
 30
0.2560933828353882
 11
-0.6866034865379333
 21
0.12066372483968735
 31
0.2560933828353882
  0
LINE
  8
0
 10
-0.6866034865379333
 20
0.12066372483968735
 30
0.2560933828353882
 11
-0.6859462857246399
 21
0.11945201456546783
 31
0.2560933828353882
  0
LINE
  8
0
 10
-0.6859462857246399
 20
0.11945201456546783
 30
0.2560933828353882
 11
-0.6853371858596802
 21
0.11821543425321579
 31
0.2560933828353882
  0
LINE
  8
0
 10
-0.6853371858596802
 20
0.11821543425321579
 30
0.2560933828353882
 11
-0.6847771406173706
 21
0.11695591360330582
 31
0.2560933828353882
  0
LINE
  8
0
 10
-0.6849013566970825
 20
0.09052838385105133
 30
0.2560933828353882
 11
-0.6856176257133484
 21
0.08943982422351837
 31
0.2560933828353882
  0
LINE
  8
0
 10
-0.6856176257133484
 20
0.08943982422351837
 30
0.2560933828353882
 11
-0.686416745185852
 21
0.08841060101985931
 31
0.2560933828353882
  0
LINE
  8
0
 10
-0.686416745185852
 20
0.08841060101985931
 30
0.2560933828353882
 11
-0.6872939467430115
 21
0.08744702488183975
 31
0.2560933828353882
  0
LINE
  8
0
 10
-0.6892606019973755
 20
0.08573998510837555
 30
0.2560933828353882
 11
-0.6882438659667969
 21
0.08655501157045364
 31
0.2560933828353882
  0
LINE
  8
0
 10
-0.6872939467430115
 20
0.08744702488183975
 30
0.2560933828353882
 11
-0.6882438659667969
 21
0.08655501157045364
 31
0.2560933828353882
  0
LINE
  8
0
 10
-0.6892606019973755
 20
0.08573998510837555
 30
0.2560933828353882
 11
-0.6903379559516907
 21
0.08500698208808899
 31
0.2560933828353882
  0
LINE
  8
0
 10
-0.6926477551460266
 20
0.0838044136762619
 30
0.2560933828353882
 11
-0.6914693117141724
 21
0.08436048030853271
 31
0.2560933828353882
  0
LINE
  8
0
 10
-0.6903379559516907
 20
0.08500698208808899
 30
0.2560933828353882
 11
-0.6914693117141724
 21
0.08436048030853271
 31
0.2560933828353882
  0
LINE
  8
0
 10
-0.6938661336898804
 20
0.08334222435951233
 30
0.2560933828353882
 11
-0.6951168179512024
 21
0.08297672122716904
 31
0.2560933828353882
  0
LINE
  8
0
 10
-0.6926477551460266
 20
0.0838044136762619
 30
0.2560933828353882
 11
-0.6938661336898804
 21
0.08334222435951233
 31
0.2560933828353882
  0
LINE
  8
0
 10
-0.6951168179512024
 20
0.08297672122716904
 30
0.2560933828353882
 11
-0.6963923573493958
 21
0.0827101543545723
 31
0.2560933828353882
  0
LINE
  8
0
 10
-0.6963923573493958
 20
0.0827101543545723
 30
0.2560933828353882
 11
-0.6976848244667053
 21
0.08254413306713104
 31
0.2560933828353882
  0
LINE
  8
0
 10
-0.7015843987464905
 20
0.08265651762485504
 30
0.2560933828353882
 11
-0.7002887725830078
 21
0.08251723647117615
 31
0.2560933828353882
  0
LINE
  8
0
 10
-0.6976848244667053
 20
0.08254413306713104
 30
0.2560933828353882
 11
-0.698986291885376
 21
0.08247969299554825
 31
0.2560933828353882
  0
LINE
  8
0
 10
-0.6859990954399109
 20
0.07814939320087433
 30
0.2560933828353882
 11
-0.6870973706245422
 21
0.07802485674619675
 31
0.2560933828353882
  0
LINE
  8
0
 10
-0.7002887725830078
 20
0.08251723647117615
 30
0.2560933828353882
 11
-0.698986291885376
 21
0.08247969299554825
 31
0.2560933828353882
  0
LINE
  8
0
 10
-0.6865334510803223
 20
0.0695495530962944
 30
0.2560933828353882
 11
-0.685714066028595
 21
0.06981812417507172
 31
0.2560933828353882
  0
LINE
  8
0
 10
-0.685714066028595
 20
0.06981812417507172
 30
0.2560933828353882
 11
-0.6848840117454529
 21
0.07005143165588379
 31
0.2560933828353882
  0
LINE
  8
0
 10
-0.7124257683753967
 20
0.060445159673690796
 30
0.2560933828353882
 11
-0.6865334510803223
 21
0.0695495530962944
 31
0.2560933828353882
  0
LINE
  8
0
 10
-0.6870973706245422
 20
0.07802485674619675
 30
0.2560933828353882
 11
-0.6881946325302124
 21
0.07789185643196106
 31
0.2560933828353882
  0
LINE
  8
0
 10
-0.6881946325302124
 20
0.07789185643196106
 30
0.2560933828353882
 11
-0.6892908215522766
 21
0.07775037735700607
 31
0.2560933828353882
  0
LINE
  8
0
 10
-0.6925724744796753
 20
0.07727523148059845
 30
0.2560933828353882
 11
-0.6914798021316528
 21
0.07744206488132477
 31
0.2560933828353882
  0
LINE
  8
0
 10
-0.6892908215522766
 20
0.07775037735700607
 30
0.2560933828353882
 11
-0.6903859376907349
 21
0.07760044187307358
 31
0.2560933828353882
  0
LINE
  8
0
 10
-0.6925724744796753
 20
0.07727523148059845
 30
0.2560933828353882
 11
-0.6936637759208679
 21
0.0770999863743782
 31
0.2560933828353882
  0
LINE
  8
0
 10
-0.6914798021316528
 20
0.07744206488132477
 30
0.2560933828353882
 11
-0.6903859376907349
 21
0.07760044187307358
 31
0.2560933828353882
  0
LINE
  8
0
 10
-0.6958421468734741
 20
0.07672423124313354
 30
0.2560933828353882
 11
-0.6969290971755981
 21
0.07652374356985092
 31
0.2560933828353882
  0
LINE
  8
0
 10
-0.6958421468734741
 20
0.07672423124313354
 30
0.2560933828353882
 11
-0.6947537064552307
 21
0.07691631466150284
 31
0.2560933828353882
  0
LINE
  8
0
 10
-0.698014497756958
 20
0.07631488144397736
 30
0.2560933828353882
 11
-0.6969290971755981
 21
0.07652374356985092
 31
0.2560933828353882
  0
LINE
  8
0
 10
-0.6936637759208679
 20
0.0770999863743782
 30
0.2560933828353882
 11
-0.6947537064552307
 21
0.07691631466150284
 31
0.2560933828353882
  0
LINE
  8
0
 10
-0.6990982890129089
 20
0.07609763741493225
 30
0.2560933828353882
 11
-0.7001802921295166
 21
0.0758720338344574
 31
0.2560933828353882
  0
LINE
  8
0
 10
-0.698014497756958
 20
0.07631488144397736
 30
0.2560933828353882
 11
-0.6990982890129089
 21
0.07609763741493225
 31
0.2560933828353882
  0
LINE
  8
0
 10
-0.701260507106781
 20
0.07563809305429459
 30
0.2560933828353882
 11
-0.7001802921295166
 21
0.0758720338344574
 31
0.2560933828353882
  0
LINE
  8
0
 10
-0.6838074922561646
 20
0.1143757626414299
 30
0.2560933828353882
 11
-0.684266984462738
 21
0.11567535251379013
 31
0.2560933828353882
  0
LINE
  8
0
 10
-0.6847771406173706
 20
0.11695591360330582
 30
0.2560933828353882
 11
-0.684266984462738
 21
0.11567535251379013
 31
0.2560933828353882
  0
LINE
  8
0
 10
-0.6838074922561646
 20
0.1143757626414299
 30
0.2560933828353882
 11
-0.6833994388580322
 21
0.11305911093950272
 31
0.2560933828353882
  0
LINE
  8
0
 10
-0.6833994388580322
 20
0.11305911093950272
 30
0.2560933828353882
 11
-0.6830433011054993
 21
0.11172745376825333
 31
0.2560933828353882
  0
LINE
  8
0
 10
-0.6830433011054993
 20
0.11172745376825333
 30
0.2560933828353882
 11
-0.682739794254303
 21
0.11038286983966827
 31
0.2560933828353882
  0
LINE
  8
0
 10
-0.6829453110694885
 20
0.09533816576004028
 30
0.2560933828353882
 11
-0.6826578974723816
 21
0.09668631106615067
 31
0.2560933828353882
  0
LINE
  8
0
 10
-0.6829453110694885
 20
0.09533816576004028
 30
0.2560933828353882
 11
-0.6832914352416992
 21
0.09408190846443176
 31
0.2560933828353882
  0
LINE
  8
0
 10
-0.6842724680900574
 20
0.09166963398456573
 30
0.2560933828353882
 11
-0.6837347149848938
 21
0.09285656362771988
 31
0.2560933828353882
  0
LINE
  8
0
 10
-0.6832914352416992
 20
0.09408190846443176
 30
0.2560933828353882
 11
-0.6837347149848938
 21
0.09285656362771988
 31
0.2560933828353882
  0
LINE
  8
0
 10
-0.6849013566970825
 20
0.09052838385105133
 30
0.2560933828353882
 11
-0.6842724680900574
 21
0.09166963398456573
 31
0.2560933828353882
  0
LINE
  8
0
 10
-0.6846153736114502
 20
0.07823139429092407
 30
0.2560933828353882
 11
-0.6832298040390015
 21
0.07827476412057877
 31
0.2560933828353882
  0
LINE
  8
0
 10
-0.6859990954399109
 20
0.07814939320087433
 30
0.2560933828353882
 11
-0.6846153736114502
 21
0.07823139429092407
 31
0.2560933828353882
  0
LINE
  8
0
 10
-0.6848840117454529
 20
0.07005143165588379
 30
0.2560933828353882
 11
-0.6840446591377258
 21
0.0702490285038948
 31
0.2560933828353882
  0
LINE
  8
0
 10
-0.6840446591377258
 20
0.0702490285038948
 30
0.2560933828353882
 11
-0.6827718019485474
 21
0.07047773897647858
 31
0.2560933828353882
  0
LINE
  8
0
 10
-0.6822922825813293
 20
0.107663094997406
 30
0.2560933828353882
 11
-0.6821489334106445
 21
0.10629214346408844
 31
0.2560933828353882
  0
LINE
  8
0
 10
-0.6822922825813293
 20
0.107663094997406
 30
0.2560933828353882
 11
-0.6824893355369568
 21
0.10902736335992813
 31
0.2560933828353882
  0
LINE
  8
0
 10
-0.682739794254303
 20
0.11038286983966827
 30
0.2560933828353882
 11
-0.6824893355369568
 21
0.10902736335992813
 31
0.2560933828353882
  0
LINE
  8
0
 10
-0.6820242404937744
 20
0.1035386323928833
 30
0.2560933828353882
 11
-0.6820430755615234
 21
0.10216029733419418
 31
0.2560933828353882
  0
LINE
  8
0
 10
-0.6820242404937744
 20
0.1035386323928833
 30
0.2560933828353882
 11
-0.6820595264434814
 21
0.10491658747196198
 31
0.2560933828353882
  0
LINE
  8
0
 10
-0.6821489334106445
 20
0.10629214346408844
 30
0.2560933828353882
 11
-0.6820595264434814
 21
0.10491658747196198
 31
0.2560933828353882
  0
LINE
  8
0
 10
-0.6820430755615234
 20
0.10216029733419418
 30
0.2560933828353882
 11
-0.6821159720420837
 21
0.1007838100194931
 31
0.2560933828353882
  0
LINE
  8
0
 10
-0.6821159720420837
 20
0.1007838100194931
 30
0.2560933828353882
 11
-0.6822429299354553
 21
0.09941122680902481
 31
0.2560933828353882
  0
LINE
  8
0
 10
-0.6822429299354553
 20
0.09941122680902481
 30
0.2560933828353882
 11
-0.6824236512184143
 21
0.09804469347000122
 31
0.2560933828353882
  0
LINE
  8
0
 10
-0.6826578974723816
 20
0.09668631106615067
 30
0.2560933828353882
 11
-0.6824236512184143
 21
0.09804469347000122
 31
0.2560933828353882
  0
LINE
  8
0
 10
-0.6832298040390015
 20
0.07827476412057877
 30
0.2560933828353882
 11
-0.6818435788154602
 21
0.07827948778867722
 31
0.2560933828353882
  0
LINE
  8
0
 10
-0.6818435788154602
 20
0.07827948778867722
 30
0.2560933828353882
 11
-0.6804578304290771
 21
0.07824552804231644
 31
0.2560933828353882
  0
LINE
  8
0
 10
-0.6819161772727966
 20
0.07058466970920563
 30
0.2560933828353882
 11
-0.681056797504425
 21
0.07065492123365402
 31
0.2560933828353882
  0
LINE
  8
0
 10
-0.6804578304290771
 20
0.07824552804231644
 30
0.2560933828353882
 11
-0.6790735125541687
 21
0.0781729444861412
 31
0.2560933828353882
  0
LINE
  8
0
 10
-0.681056797504425
 20
0.07065492123365402
 30
0.2560933828353882
 11
-0.6797640323638916
 21
0.07069128751754761
 31
0.2560933828353882
  0
LINE
  8
0
 10
-0.6827718019485474
 20
0.07047773897647858
 30
0.2560933828353882
 11
-0.6819161772727966
 21
0.07058466970920563
 31
0.2560933828353882
  0
LINE
  8
0
 10
-0.6729897856712341
 20
0.06626355648040771
 30
0.2560933530330658
 11
-0.6737939715385437
 21
0.06578290462493896
 31
0.2560933828353882
  0
LINE
  8
0
 10
-0.6731257438659668
 20
0.06903351843357086
 30
0.2560933530330658
 11
-0.6739755272865295
 21
0.06956399232149124
 31
0.2560933828353882
  0
LINE
  8
0
 10
-0.6731257438659668
 20
0.06903351843357086
 30
0.2560933530330658
 11
-0.6725521683692932
 21
0.06855884939432144
 31
0.2560933530330658
  0
LINE
  8
0
 10
-0.6735726594924927
 20
0.07749778777360916
 30
0.2560933530330658
 11
-0.674940288066864
 21
0.07772406190633774
 31
0.2560933828353882
  0
LINE
  8
0
 10
-0.6737939715385437
 20
0.06578290462493896
 30
0.2560933828353882
 11
-0.6744911074638367
 21
0.06540210545063019
 31
0.2560933828353882
  0
LINE
  8
0
 10
-0.6739755272865295
 20
0.06956399232149124
 30
0.2560933828353882
 11
-0.6750425696372986
 21
0.07004013657569885
 31
0.2560933828353882
  0
LINE
  8
0
 10
-0.674940288066864
 20
0.07772406190633774
 30
0.2560933828353882
 11
-0.6763136982917786
 21
0.0779120996594429
 31
0.2560933828353882
  0
LINE
  8
0
 10
-0.6744911074638367
 20
0.06540210545063019
 30
0.2560933828353882
 11
-0.6749622821807861
 21
0.06516030430793762
 31
0.2560933828353882
  0
LINE
  8
0
 10
-0.675438404083252
 20
0.06492828577756882
 30
0.2560933828353882
 11
-0.6761612296104431
 21
0.06459880620241165
 31
0.2560933828353882
  0
LINE
  8
0
 10
-0.6749622821807861
 20
0.06516030430793762
 30
0.2560933828353882
 11
-0.675438404083252
 21
0.06492828577756882
 31
0.2560933828353882
  0
LINE
  8
0
 10
-0.6750425696372986
 20
0.07004013657569885
 30
0.2560933828353882
 11
-0.676004946231842
 21
0.0703183263540268
 31
0.2560933828353882
  0
LINE
  8
0
 10
-0.676004946231842
 20
0.0703183263540268
 30
0.2560933828353882
 11
-0.6771847605705261
 21
0.07051541656255722
 31
0.2560933828353882
  0
LINE
  8
0
 10
-0.6761612296104431
 20
0.06459880620241165
 30
0.2560933828353882
 11
-0.6766486763954163
 21
0.06439164280891418
 31
0.2560933828353882
  0
LINE
  8
0
 10
-0.6763136982917786
 20
0.0779120996594429
 30
0.2560933828353882
 11
-0.6776917576789856
 21
0.0780617743730545
 31
0.2560933828353882
  0
LINE
  8
0
 10
-0.6771847605705261
 20
0.07051541656255722
 30
0.2560933828353882
 11
-0.6780417561531067
 21
0.07061078399419785
 31
0.2560933828353882
  0
LINE
  8
0
 10
-0.6766486763954163
 20
0.06439164280891418
 30
0.2560933828353882
 11
-0.6771402359008789
 21
0.06419458985328674
 31
0.2560933828353882
  0
LINE
  8
0
 10
-0.6790735125541687
 20
0.0781729444861412
 30
0.2560933828353882
 11
-0.6776917576789856
 21
0.0780617743730545
 31
0.2560933828353882
  0
LINE
  8
0
 10
-0.6771402359008789
 20
0.06419458985328674
 30
0.2560933828353882
 11
-0.6778849959373474
 21
0.06391813606023788
 31
0.2560933828353882
  0
LINE
  8
0
 10
-0.6780417561531067
 20
0.07061078399419785
 30
0.2560933828353882
 11
-0.6789020299911499
 21
0.07066944986581802
 31
0.2560933828353882
  0
LINE
  8
0
 10
-0.6778849959373474
 20
0.06391813606023788
 30
0.2560933828353882
 11
-0.6786379218101501
 21
0.06366485357284546
 31
0.2560933828353882
  0
LINE
  8
0
 10
-0.6797640323638916
 20
0.07069128751754761
 30
0.2560933828353882
 11
-0.6789020299911499
 21
0.07066944986581802
 31
0.2560933828353882
  0
LINE
  8
0
 10
-0.7124257683753967
 20
0.05163558945059776
 30
0.2560933828353882
 11
-0.6786379218101501
 21
0.06366485357284546
 31
0.2560933828353882
  0
LINE
  8
0
 10
-0.7124257683753967
 20
0.038992591202259064
 30
0.2560933828353882
 11
-0.6600027084350586
 21
0.05794135108590126
 31
0.2560933530330658
  0
LINE
  8
0
 10
-0.6604451537132263
 20
0.07318545877933502
 30
0.2560933530330658
 11
-0.6616976261138916
 21
0.07377956062555313
 31
0.2560933530330658
  0
LINE
  8
0
 10
-0.6629661321640015
 20
0.07433849573135376
 30
0.2560933530330658
 11
-0.6616976261138916
 21
0.07377956062555313
 31
0.2560933530330658
  0
LINE
  8
0
 10
-0.6629661321640015
 20
0.07433849573135376
 30
0.2560933530330658
 11
-0.6642497777938843
 21
0.07486181706190109
 31
0.2560933530330658
  0
LINE
  8
0
 10
-0.6642497777938843
 20
0.07486181706190109
 30
0.2560933530330658
 11
-0.6655474901199341
 21
0.07534915208816528
 31
0.2560933530330658
  0
LINE
  8
0
 10
-0.6655474901199341
 20
0.07534915208816528
 30
0.2560933530330658
 11
-0.6668583154678345
 21
0.0758001059293747
 31
0.2560933530330658
  0
LINE
  8
0
 10
-0.6668583154678345
 20
0.0758001059293747
 30
0.2560933530330658
 11
-0.6681811809539795
 21
0.07621430605649948
 31
0.2560933530330658
  0
LINE
  8
0
 10
-0.669515073299408
 20
0.07659146189689636
 30
0.2560933530330658
 11
-0.6681811809539795
 21
0.07621430605649948
 31
0.2560933530330658
  0
LINE
  8
0
 10
-0.669515073299408
 20
0.07659146189689636
 30
0.2560933530330658
 11
-0.6708590388298035
 21
0.07693125307559967
 31
0.2560933530330658
  0
LINE
  8
0
 10
-0.6722118854522705
 20
0.0772334411740303
 30
0.2560933530330658
 11
-0.6708590388298035
 21
0.07693125307559967
 31
0.2560933530330658
  0
LINE
  8
0
 10
-0.672210693359375
 20
0.06730437278747559
 30
0.2560933530330658
 11
-0.6724443435668945
 21
0.06674367189407349
 31
0.2560933530330658
  0
LINE
  8
0
 10
-0.672210693359375
 20
0.06730437278747559
 30
0.2560933530330658
 11
-0.6722537875175476
 21
0.0680297464132309
 31
0.2560933530330658
  0
LINE
  8
0
 10
-0.6725521683692932
 20
0.06855884939432144
 30
0.2560933530330658
 11
-0.6722537875175476
 21
0.0680297464132309
 31
0.2560933530330658
  0
LINE
  8
0
 10
-0.6735726594924927
 20
0.07749778777360916
 30
0.2560933530330658
 11
-0.6722118854522705
 21
0.0772334411740303
 31
0.2560933530330658
  0
LINE
  8
0
 10
-0.6729897856712341
 20
0.06626355648040771
 30
0.2560933530330658
 11
-0.6724443435668945
 21
0.06674367189407349
 31
0.2560933530330658
  0
LINE
  8
0
 10
-0.6568836569786072
 20
0.059513263404369354
 30
0.2560933530330658
 11
-0.6563101410865784
 21
0.05991480499505997
 31
0.2560933530330658
  0
LINE
  8
0
 10
-0.6556154489517212
 20
0.07046709954738617
 30
0.2560933530330658
 11
-0.6567939519882202
 21
0.07119695097208023
 31
0.2560933530330658
  0
LINE
  8
0
 10
-0.6557564735412598
 20
0.06034340709447861
 30
0.2560933530330658
 11
-0.6563101410865784
 21
0.05991480499505997
 31
0.2560933530330658
  0
LINE
  8
0
 10
-0.6567939519882202
 20
0.07119695097208023
 30
0.2560933530330658
 11
-0.657992422580719
 21
0.07189366221427917
 31
0.2560933530330658
  0
LINE
  8
0
 10
-0.657992422580719
 20
0.07189366221427917
 30
0.2560933530330658
 11
-0.6592097878456116
 21
0.07255666702985764
 31
0.2560933530330658
  0
LINE
  8
0
 10
-0.6580852270126343
 20
0.05879494920372963
 30
0.2560933530330658
 11
-0.6574758291244507
 21
0.0591396801173687
 31
0.2560933530330658
  0
LINE
  8
0
 10
-0.6568836569786072
 20
0.059513263404369354
 30
0.2560933530330658
 11
-0.6574758291244507
 21
0.0591396801173687
 31
0.2560933530330658
  0
LINE
  8
0
 10
-0.6580852270126343
 20
0.05879494920372963
 30
0.2560933530330658
 11
-0.6587104797363281
 21
0.05847983434796333
 31
0.2560933530330658
  0
LINE
  8
0
 10
-0.6587104797363281
 20
0.05847983434796333
 30
0.2560933530330658
 11
-0.6593500971794128
 21
0.0581950917840004
 31
0.2560933530330658
  0
LINE
  8
0
 10
-0.6604451537132263
 20
0.07318545877933502
 30
0.2560933530330658
 11
-0.6592097878456116
 21
0.07255666702985764
 31
0.2560933530330658
  0
LINE
  8
0
 10
-0.6600027084350586
 20
0.05794135108590126
 30
0.2560933530330658
 11
-0.6593500971794128
 21
0.0581950917840004
 31
0.2560933530330658
  0
LINE
  8
0
 10
-0.6537152528762817
 20
0.06908205896615982
 30
0.2560933530330658
 11
-0.6532966494560242
 21
0.06858918815851212
 31
0.2560933530330658
  0
LINE
  8
0
 10
-0.6532966494560242
 20
0.06858918815851212
 30
0.2560933530330658
 11
-0.652802586555481
 21
0.06775557994842529
 31
0.2560933530330658
  0
LINE
  8
0
 10
-0.6557564735412598
 20
0.06034340709447861
 30
0.2560933530330658
 11
-0.6552240252494812
 21
0.060798075050115585
 31
0.2560933530330658
  0
LINE
  8
0
 10
-0.654227614402771
 20
0.061781369149684906
 30
0.2560933530330658
 11
-0.6537659168243408
 21
0.06230773404240608
 31
0.2560933530330658
  0
LINE
  8
0
 10
-0.6524232625961304
 20
0.06652230024337769
 30
0.2560933530330658
 11
-0.6525711417198181
 21
0.06715177744626999
 31
0.2560933530330658
  0
LINE
  8
0
 10
-0.6524232625961304
 20
0.06652230024337769
 30
0.2560933530330658
 11
-0.6523634195327759
 21
0.06555512547492981
 31
0.2560933530330658
  0
LINE
  8
0
 10
-0.652802586555481
 20
0.06775557994842529
 30
0.2560933530330658
 11
-0.6525711417198181
 21
0.06715177744626999
 31
0.2560933530330658
  0
LINE
  8
0
 10
-0.6556154489517212
 20
0.07046709954738617
 30
0.2560933530330658
 11
-0.6544577479362488
 21
0.06970465928316116
 31
0.2560933530330658
  0
LINE
  8
0
 10
-0.6533299684524536
 20
0.06285563111305237
 30
0.2560933530330658
 11
-0.6537659168243408
 21
0.06230773404240608
 31
0.2560933530330658
  0
LINE
  8
0
 10
-0.6552240252494812
 20
0.060798075050115585
 30
0.2560933530330658
 11
-0.654714047908783
 21
0.061277762055397034
 31
0.2560933530330658
  0
LINE
  8
0
 10
-0.6533299684524536
 20
0.06285563111305237
 30
0.2560933530330658
 11
-0.6529753804206848
 21
0.06339634209871292
 31
0.2560933530330658
  0
LINE
  8
0
 10
-0.6523634195327759
 20
0.06555512547492981
 30
0.2560933530330658
 11
-0.6524326205253601
 21
0.06491220742464066
 31
0.2560933530330658
  0
LINE
  8
0
 10
-0.6525878310203552
 20
0.06428448855876923
 30
0.2560933530330658
 11
-0.6524326205253601
 21
0.06491220742464066
 31
0.2560933530330658
  0
LINE
  8
0
 10
-0.6525878310203552
 20
0.06428448855876923
 30
0.2560933530330658
 11
-0.6529753804206848
 21
0.06339634209871292
 31
0.2560933530330658
  0
LINE
  8
0
 10
-0.6537152528762817
 20
0.06908205896615982
 30
0.2560933530330658
 11
-0.6544577479362488
 21
0.06970465928316116
 31
0.2560933530330658
  0
LINE
  8
0
 10
-0.654227614402771
 20
0.061781369149684906
 30
0.2560933530330658
 11
-0.654714047908783
 21
0.061277762055397034
 31
0.2560933530330658
  0
ENDSEC
  0
EOF
