  0
SECTION
  2
HEADER
  9
$ACADVER
  1
AC1009
  9
$INSBASE
 10
0.0
 20
0.0
 30
0.0
  9
$EXTMIN
 10
0.0
 20
0.0
 30
0.0
  9
$EXTMAX
 10
0.0
 20
0.0
 30
0.0
  0
ENDSEC
  0
SECTION
  2
TABLES
  0
TABLE
  2
VPORT
 70
1
  0
VPORT
  2
*ACTIVE
 70
0
 10
0.0
 20
0.0
 11
1.0
 21
1.0
 12
-5.0
 22
1.0
 13
0.0
 23
0.0
 14
0.1
 24
0.1
 15
0.1
 25
0.1
 16
0.0
 26
0.0
 36
1.0
 17
0.0
 27
0.0
 37
0.0
 40
10.0
 41
1.0
 42
50.0
 43
0.0
 44
0.0
 50
0.0
 51
0.0
 71
0
 72
100
 73
1
 74
1
 75
0
 76
0
 77
0
 78
0
  0
ENDTAB
  0
TABLE
  2
LTYPE
 70
8
  0
LTYPE
  2
CONTINUOUS
 70
0
  3
Solid line
 72
65
 73
0
 40
0.0
  0
LTYPE
  2
DOT
 70
0
  3
. . . . . . .
 72
65
 73
2
 40
0.25
 49
0.0
 49
-0.25
  0
LTYPE
  2
DASHED
 70
0
  3
__ __ __ __ __
 72
65
 73
2
 40
0.8
 49
0.5
 49
-0.3
  0
LTYPE
  2
DASHDOT
 70
0
  3
__ . __ . __ .
 72
65
 73
4
 40
1.0
 49
0.5
 49
-0.25
 49
0.0
 49
-0.25
  0
LTYPE
  2
DIVIDE
 70
0
  3
____ . . ____ . . 
 72
65
 73
6
 40
1.25
 49
0.5
 49
-0.25
 49
0.0
 49
-0.25
 49
0.0
 49
-0.25
  0
LTYPE
  2
BORDER
 70
0
  3
__ __ . __ __ . 
 72
65
 73
6
 40
1.75
 49
0.5
 49
-0.25
 49
0.5
 49
-0.25
 49
0.0
 49
-0.25
  0
LTYPE
  2
HIDDEN
 70
0
  3
__ __ __ __ __
 72
65
 73
2
 40
0.4
 49
0.25
 49
-0.25
  0
LTYPE
  2
CENTER
 70
0
  3
____ _ ____ _ __
 72
65
 73
4
 40
2.0
 49
1.25
 49
-0.25
 49
0.25
 49
-0.25
  0
ENDTAB
  0
TABLE
  2
LAYER
 70
1
  0
LAYER
  2
PYDXF
 70
64
 62
7
  6
continuous
  0
ENDTAB
  0
TABLE
  2
STYLE
 70
1
  0
STYLE
  2
STANDARD
 70
0
 40
0
 41
1.0
 50
0.0
 71
0
 42
1
 3
ARIAL.TTF
 4

  0
ENDTAB
  0
TABLE
  2
VIEW
 70
1
  0
VIEW
  2
BF_TOPVIEW
 70
0
 40
120.0
 10
0.0
 20
0.0
 41
200.0
 11
0.0
 21
0.0
 31
1.0
 12
0.0
 22
0.0
 32
0.0
 42
50.0
 43
0.0
 44
0.0
 50
0.0
 71
0
  0
ENDTAB
  0
ENDSEC
  0
SECTION
  2
BLOCKS
  0
ENDSEC
  0
SECTION
  2
ENTITIES
  0
LINE
  8
0
 10
0.743613600730896
 20
0.5481497645378113
 30
0.08189208060503006
 11
0.7436136603355408
 21
0.3692827820777893
 31
0.08189208060503006
  0
LINE
  8
0
 10
0.743613600730896
 20
0.5481497645378113
 30
0.08189208060503006
 11
1.2345411777496338
 21
0.5481498837471008
 31
0.08189208060503006
  0
LINE
  8
0
 10
1.2345411777496338
 20
0.5481498837471008
 30
0.08189208060503006
 11
1.2345412969589233
 21
0.36928287148475647
 31
0.08189208060503006
  0
LINE
  8
0
 10
0.7436136603355408
 20
0.3692827820777893
 30
0.08189208060503006
 11
1.2345412969589233
 21
0.36928287148475647
 31
0.08189208060503006
  0
LINE
  8
0
 10
0.7422650456428528
 20
0.7463842630386353
 30
0.08189208060503006
 11
0.7422651052474976
 21
0.5675172805786133
 31
0.08189208060503006
  0
LINE
  8
0
 10
0.7422650456428528
 20
0.7463842630386353
 30
0.08189208060503006
 11
1.2331926822662354
 21
0.7463843822479248
 31
0.08189208060503006
  0
LINE
  8
0
 10
1.2331926822662354
 20
0.7463843822479248
 30
0.08189208060503006
 11
1.2331926822662354
 21
0.5675173997879028
 31
0.08189208060503006
  0
LINE
  8
0
 10
0.7422651052474976
 20
0.5675172805786133
 30
0.08189208060503006
 11
1.2331926822662354
 21
0.5675173997879028
 31
0.08189208060503006
  0
LINE
  8
0
 10
1.0449998378753662
 20
0.28894177079200745
 30
0.36636441946029663
 11
1.0449998378753662
 21
0.29592373967170715
 31
0.36636441946029663
  0
LINE
  8
0
 10
1.053598165512085
 20
0.29158973693847656
 30
0.36636441946029663
 11
1.0539408922195435
 21
0.2885010540485382
 31
0.36636441946029663
  0
LINE
  8
0
 10
1.053598165512085
 20
0.29158973693847656
 30
0.36636441946029663
 11
1.0533016920089722
 21
0.29426252841949463
 31
0.36636441946029663
  0
LINE
  8
0
 10
1.1633009910583496
 20
0.27562057971954346
 30
0.36636441946029663
 11
1.1635091304779053
 21
0.28302252292633057
 31
0.36636441946029663
  0
LINE
  8
0
 10
1.1569397449493408
 20
0.28150779008865356
 30
0.36636441946029663
 11
1.1568032503128052
 21
0.28254467248916626
 31
0.36636441946029663
  0
LINE
  8
0
 10
1.1567838191986084
 20
0.2803231477737427
 30
0.36636441946029663
 11
1.1569397449493408
 21
0.28150779008865356
 31
0.36636441946029663
  0
LINE
  8
0
 10
1.1566473245620728
 20
0.27928626537323
 30
0.36636441946029663
 11
1.1567838191986084
 21
0.2803231477737427
 31
0.36636441946029663
  0
LINE
  8
0
 10
1.156190037727356
 20
0.27818235754966736
 30
0.36636441946029663
 11
1.1566473245620728
 21
0.27928626537323
 31
0.36636441946029663
  0
LINE
  8
0
 10
1.1327930688858032
 20
0.27315324544906616
 30
0.36636441946029663
 11
1.1325963735580444
 21
0.28804314136505127
 31
0.36636441946029663
  0
LINE
  8
0
 10
1.1409231424331665
 20
0.2772161662578583
 30
0.36636441946029663
 11
1.1404658555984497
 21
0.2783200740814209
 31
0.36636441946029663
  0
LINE
  8
0
 10
1.1404658555984497
 20
0.2783200740814209
 30
0.36636441946029663
 11
1.1400656700134277
 21
0.27928629517555237
 31
0.36636441946029663
  0
LINE
  8
0
 10
1.1400656700134277
 20
0.27928629517555237
 30
0.36636441946029663
 11
1.1399097442626953
 21
0.28047090768814087
 31
0.36636441946029663
  0
LINE
  8
0
 10
1.1399097442626953
 20
0.28047090768814087
 30
0.36636441946029663
 11
1.1397731304168701
 21
0.28150779008865356
 31
0.36636441946029663
  0
LINE
  8
0
 10
1.1397731304168701
 20
0.28150779008865356
 30
0.36636441946029663
 11
1.139929175376892
 21
0.28269243240356445
 31
0.36636441946029663
  0
LINE
  8
0
 10
1.139929175376892
 20
0.28269243240356445
 30
0.36636441946029663
 11
1.1400656700134277
 21
0.28372931480407715
 31
0.36636441946029663
  0
LINE
  8
0
 10
1.1400656700134277
 20
0.28372931480407715
 30
0.36636441946029663
 11
1.1405229568481445
 21
0.28483322262763977
 31
0.36636441946029663
  0
LINE
  8
0
 10
1.0706300735473633
 20
0.31069710850715637
 30
0.36636441946029663
 11
1.0720630884170532
 21
0.3110028803348541
 31
0.36636441946029663
  0
LINE
  8
0
 10
1.0706300735473633
 20
0.31069710850715637
 30
0.36636441946029663
 11
1.0693899393081665
 21
0.310432493686676
 31
0.36636441946029663
  0
LINE
  8
0
 10
1.0680545568466187
 20
0.3095359206199646
 30
0.36636441946029663
 11
1.0693899393081665
 21
0.310432493686676
 31
0.36636441946029663
  0
LINE
  8
0
 10
1.0680545568466187
 20
0.3095359206199646
 30
0.36636441946029663
 11
1.0668989419937134
 21
0.3087601065635681
 31
0.36636441946029663
  0
LINE
  8
0
 10
1.0657521486282349
 20
0.30733391642570496
 30
0.36636441946029663
 11
1.0668989419937134
 21
0.3087601065635681
 31
0.36636441946029663
  0
LINE
  8
0
 10
1.0657521486282349
 20
0.30733391642570496
 30
0.36636441946029663
 11
1.0647598505020142
 21
0.3060997426509857
 31
0.36636441946029663
  0
LINE
  8
0
 10
1.0638799667358398
 20
0.3042410910129547
 30
0.36636441946029663
 11
1.0647598505020142
 21
0.3060997426509857
 31
0.36636441946029663
  0
LINE
  8
0
 10
1.0631184577941895
 20
0.30263271927833557
 30
0.36636441946029663
 11
1.0638799667358398
 21
0.3042410910129547
 31
0.36636441946029663
  0
LINE
  8
0
 10
1.0625653266906738
 20
0.3004682660102844
 30
0.36636441946029663
 11
1.0631184577941895
 21
0.30263271927833557
 31
0.36636441946029663
  0
LINE
  8
0
 10
1.0625653266906738
 20
0.3004682660102844
 30
0.36636441946029663
 11
1.0620867013931274
 21
0.29859524965286255
 31
0.36636441946029663
  0
LINE
  8
0
 10
1.0618979930877686
 20
0.29627251625061035
 30
0.36636441946029663
 11
1.0620867013931274
 21
0.29859524965286255
 31
0.36636441946029663
  0
LINE
  8
0
 10
1.0618979930877686
 20
0.29627251625061035
 30
0.36636441946029663
 11
1.0617347955703735
 21
0.29426252841949463
 31
0.36636441946029663
  0
LINE
  8
0
 10
1.0619233846664429
 20
0.29193979501724243
 30
0.36636441946029663
 11
1.0617347955703735
 21
0.29426252841949463
 31
0.36636441946029663
  0
LINE
  8
0
 10
1.0620867013931274
 20
0.2899298071861267
 30
0.36636441946029663
 11
1.0619233846664429
 21
0.29193979501724243
 31
0.36636441946029663
  0
LINE
  8
0
 10
1.0620867013931274
 20
0.2899298071861267
 30
0.36636441946029663
 11
1.062639832496643
 21
0.28776535391807556
 31
0.36636441946029663
  0
LINE
  8
0
 10
1.0631184577941895
 20
0.2858923673629761
 30
0.36636441946029663
 11
1.062639832496643
 21
0.28776535391807556
 31
0.36636441946029663
  0
LINE
  8
0
 10
1.0631184577941895
 20
0.2858923673629761
 30
0.36636441946029663
 11
1.0639984607696533
 21
0.28403371572494507
 31
0.36636441946029663
  0
LINE
  8
0
 10
1.0639984607696533
 20
0.28403371572494507
 30
0.36636441946029663
 11
1.0647598505020142
 21
0.2824253439903259
 31
0.36636441946029663
  0
LINE
  8
0
 10
1.0659066438674927
 20
0.2809991240501404
 30
0.36636441946029663
 11
1.0647598505020142
 21
0.2824253439903259
 31
0.36636441946029663
  0
LINE
  8
0
 10
1.0659066438674927
 20
0.2809991240501404
 30
0.36636441946029663
 11
1.0668989419937134
 21
0.27976498007774353
 31
0.36636441946029663
  0
LINE
  8
0
 10
1.0682343244552612
 20
0.2788684070110321
 30
0.36636441946029663
 11
1.0668989419937134
 21
0.27976498007774353
 31
0.36636441946029663
  0
LINE
  8
0
 10
1.0682343244552612
 20
0.2788684070110321
 30
0.36636441946029663
 11
1.0693899393081665
 21
0.27809256315231323
 31
0.36636441946029663
  0
LINE
  8
0
 10
1.070823073387146
 20
0.2777867913246155
 30
0.36636441946029663
 11
1.0693899393081665
 21
0.27809256315231323
 31
0.36636441946029663
  0
LINE
  8
0
 10
1.070823073387146
 20
0.2777867913246155
 30
0.36636441946029663
 11
1.0720630884170532
 21
0.27752217650413513
 31
0.36636441946029663
  0
LINE
  8
0
 10
1.0734962224960327
 20
0.2778279781341553
 30
0.36636441946029663
 11
1.0720630884170532
 21
0.27752217650413513
 31
0.36636441946029663
  0
LINE
  8
0
 10
1.0734962224960327
 20
0.2778279781341553
 30
0.36636441946029663
 11
1.0747363567352295
 21
0.27809256315231323
 31
0.36636441946029663
  0
LINE
  8
0
 10
1.0747363567352295
 20
0.27809256315231323
 30
0.36636441946029663
 11
1.0760717391967773
 21
0.27898910641670227
 31
0.36636441946029663
  0
LINE
  8
0
 10
1.0760717391967773
 20
0.27898910641670227
 30
0.36636441946029663
 11
1.0772273540496826
 21
0.27976495027542114
 31
0.36636441946029663
  0
LINE
  8
0
 10
1.0783740282058716
 20
0.2811911404132843
 30
0.36636441946029663
 11
1.0772273540496826
 21
0.27976495027542114
 31
0.36636441946029663
  0
LINE
  8
0
 10
1.0793664455413818
 20
0.28242531418800354
 30
0.36636441946029663
 11
1.0783740282058716
 21
0.2811911404132843
 31
0.36636441946029663
  0
LINE
  8
0
 10
1.0793664455413818
 20
0.28242531418800354
 30
0.36636441946029663
 11
1.0802463293075562
 21
0.28428396582603455
 31
0.36636441946029663
  0
LINE
  8
0
 10
1.0810078382492065
 20
0.2858923375606537
 30
0.36636441946029663
 11
1.0802463293075562
 21
0.28428396582603455
 31
0.36636441946029663
  0
LINE
  8
0
 10
1.0810078382492065
 20
0.2858923375606537
 30
0.36636441946029663
 11
1.0815609693527222
 21
0.2880568206310272
 31
0.36636441946029663
  0
LINE
  8
0
 10
1.0820395946502686
 20
0.2899298071861267
 30
0.36636441946029663
 11
1.0815609693527222
 21
0.2880568206310272
 31
0.36636441946029663
  0
LINE
  8
0
 10
1.0820395946502686
 20
0.2899298071861267
 30
0.36636441946029663
 11
1.0822283029556274
 21
0.2922525703907013
 31
0.36636441946029663
  0
LINE
  8
0
 10
1.0823915004730225
 20
0.29426252841949463
 30
0.36636441946029663
 11
1.0822283029556274
 21
0.2922525703907013
 31
0.36636441946029663
  0
LINE
  8
0
 10
1.0823915004730225
 20
0.29426252841949463
 30
0.36636441946029663
 11
1.0822029113769531
 21
0.2965852618217468
 31
0.36636441946029663
  0
LINE
  8
0
 10
1.0822029113769531
 20
0.2965852618217468
 30
0.36636441946029663
 11
1.0820395946502686
 21
0.29859524965286255
 31
0.36636441946029663
  0
LINE
  8
0
 10
1.0820395946502686
 20
0.29859524965286255
 30
0.36636441946029663
 11
1.081486463546753
 21
0.3007597029209137
 31
0.36636441946029663
  0
LINE
  8
0
 10
1.0810078382492065
 20
0.30263271927833557
 30
0.36636441946029663
 11
1.081486463546753
 21
0.3007597029209137
 31
0.36636441946029663
  0
LINE
  8
0
 10
1.0810078382492065
 20
0.30263271927833557
 30
0.36636441946029663
 11
1.0801278352737427
 21
0.3044913709163666
 31
0.36636441946029663
  0
LINE
  8
0
 10
1.0801278352737427
 20
0.3044913709163666
 30
0.36636441946029663
 11
1.0793664455413818
 21
0.3060997724533081
 31
0.36636441946029663
  0
LINE
  8
0
 10
1.0793664455413818
 20
0.3060997724533081
 30
0.36636441946029663
 11
1.0782196521759033
 21
0.3075259327888489
 31
0.36636441946029663
  0
LINE
  8
0
 10
1.0782196521759033
 20
0.3075259327888489
 30
0.36636441946029663
 11
1.0772273540496826
 21
0.3087601065635681
 31
0.36636441946029663
  0
LINE
  8
0
 10
1.0758919715881348
 20
0.30965664982795715
 30
0.36636441946029663
 11
1.0772273540496826
 21
0.3087601065635681
 31
0.36636441946029663
  0
LINE
  8
0
 10
1.0747363567352295
 20
0.310432493686676
 30
0.36636441946029663
 11
1.0758919715881348
 21
0.30965664982795715
 31
0.36636441946029663
  0
LINE
  8
0
 10
1.07330322265625
 20
0.3107382655143738
 30
0.36636441946029663
 11
1.0747363567352295
 21
0.310432493686676
 31
0.36636441946029663
  0
LINE
  8
0
 10
1.07330322265625
 20
0.3107382655143738
 30
0.36636441946029663
 11
1.0720630884170532
 21
0.3110028803348541
 31
0.36636441946029663
  0
LINE
  8
0
 10
1.0893158912658691
 20
0.3025146722793579
 30
0.36636441946029663
 11
1.0883110761642456
 21
0.305392861366272
 31
0.36636441946029663
  0
LINE
  8
0
 10
1.090185284614563
 20
0.3000240921974182
 30
0.36636441946029663
 11
1.0893158912658691
 21
0.3025146722793579
 31
0.36636441946029663
  0
LINE
  8
0
 10
1.0905280113220215
 20
0.2969353199005127
 30
0.36636441946029663
 11
1.090185284614563
 21
0.3000240921974182
 31
0.36636441946029663
  0
LINE
  8
0
 10
1.0908246040344238
 20
0.29426243901252747
 30
0.36636441946029663
 11
1.0905280113220215
 21
0.2969353199005127
 31
0.36636441946029663
  0
LINE
  8
0
 10
1.0908246040344238
 20
0.29426243901252747
 30
0.36636441946029663
 11
1.0904818773269653
 21
0.2911738157272339
 31
0.36636441946029663
  0
LINE
  8
0
 10
1.0990359783172607
 20
0.2896340787410736
 30
0.36636441946029663
 11
1.0990359783172607
 21
0.30874103307724
 31
0.36636441946029663
  0
LINE
  8
0
 10
1.0352632999420166
 20
0.31579551100730896
 30
0.36636441946029663
 11
1.0404744148254395
 21
0.31579551100730896
 31
0.36636441946029663
  0
LINE
  8
0
 10
1.0404744148254395
 20
0.31579551100730896
 30
0.36636441946029663
 11
1.0449998378753662
 21
0.31579551100730896
 31
0.36636441946029663
  0
LINE
  8
0
 10
1.0397887229919434
 20
0.32132768630981445
 30
0.36636441946029663
 11
1.0449998378753662
 21
0.32132771611213684
 31
0.36636441946029663
  0
LINE
  8
0
 10
1.0397887229919434
 20
0.32132768630981445
 30
0.36636441946029663
 11
1.0352632999420166
 21
0.32132771611213684
 31
0.36636441946029663
  0
LINE
  8
0
 10
1.0293058156967163
 20
0.3159419298171997
 30
0.36636441946029663
 11
1.0293058156967163
 21
0.3133670389652252
 31
0.36636441946029663
  0
LINE
  8
0
 10
0.9567397236824036
 20
0.27856573462486267
 30
0.36636441946029663
 11
0.9553564786911011
 21
0.27923130989074707
 31
0.36636441946029663
  0
LINE
  8
0
 10
0.9567397236824036
 20
0.27856573462486267
 30
0.36636441946029663
 11
0.9576441645622253
 21
0.27874207496643066
 31
0.36636441946029663
  0
LINE
  8
0
 10
0.9576441645622253
 20
0.27874207496643066
 30
0.36636441946029663
 11
0.958685576915741
 21
0.2789451479911804
 31
0.36636441946029663
  0
LINE
  8
0
 10
0.9594515562057495
 20
0.2792642116546631
 30
0.36636441946029663
 11
0.958685576915741
 21
0.2789451479911804
 31
0.36636441946029663
  0
LINE
  8
0
 10
0.9594515562057495
 20
0.2792642116546631
 30
0.36636441946029663
 11
0.9603336453437805
 21
0.27963167428970337
 31
0.36636441946029663
  0
LINE
  8
0
 10
0.9670433402061462
 20
0.2839827835559845
 30
0.36636441946029663
 11
0.96746426820755
 21
0.28105679154396057
 31
0.36636441946029663
  0
LINE
  8
0
 10
0.9670433402061462
 20
0.2839827835559845
 30
0.36636441946029663
 11
0.9665586352348328
 21
0.2873520851135254
 31
0.36636441946029663
  0
LINE
  8
0
 10
0.9671372175216675
 20
0.290545254945755
 30
0.36636441946029663
 11
0.9665586352348328
 21
0.2873520851135254
 31
0.36636441946029663
  0
LINE
  8
0
 10
0.9671372175216675
 20
0.290545254945755
 30
0.36636441946029663
 11
0.9678034782409668
 21
0.29422223567962646
 31
0.36636441946029663
  0
LINE
  8
0
 10
0.9678034782409668
 20
0.29422223567962646
 30
0.36636441946029663
 11
0.9697707295417786
 21
0.2962675392627716
 31
0.36636441946029663
  0
LINE
  8
0
 10
0.9720360040664673
 20
0.2986226975917816
 30
0.36636441946029663
 11
0.9697707295417786
 21
0.2962675392627716
 31
0.36636441946029663
  0
LINE
  8
0
 10
0.975835382938385
 20
0.2997494041919708
 30
0.36636441946029663
 11
0.9720360040664673
 21
0.2986226975917816
 31
0.36636441946029663
  0
LINE
  8
0
 10
0.9791347980499268
 20
0.30072784423828125
 30
0.36636441946029663
 11
0.975835382938385
 21
0.2997494041919708
 31
0.36636441946029663
  0
LINE
  8
0
 10
0.9791347980499268
 20
0.30072784423828125
 30
0.36636441946029663
 11
0.9824342727661133
 21
0.3005649149417877
 31
0.36636441946029663
  0
LINE
  8
0
 10
0.9824342727661133
 20
0.3005649149417877
 30
0.36636441946029663
 11
0.986233651638031
 21
0.3003772497177124
 31
0.36636441946029663
  0
LINE
  8
0
 10
0.986233651638031
 20
0.3003772497177124
 30
0.36636441946029663
 11
0.9862472414970398
 21
0.2974396347999573
 31
0.36636441946029663
  0
LINE
  8
0
 10
0.9862629175186157
 20
0.2940569519996643
 30
0.36636441946029663
 11
0.9862472414970398
 21
0.2974396347999573
 31
0.36636441946029663
  0
LINE
  8
0
 10
0.9862629175186157
 20
0.2940569519996643
 30
0.36636441946029663
 11
0.9846038222312927
 21
0.2941349446773529
 31
0.36636441946029663
  0
LINE
  8
0
 10
0.9846038222312927
 20
0.2941349446773529
 30
0.36636441946029663
 11
0.9826933145523071
 21
0.29422473907470703
 31
0.36636441946029663
  0
LINE
  8
0
 10
0.9807828664779663
 20
0.2939428389072418
 30
0.36636441946029663
 11
0.9826933145523071
 21
0.29422473907470703
 31
0.36636441946029663
  0
LINE
  8
0
 10
0.9807828664779663
 20
0.2939428389072418
 30
0.36636441946029663
 11
0.9791237711906433
 21
0.2936980426311493
 31
0.36636441946029663
  0
LINE
  8
0
 10
0.9791237711906433
 20
0.2936980426311493
 30
0.36636441946029663
 11
0.9783636331558228
 21
0.29287317395210266
 31
0.36636441946029663
  0
LINE
  8
0
 10
0.9783636331558228
 20
0.29287317395210266
 30
0.36636441946029663
 11
0.9774883985519409
 21
0.29192331433296204
 31
0.36636441946029663
  0
LINE
  8
0
 10
0.9767915606498718
 20
0.28981226682662964
 30
0.36636441946029663
 11
0.9774883985519409
 21
0.29192331433296204
 31
0.36636441946029663
  0
LINE
  8
0
 10
0.9759891629219055
 20
0.2873813509941101
 30
0.36636441946029663
 11
0.9767915606498718
 21
0.28981226682662964
 31
0.36636441946029663
  0
LINE
  8
0
 10
0.9759891629219055
 20
0.2873813509941101
 30
0.36636441946029663
 11
0.9762499332427979
 21
0.2855204641819
 31
0.36636441946029663
  0
LINE
  8
0
 10
0.976550281047821
 20
0.28337764739990234
 30
0.36636441946029663
 11
0.9762499332427979
 21
0.2855204641819
 31
0.36636441946029663
  0
LINE
  8
0
 10
0.9772472977638245
 20
0.28218644857406616
 30
0.36636441946029663
 11
0.976550281047821
 21
0.28337764739990234
 31
0.36636441946029663
  0
LINE
  8
0
 10
0.9772472977638245
 20
0.28218644857406616
 30
0.36636441946029663
 11
0.9780499339103699
 21
0.2808147966861725
 31
0.36636441946029663
  0
LINE
  8
0
 10
0.9789448976516724
 20
0.2803325355052948
 30
0.36636441946029663
 11
0.9780499339103699
 21
0.2808147966861725
 31
0.36636441946029663
  0
LINE
  8
0
 10
0.9799754619598389
 20
0.2797771990299225
 30
0.36636441946029663
 11
0.9789448976516724
 21
0.2803325355052948
 31
0.36636441946029663
  0
LINE
  8
0
 10
0.9799754619598389
 20
0.2797771990299225
 30
0.36636441946029663
 11
0.9825043678283691
 21
0.27951306104660034
 31
0.36636441946029663
  0
LINE
  8
0
 10
0.9825043678283691
 20
0.27951306104660034
 30
0.36636441946029663
 11
0.9854164719581604
 21
0.2792088985443115
 31
0.36636441946029663
  0
LINE
  8
0
 10
0.9879453778266907
 20
0.2792088985443115
 30
0.36636441946029663
 11
0.9854164719581604
 21
0.2792088985443115
 31
0.36636441946029663
  0
LINE
  8
0
 10
0.9908574223518372
 20
0.2792088985443115
 30
0.36636441946029663
 11
0.9879453778266907
 21
0.2792088985443115
 31
0.36636441946029663
  0
LINE
  8
0
 10
0.9908574223518372
 20
0.2792088985443115
 30
0.36636441946029663
 11
0.9908574223518372
 21
0.29130738973617554
 31
0.36636441946029663
  0
LINE
  8
0
 10
0.9908574223518372
 20
0.3052389621734619
 30
0.36636441946029663
 11
0.9908574223518372
 21
0.29130738973617554
 31
0.36636441946029663
  0
LINE
  8
0
 10
0.9908574223518372
 20
0.3052389621734619
 30
0.36636441946029663
 11
0.990105926990509
 21
0.3064250946044922
 31
0.36636441946029663
  0
LINE
  8
0
 10
0.990105926990509
 20
0.3064250946044922
 30
0.36636441946029663
 11
0.9892405867576599
 21
0.30779099464416504
 31
0.36636441946029663
  0
LINE
  8
0
 10
0.9879322052001953
 20
0.30896300077438354
 30
0.36636441946029663
 11
0.9892405867576599
 21
0.30779099464416504
 31
0.36636441946029663
  0
LINE
  8
0
 10
0.9864256381988525
 20
0.3103126287460327
 30
0.36636441946029663
 11
0.9879322052001953
 21
0.30896300077438354
 31
0.36636441946029663
  0
LINE
  8
0
 10
0.9864256381988525
 20
0.3103126287460327
 30
0.36636441946029663
 11
0.9828933477401733
 21
0.31028881669044495
 31
0.36636441946029663
  0
LINE
  8
0
 10
0.9828933477401733
 20
0.31028881669044495
 30
0.36636441946029663
 11
0.9788258075714111
 21
0.31026139855384827
 31
0.36636441946029663
  0
LINE
  8
0
 10
0.9779847860336304
 20
0.3097746968269348
 30
0.36636441946029663
 11
0.9788258075714111
 21
0.31026139855384827
 31
0.36636441946029663
  0
LINE
  8
0
 10
0.9770163297653198
 20
0.3092142343521118
 30
0.36636441946029663
 11
0.9779847860336304
 21
0.3097746968269348
 31
0.36636441946029663
  0
LINE
  8
0
 10
0.9747533202171326
 20
0.30935174226760864
 30
0.36636441946029663
 11
0.9770163297653198
 21
0.3092142343521118
 31
0.36636441946029663
  0
LINE
  8
0
 10
0.9747533202171326
 20
0.30935174226760864
 30
0.36636441946029663
 11
0.9721474051475525
 21
0.30951008200645447
 31
0.36636441946029663
  0
LINE
  8
0
 10
0.9721474051475525
 20
0.30951008200645447
 30
0.36636441946029663
 11
0.9721345901489258
 21
0.312703013420105
 31
0.36636441946029663
  0
LINE
  8
0
 10
0.9721235036849976
 20
0.31547582149505615
 30
0.36636441946029663
 11
0.9721345901489258
 21
0.312703013420105
 31
0.36636441946029663
  0
LINE
  8
0
 10
0.9743976593017578
 20
0.3156147003173828
 30
0.36636441946029663
 11
0.9721235036849976
 21
0.31547582149505615
 31
0.36636441946029663
  0
LINE
  8
0
 10
0.9743976593017578
 20
0.3156147003173828
 30
0.36636441946029663
 11
0.9770163297653198
 21
0.3157746493816376
 31
0.36636441946029663
  0
LINE
  8
0
 10
0.9770163297653198
 20
0.3157746493816376
 30
0.36636441946029663
 11
0.9778574109077454
 21
0.31569498777389526
 31
0.36636441946029663
  0
LINE
  8
0
 10
0.9778574109077454
 20
0.31569498777389526
 30
0.36636441946029663
 11
0.9788258075714111
 21
0.3156032860279083
 31
0.36636441946029663
  0
LINE
  8
0
 10
0.9843339323997498
 20
0.3156876564025879
 30
0.36636441946029663
 11
0.9788258075714111
 21
0.3156032860279083
 31
0.36636441946029663
  0
LINE
  8
0
 10
0.9843339323997498
 20
0.3156876564025879
 30
0.36636441946029663
 11
0.9906765818595886
 21
0.3157848119735718
 31
0.36636441946029663
  0
LINE
  8
0
 10
0.9913651943206787
 20
0.3154386281967163
 30
0.36636441946029663
 11
0.9906765818595886
 21
0.3157848119735718
 31
0.36636441946029663
  0
LINE
  8
0
 10
0.9921581745147705
 20
0.3150399923324585
 30
0.36636441946029663
 11
0.9913651943206787
 21
0.3154386281967163
 31
0.36636441946029663
  0
LINE
  8
0
 10
0.9930511116981506
 20
0.3145093619823456
 30
0.36636441946029663
 11
0.9921581745147705
 21
0.3150399923324585
 31
0.36636441946029663
  0
LINE
  8
0
 10
0.9938265085220337
 20
0.31404852867126465
 30
0.36636441946029663
 11
0.9930511116981506
 21
0.3145093619823456
 31
0.36636441946029663
  0
LINE
  8
0
 10
0.9946020245552063
 20
0.3134134113788605
 30
0.36636441946029663
 11
0.9938265085220337
 21
0.31404852867126465
 31
0.36636441946029663
  0
LINE
  8
0
 10
0.9952754974365234
 20
0.3128618597984314
 30
0.36636441946029663
 11
0.9946020245552063
 21
0.3134134113788605
 31
0.36636441946029663
  0
LINE
  8
0
 10
0.9959335923194885
 20
0.31212225556373596
 30
0.36636441946029663
 11
0.9952754974365234
 21
0.3128618597984314
 31
0.36636441946029663
  0
LINE
  8
0
 10
0.996505081653595
 20
0.31147998571395874
 30
0.36636441946029663
 11
0.9959335923194885
 21
0.31212225556373596
 31
0.36636441946029663
  0
LINE
  8
0
 10
0.9970457553863525
 20
0.31063589453697205
 30
0.36636441946029663
 11
0.996505081653595
 21
0.31147998571395874
 31
0.36636441946029663
  0
LINE
  8
0
 10
0.9975152611732483
 20
0.3099028766155243
 30
0.36636441946029663
 11
0.9970457553863525
 21
0.31063589453697205
 31
0.36636441946029663
  0
LINE
  8
0
 10
0.9979384541511536
 20
0.3089543282985687
 30
0.36636441946029663
 11
0.9975152611732483
 21
0.3099028766155243
 31
0.36636441946029663
  0
LINE
  8
0
 10
0.9983060359954834
 20
0.30813056230545044
 30
0.36636441946029663
 11
0.9979384541511536
 21
0.3089543282985687
 31
0.36636441946029663
  0
LINE
  8
0
 10
0.9987955689430237
 20
0.30678656697273254
 30
0.36636441946029663
 11
0.9983060359954834
 21
0.30813056230545044
 31
0.36636441946029663
  0
LINE
  8
0
 10
0.9993592500686646
 20
0.3052389621734619
 30
0.36636441946029663
 11
0.9987955689430237
 21
0.30678656697273254
 31
0.36636441946029663
  0
LINE
  8
0
 10
0.9993592500686646
 20
0.3052389621734619
 30
0.36636441946029663
 11
0.9993591904640198
 21
0.29966795444488525
 31
0.36636441946029663
  0
LINE
  8
0
 10
1.0095046758651733
 20
0.2972836196422577
 30
0.36636441946029663
 11
1.0095046758651733
 21
0.3104020655155182
 31
0.36636441946029663
  0
LINE
  8
0
 10
1.0095046758651733
 20
0.3104020655155182
 30
0.36636441946029663
 11
1.0095046758651733
 21
0.3129769265651703
 31
0.36636441946029663
  0
LINE
  8
0
 10
1.0095046758651733
 20
0.3159419298171997
 30
0.36636441946029663
 11
1.0095046758651733
 21
0.3129769265651703
 31
0.36636441946029663
  0
LINE
  8
0
 10
1.0095046758651733
 20
0.3197285234928131
 30
0.36636441946029663
 11
1.0095046758651733
 21
0.3159419298171997
 31
0.36636441946029663
  0
LINE
  8
0
 10
1.0095046758651733
 20
0.3197285234928131
 30
0.36636441946029663
 11
1.0095046758651733
 21
0.32408881187438965
 31
0.36636441946029663
  0
LINE
  8
0
 10
1.0143951177597046
 20
0.32408878207206726
 30
0.36636441946029663
 11
1.0095046758651733
 21
0.32408881187438965
 31
0.36636441946029663
  0
LINE
  8
0
 10
1.0186419486999512
 20
0.32408881187438965
 30
0.36636441946029663
 11
1.0143951177597046
 21
0.32408878207206726
 31
0.36636441946029663
  0
LINE
  8
0
 10
1.0186419486999512
 20
0.32030221819877625
 30
0.36636441946029663
 11
1.0186419486999512
 21
0.32408881187438965
 31
0.36636441946029663
  0
LINE
  8
0
 10
1.0186419486999512
 20
0.3159419298171997
 30
0.36636441946029663
 11
1.0186419486999512
 21
0.32030221819877625
 31
0.36636441946029663
  0
LINE
  8
0
 10
1.0186419486999512
 20
0.3159419298171997
 30
0.36636441946029663
 11
1.0235984325408936
 21
0.3159419298171997
 31
0.36636441946029663
  0
LINE
  8
0
 10
1.0235984325408936
 20
0.3159419298171997
 30
0.36636441946029663
 11
1.0293058156967163
 21
0.3159419298171997
 31
0.36636441946029663
  0
LINE
  8
0
 10
1.0352632999420166
 20
0.32132771611213684
 30
0.36636441946029663
 11
1.0352632999420166
 21
0.3249119222164154
 31
0.36636441946029663
  0
LINE
  8
0
 10
1.0352632999420166
 20
0.3249119222164154
 30
0.36636441946029663
 11
1.0352632999420166
 21
0.32903921604156494
 31
0.36636441946029663
  0
LINE
  8
0
 10
1.0404744148254395
 20
0.32903918623924255
 30
0.36636441946029663
 11
1.0352632999420166
 21
0.32903921604156494
 31
0.36636441946029663
  0
LINE
  8
0
 10
1.0449998378753662
 20
0.32903921604156494
 30
0.36636441946029663
 11
1.0404744148254395
 21
0.32903918623924255
 31
0.36636441946029663
  0
LINE
  8
0
 10
1.0449998378753662
 20
0.325454980134964
 30
0.36636441946029663
 11
1.0449998378753662
 21
0.32903921604156494
 31
0.36636441946029663
  0
LINE
  8
0
 10
1.0449998378753662
 20
0.32132771611213684
 30
0.36636441946029663
 11
1.0449998378753662
 21
0.325454980134964
 31
0.36636441946029663
  0
LINE
  8
0
 10
1.0449998378753662
 20
0.29592373967170715
 30
0.36636441946029663
 11
1.0449998378753662
 21
0.31579551100730896
 31
0.36636441946029663
  0
LINE
  8
0
 10
1.0533016920089722
 20
0.29426252841949463
 30
0.36636441946029663
 11
1.0536444187164307
 21
0.297351211309433
 31
0.36636441946029663
  0
LINE
  8
0
 10
1.0539408922195435
 20
0.30002403259277344
 30
0.36636441946029663
 11
1.0536444187164307
 21
0.297351211309433
 31
0.36636441946029663
  0
LINE
  8
0
 10
1.0539408922195435
 20
0.30002403259277344
 30
0.36636441946029663
 11
1.054945707321167
 21
0.3029021918773651
 31
0.36636441946029663
  0
LINE
  8
0
 10
1.054945707321167
 20
0.3029021918773651
 30
0.36636441946029663
 11
1.0558152198791504
 21
0.305392861366272
 31
0.36636441946029663
  0
LINE
  8
0
 10
1.0574135780334473
 20
0.30786439776420593
 30
0.36636441946029663
 11
1.0558152198791504
 21
0.305392861366272
 31
0.36636441946029663
  0
LINE
  8
0
 10
1.0574135780334473
 20
0.30786439776420593
 30
0.36636441946029663
 11
1.058796763420105
 21
0.3100031614303589
 31
0.36636441946029663
  0
LINE
  8
0
 10
1.0608798265457153
 20
0.31189966201782227
 30
0.36636441946029663
 11
1.058796763420105
 21
0.3100031614303589
 31
0.36636441946029663
  0
LINE
  8
0
 10
1.0608798265457153
 20
0.31189966201782227
 30
0.36636441946029663
 11
1.0626823902130127
 21
0.3135407865047455
 31
0.36636441946029663
  0
LINE
  8
0
 10
1.0651081800460815
 20
0.31473299860954285
 30
0.36636441946029663
 11
1.0626823902130127
 21
0.3135407865047455
 31
0.36636441946029663
  0
LINE
  8
0
 10
1.0672073364257812
 20
0.3157646358013153
 30
0.36636441946029663
 11
1.0651081800460815
 21
0.31473299860954285
 31
0.36636441946029663
  0
LINE
  8
0
 10
1.0698105096817017
 20
0.316171258687973
 30
0.36636441946029663
 11
1.0672073364257812
 21
0.3157646358013153
 31
0.36636441946029663
  0
LINE
  8
0
 10
1.0720630884170532
 20
0.31652313470840454
 30
0.36636441946029663
 11
1.0698105096817017
 21
0.316171258687973
 31
0.36636441946029663
  0
LINE
  8
0
 10
1.0746662616729736
 20
0.3161165118217468
 30
0.36636441946029663
 11
1.0720630884170532
 21
0.31652313470840454
 31
0.36636441946029663
  0
LINE
  8
0
 10
1.0769189596176147
 20
0.3157646656036377
 30
0.36636441946029663
 11
1.0746662616729736
 21
0.3161165118217468
 31
0.36636441946029663
  0
LINE
  8
0
 10
1.0793447494506836
 20
0.31457242369651794
 30
0.36636441946029663
 11
1.0769189596176147
 21
0.3157646656036377
 31
0.36636441946029663
  0
LINE
  8
0
 10
1.0793447494506836
 20
0.31457242369651794
 30
0.36636441946029663
 11
1.0814439058303833
 21
0.3135407567024231
 31
0.36636441946029663
  0
LINE
  8
0
 10
1.0835269689559937
 20
0.3116442859172821
 30
0.36636441946029663
 11
1.0814439058303833
 21
0.3135407567024231
 31
0.36636441946029663
  0
LINE
  8
0
 10
1.085329532623291
 20
0.3100031614303589
 30
0.36636441946029663
 11
1.0835269689559937
 21
0.3116442859172821
 31
0.36636441946029663
  0
LINE
  8
0
 10
1.086927890777588
 20
0.30753159523010254
 30
0.36636441946029663
 11
1.085329532623291
 21
0.3100031614303589
 31
0.36636441946029663
  0
LINE
  8
0
 10
1.0883110761642456
 20
0.305392861366272
 30
0.36636441946029663
 11
1.086927890777588
 21
0.30753159523010254
 31
0.36636441946029663
  0
LINE
  8
0
 10
1.0990359783172607
 20
0.30874103307724
 30
0.36636441946029663
 11
1.0990359783172607
 21
0.31201988458633423
 31
0.36636441946029663
  0
LINE
  8
0
 10
1.0990359783172607
 20
0.31201988458633423
 30
0.36636441946029663
 11
1.0990359783172607
 21
0.31579551100730896
 31
0.36636441946029663
  0
LINE
  8
0
 10
1.0990359783172607
 20
0.31579551100730896
 30
0.36636441946029663
 11
1.1142536401748657
 21
0.31568634510040283
 31
0.36636441946029663
  0
LINE
  8
0
 10
1.1274689435958862
 20
0.31559157371520996
 30
0.36636441946029663
 11
1.1142536401748657
 21
0.31568634510040283
 31
0.36636441946029663
  0
LINE
  8
0
 10
1.1274689435958862
 20
0.31559157371520996
 30
0.36636441946029663
 11
1.1295212507247925
 21
0.3132992088794708
 31
0.36636441946029663
  0
LINE
  8
0
 10
1.1313035488128662
 20
0.31130847334861755
 30
0.36636441946029663
 11
1.1295212507247925
 21
0.3132992088794708
 31
0.36636441946029663
  0
LINE
  8
0
 10
1.1313035488128662
 20
0.31130847334861755
 30
0.36636441946029663
 11
1.1317501068115234
 21
0.3089331388473511
 31
0.36636441946029663
  0
LINE
  8
0
 10
1.1322643756866455
 20
0.3061979413032532
 30
0.36636441946029663
 11
1.1317501068115234
 21
0.3089331388473511
 31
0.36636441946029663
  0
LINE
  8
0
 10
1.1323392391204834
 20
0.3037698566913605
 30
0.36636441946029663
 11
1.1322643756866455
 21
0.3061979413032532
 31
0.36636441946029663
  0
LINE
  8
0
 10
1.1324254274368286
 20
0.30097392201423645
 30
0.36636441946029663
 11
1.1323392391204834
 21
0.3037698566913605
 31
0.36636441946029663
  0
LINE
  8
0
 10
1.1325963735580444
 20
0.28804314136505127
 30
0.36636441946029663
 11
1.1324254274368286
 21
0.30097392201423645
 31
0.36636441946029663
  0
LINE
  8
0
 10
1.1409231424331665
 20
0.28579944372177124
 30
0.36636441946029663
 11
1.1405229568481445
 21
0.28483322262763977
 31
0.36636441946029663
  0
LINE
  8
0
 10
1.1409231424331665
 20
0.28579944372177124
 30
0.36636441946029663
 11
1.1416505575180054
 21
0.28674739599227905
 31
0.36636441946029663
  0
LINE
  8
0
 10
1.1416505575180054
 20
0.28674739599227905
 30
0.36636441946029663
 11
1.142287254333496
 21
0.2875770926475525
 31
0.36636441946029663
  0
LINE
  8
0
 10
1.143235206604004
 20
0.28830447793006897
 30
0.36636441946029663
 11
1.142287254333496
 21
0.2875770926475525
 31
0.36636441946029663
  0
LINE
  8
0
 10
1.143235206604004
 20
0.28830447793006897
 30
0.36636441946029663
 11
1.1440649032592773
 21
0.2889411449432373
 31
0.36636441946029663
  0
LINE
  8
0
 10
1.1451687812805176
 20
0.2893983721733093
 30
0.36636441946029663
 11
1.1440649032592773
 21
0.2889411449432373
 31
0.36636441946029663
  0
LINE
  8
0
 10
1.1451687812805176
 20
0.2893983721733093
 30
0.36636441946029663
 11
1.1461349725723267
 21
0.2897985875606537
 31
0.36636441946029663
  0
LINE
  8
0
 10
1.1473195552825928
 20
0.2899545729160309
 30
0.36636441946029663
 11
1.1461349725723267
 21
0.2897985875606537
 31
0.36636441946029663
  0
LINE
  8
0
 10
1.1483564376831055
 20
0.29009106755256653
 30
0.36636441946029663
 11
1.1473195552825928
 21
0.2899545729160309
 31
0.36636441946029663
  0
LINE
  8
0
 10
1.1495411396026611
 20
0.2899351119995117
 30
0.36636441946029663
 11
1.1483564376831055
 21
0.29009106755256653
 31
0.36636441946029663
  0
LINE
  8
0
 10
1.1505780220031738
 20
0.2897986173629761
 30
0.36636441946029663
 11
1.1495411396026611
 21
0.2899351119995117
 31
0.36636441946029663
  0
LINE
  8
0
 10
1.151681900024414
 20
0.28934136033058167
 30
0.36636441946029663
 11
1.1505780220031738
 21
0.2897986173629761
 31
0.36636441946029663
  0
LINE
  8
0
 10
1.1526480913162231
 20
0.2889411449432373
 30
0.36636441946029663
 11
1.151681900024414
 21
0.28934136033058167
 31
0.36636441946029663
  0
LINE
  8
0
 10
1.153596043586731
 20
0.2882137596607208
 30
0.36636441946029663
 11
1.1526480913162231
 21
0.2889411449432373
 31
0.36636441946029663
  0
LINE
  8
0
 10
1.1544257402420044
 20
0.2875770926475525
 30
0.36636441946029663
 11
1.153596043586731
 21
0.2882137596607208
 31
0.36636441946029663
  0
LINE
  8
0
 10
1.1551531553268433
 20
0.2866291403770447
 30
0.36636441946029663
 11
1.1544257402420044
 21
0.2875770926475525
 31
0.36636441946029663
  0
LINE
  8
0
 10
1.155789852142334
 20
0.28579944372177124
 30
0.36636441946029663
 11
1.1551531553268433
 21
0.2866291403770447
 31
0.36636441946029663
  0
LINE
  8
0
 10
1.1562471389770508
 20
0.2846955358982086
 30
0.36636441946029663
 11
1.155789852142334
 21
0.28579944372177124
 31
0.36636441946029663
  0
LINE
  8
0
 10
1.1562471389770508
 20
0.2846955358982086
 30
0.36636441946029663
 11
1.1566473245620728
 21
0.28372931480407715
 31
0.36636441946029663
  0
LINE
  8
0
 10
1.1566473245620728
 20
0.28372931480407715
 30
0.36636441946029663
 11
1.1568032503128052
 21
0.28254467248916626
 31
0.36636441946029663
  0
LINE
  8
0
 10
1.1635091304779053
 20
0.28302252292633057
 30
0.36636441946029663
 11
1.163748860359192
 21
0.29154592752456665
 31
0.36636441946029663
  0
LINE
  8
0
 10
1.163748860359192
 20
0.29154592752456665
 30
0.36636441946029663
 11
1.1652268171310425
 21
0.2981410026550293
 31
0.36636441946029663
  0
LINE
  8
0
 10
1.1665102243423462
 20
0.30386829376220703
 30
0.36636441946029663
 11
1.1652268171310425
 21
0.2981410026550293
 31
0.36636441946029663
  0
LINE
  8
0
 10
1.1678239107131958
 20
0.3055165410041809
 30
0.36636441946029663
 11
1.1665102243423462
 21
0.30386829376220703
 31
0.36636441946029663
  0
LINE
  8
0
 10
1.1693366765975952
 20
0.3074144721031189
 30
0.36636441946029663
 11
1.1678239107131958
 21
0.3055165410041809
 31
0.36636441946029663
  0
LINE
  8
0
 10
1.1713097095489502
 20
0.3082983195781708
 30
0.36636441946029663
 11
1.1693366765975952
 21
0.3074144721031189
 31
0.36636441946029663
  0
LINE
  8
0
 10
1.1713097095489502
 20
0.3082983195781708
 30
0.36636441946029663
 11
1.1735817193984985
 21
0.3093160390853882
 31
0.36636441946029663
  0
LINE
  8
0
 10
1.1816291809082031
 20
0.3094950318336487
 30
0.36636441946029663
 11
1.1735817193984985
 21
0.3093160390853882
 31
0.36636441946029663
  0
LINE
  8
0
 10
1.1908960342407227
 20
0.3097011148929596
 30
0.36636441946029663
 11
1.1816291809082031
 21
0.3094950318336487
 31
0.36636441946029663
  0
LINE
  8
0
 10
1.1926506757736206
 20
0.31007450819015503
 30
0.36636441946029663
 11
1.1908960342407227
 21
0.3097011148929596
 31
0.36636441946029663
  0
LINE
  8
0
 10
1.1946712732315063
 20
0.3105044364929199
 30
0.36636441946029663
 11
1.1926506757736206
 21
0.31007450819015503
 31
0.36636441946029663
  0
LINE
  8
0
 10
1.1946712732315063
 20
0.3105044364929199
 30
0.36636441946029663
 11
1.1964263916015625
 21
0.3119511902332306
 31
0.36636441946029663
  0
LINE
  8
0
 10
1.1964263916015625
 20
0.3119511902332306
 30
0.36636441946029663
 11
1.198447585105896
 21
0.31361711025238037
 31
0.36636441946029663
  0
LINE
  8
0
 10
1.1991441249847412
 20
0.31826671957969666
 30
0.36636441946029663
 11
1.198447585105896
 21
0.31361711025238037
 31
0.36636441946029663
  0
LINE
  8
0
 10
1.1999462842941284
 20
0.3236207962036133
 30
0.36636441946029663
 11
1.1991441249847412
 21
0.31826671957969666
 31
0.36636441946029663
  0
LINE
  8
0
 10
1.1999462842941284
 20
0.3236207962036133
 30
0.36636441946029663
 11
1.1988786458969116
 21
0.3262898325920105
 31
0.36636441946029663
  0
LINE
  8
0
 10
1.1976492404937744
 20
0.32936325669288635
 30
0.36636441946029663
 11
1.1988786458969116
 21
0.3262898325920105
 31
0.36636441946029663
  0
LINE
  8
0
 10
1.1963847875595093
 20
0.3303719460964203
 30
0.36636441946029663
 11
1.1976492404937744
 21
0.32936325669288635
 31
0.36636441946029663
  0
LINE
  8
0
 10
1.194928765296936
 20
0.3315334618091583
 30
0.36636441946029663
 11
1.1963847875595093
 21
0.3303719460964203
 31
0.36636441946029663
  0
LINE
  8
0
 10
1.194928765296936
 20
0.3315334618091583
 30
0.36636441946029663
 11
1.1861621141433716
 21
0.33161064982414246
 31
0.36636441946029663
  0
LINE
  8
0
 10
1.1861621141433716
 20
0.33161064982414246
 30
0.36636441946029663
 11
1.1785489320755005
 21
0.3316776752471924
 31
0.36636441946029663
  0
LINE
  8
0
 10
1.171940565109253
 20
0.3316776752471924
 30
0.36636441946029663
 11
1.1785489320755005
 21
0.3316776752471924
 31
0.36636441946029663
  0
LINE
  8
0
 10
1.1662017107009888
 20
0.3316776752471924
 30
0.36636441946029663
 11
1.171940565109253
 21
0.3316776752471924
 31
0.36636441946029663
  0
LINE
  8
0
 10
1.1662017107009888
 20
0.3316776752471924
 30
0.36636441946029663
 11
1.1662018299102783
 21
0.3350420892238617
 31
0.36636441946029663
  0
LINE
  8
0
 10
1.1662018299102783
 20
0.3350420892238617
 30
0.36636441946029663
 11
1.1662018299102783
 21
0.33891624212265015
 31
0.36636441946029663
  0
LINE
  8
0
 10
1.1662018299102783
 20
0.33891624212265015
 30
0.36636441946029663
 11
1.1728100776672363
 21
0.33891624212265015
 31
0.36636441946029663
  0
LINE
  8
0
 10
1.1728100776672363
 20
0.33891624212265015
 30
0.36636441946029663
 11
1.1785489320755005
 21
0.33891624212265015
 31
0.36636441946029663
  0
LINE
  8
0
 10
1.1899263858795166
 20
0.3387586772441864
 30
0.36636441946029663
 11
1.1785489320755005
 21
0.33891624212265015
 31
0.36636441946029663
  0
LINE
  8
0
 10
1.1899263858795166
 20
0.3387586772441864
 30
0.36636441946029663
 11
1.1998069286346436
 21
0.3386218249797821
 31
0.36636441946029663
  0
LINE
  8
0
 10
1.1998069286346436
 20
0.3386218249797821
 30
0.36636441946029663
 11
1.2030096054077148
 21
0.33665990829467773
 31
0.36636441946029663
  0
LINE
  8
0
 10
1.2030096054077148
 20
0.33665990829467773
 30
0.36636441946029663
 11
1.2066975831985474
 21
0.3344007432460785
 31
0.36636441946029663
  0
LINE
  8
0
 10
1.2066975831985474
 20
0.3344007432460785
 30
0.36636441946029663
 11
1.20868718624115
 21
0.3293599784374237
 31
0.36636441946029663
  0
LINE
  8
0
 10
1.20868718624115
 20
0.3293599784374237
 30
0.36636441946029663
 11
1.2109781503677368
 21
0.32355546951293945
 31
0.36636441946029663
  0
LINE
  8
0
 10
1.2109781503677368
 20
0.32355546951293945
 30
0.36636441946029663
 11
1.210626244544983
 21
0.31796884536743164
 31
0.36636441946029663
  0
LINE
  8
0
 10
1.210626244544983
 20
0.31796884536743164
 30
0.36636441946029663
 11
1.2102210521697998
 21
0.3115357458591461
 31
0.36636441946029663
  0
LINE
  8
0
 10
1.2102210521697998
 20
0.3115357458591461
 30
0.36636441946029663
 11
1.2071081399917603
 21
0.3087472915649414
 31
0.36636441946029663
  0
LINE
  8
0
 10
1.2071081399917603
 20
0.3087472915649414
 30
0.36636441946029663
 11
1.2035236358642578
 21
0.30553632974624634
 31
0.36636441946029663
  0
LINE
  8
0
 10
1.2012104988098145
 20
0.30456167459487915
 30
0.36636441946029663
 11
1.2035236358642578
 21
0.30553632974624634
 31
0.36636441946029663
  0
LINE
  8
0
 10
1.2012104988098145
 20
0.30456167459487915
 30
0.36636441946029663
 11
1.198547124862671
 21
0.30343934893608093
 31
0.36636441946029663
  0
LINE
  8
0
 10
1.1901154518127441
 20
0.3032597601413727
 30
0.36636441946029663
 11
1.198547124862671
 21
0.30343934893608093
 31
0.36636441946029663
  0
LINE
  8
0
 10
1.1901154518127441
 20
0.3032597601413727
 30
0.36636441946029663
 11
1.1804063320159912
 21
0.30305299162864685
 31
0.36636441946029663
  0
LINE
  8
0
 10
1.1804063320159912
 20
0.30305299162864685
 30
0.36636441946029663
 11
1.1786584854125977
 21
0.30193158984184265
 31
0.36636441946029663
  0
LINE
  8
0
 10
1.1786584854125977
 20
0.30193158984184265
 30
0.36636441946029663
 11
1.1766458749771118
 21
0.3006402850151062
 31
0.36636441946029663
  0
LINE
  8
0
 10
1.1758254766464233
 20
0.2970438003540039
 30
0.36636441946029663
 11
1.1766458749771118
 21
0.3006402850151062
 31
0.36636441946029663
  0
LINE
  8
0
 10
1.174880862236023
 20
0.2929023802280426
 30
0.36636441946029663
 11
1.1758254766464233
 21
0.2970438003540039
 31
0.36636441946029663
  0
LINE
  8
0
 10
1.174882411956787
 20
0.2902556359767914
 30
0.36636441946029663
 11
1.174880862236023
 21
0.2929023802280426
 31
0.36636441946029663
  0
LINE
  8
0
 10
1.174882411956787
 20
0.2902556359767914
 30
0.36636441946029663
 11
1.1748838424682617
 21
0.2879571318626404
 31
0.36636441946029663
  0
LINE
  8
0
 10
1.1748838424682617
 20
0.2879571318626404
 30
0.36636441946029663
 11
1.1749333143234253
 21
0.28455647826194763
 31
0.36636441946029663
  0
LINE
  8
0
 10
1.1749902963638306
 20
0.28064054250717163
 30
0.36636441946029663
 11
1.1749333143234253
 21
0.28455647826194763
 31
0.36636441946029663
  0
LINE
  8
0
 10
1.1749948263168335
 20
0.27968987822532654
 30
0.36636441946029663
 11
1.1749902963638306
 21
0.28064054250717163
 31
0.36636441946029663
  0
LINE
  8
0
 10
1.1750000715255737
 20
0.2785952091217041
 30
0.36636441946029663
 11
1.1749948263168335
 21
0.27968987822532654
 31
0.36636441946029663
  0
LINE
  8
0
 10
1.1750000715255737
 20
0.2785952091217041
 30
0.36636441946029663
 11
1.1780714988708496
 21
0.2785794138908386
 31
0.36636441946029663
  0
LINE
  8
0
 10
1.1780714988708496
 20
0.2785794138908386
 30
0.36636441946029663
 11
1.1816082000732422
 21
0.27856123447418213
 31
0.36636441946029663
  0
LINE
  8
0
 10
1.1942919492721558
 20
0.27856960892677307
 30
0.36636441946029663
 11
1.1816082000732422
 21
0.27856123447418213
 31
0.36636441946029663
  0
LINE
  8
0
 10
1.208897352218628
 20
0.2785792648792267
 30
0.36636441946029663
 11
1.1942919492721558
 21
0.27856960892677307
 31
0.36636441946029663
  0
LINE
  8
0
 10
1.2088193893432617
 20
0.27521130442619324
 30
0.36636441946029663
 11
1.208897352218628
 21
0.2785792648792267
 31
0.36636441946029663
  0
LINE
  8
0
 10
1.2087295055389404
 20
0.27133306860923767
 30
0.36636441946029663
 11
1.2088193893432617
 21
0.27521130442619324
 31
0.36636441946029663
  0
LINE
  8
0
 10
1.1916747093200684
 20
0.2711271345615387
 30
0.36636441946029663
 11
1.2087295055389404
 21
0.27133306860923767
 31
0.36636441946029663
  0
LINE
  8
0
 10
1.172035813331604
 20
0.2708899974822998
 30
0.36636441946029663
 11
1.1916747093200684
 21
0.2711271345615387
 31
0.36636441946029663
  0
LINE
  8
0
 10
1.172035813331604
 20
0.2708899974822998
 30
0.36636441946029663
 11
1.1691042184829712
 21
0.2718070149421692
 31
0.36636441946029663
  0
LINE
  8
0
 10
1.1657283306121826
 20
0.2728629410266876
 30
0.36636441946029663
 11
1.1691042184829712
 21
0.2718070149421692
 31
0.36636441946029663
  0
LINE
  8
0
 10
1.1657283306121826
 20
0.2728629410266876
 30
0.36636441946029663
 11
1.164600133895874
 21
0.27414464950561523
 31
0.36636441946029663
  0
LINE
  8
0
 10
1.164600133895874
 20
0.27414464950561523
 30
0.36636441946029663
 11
1.1633009910583496
 21
0.27562057971954346
 31
0.36636441946029663
  0
LINE
  8
0
 10
1.155789852142334
 20
0.2772161364555359
 30
0.36636441946029663
 11
1.156190037727356
 21
0.27818235754966736
 31
0.36636441946029663
  0
LINE
  8
0
 10
1.1550624370574951
 20
0.27626821398735046
 30
0.36636441946029663
 11
1.155789852142334
 21
0.2772161364555359
 31
0.36636441946029663
  0
LINE
  8
0
 10
1.1544257402420044
 20
0.27543848752975464
 30
0.36636441946029663
 11
1.1550624370574951
 21
0.27626821398735046
 31
0.36636441946029663
  0
LINE
  8
0
 10
1.1544257402420044
 20
0.27543848752975464
 30
0.36636441946029663
 11
1.1534777879714966
 21
0.27471110224723816
 31
0.36636441946029663
  0
LINE
  8
0
 10
1.1526480913162231
 20
0.2740744650363922
 30
0.36636441946029663
 11
1.1534777879714966
 21
0.27471110224723816
 31
0.36636441946029663
  0
LINE
  8
0
 10
1.151544213294983
 20
0.2736172080039978
 30
0.36636441946029663
 11
1.1526480913162231
 21
0.2740744650363922
 31
0.36636441946029663
  0
LINE
  8
0
 10
1.1505780220031738
 20
0.27321699261665344
 30
0.36636441946029663
 11
1.151544213294983
 21
0.2736172080039978
 31
0.36636441946029663
  0
LINE
  8
0
 10
1.1493933200836182
 20
0.27306103706359863
 30
0.36636441946029663
 11
1.1505780220031738
 21
0.27321699261665344
 31
0.36636441946029663
  0
LINE
  8
0
 10
1.1483564376831055
 20
0.2729245126247406
 30
0.36636441946029663
 11
1.1493933200836182
 21
0.27306103706359863
 31
0.36636441946029663
  0
LINE
  8
0
 10
1.1483564376831055
 20
0.2729245126247406
 30
0.36636441946029663
 11
1.1471718549728394
 21
0.2730804979801178
 31
0.36636441946029663
  0
LINE
  8
0
 10
1.1471718549728394
 20
0.2730804979801178
 30
0.36636441946029663
 11
1.1461349725723267
 21
0.27321696281433105
 31
0.36636441946029663
  0
LINE
  8
0
 10
1.1461349725723267
 20
0.27321696281433105
 30
0.36636441946029663
 11
1.1450310945510864
 21
0.27367421984672546
 31
0.36636441946029663
  0
LINE
  8
0
 10
1.1450310945510864
 20
0.27367421984672546
 30
0.36636441946029663
 11
1.1440649032592773
 21
0.2740744352340698
 31
0.36636441946029663
  0
LINE
  8
0
 10
1.1440649032592773
 20
0.2740744352340698
 30
0.36636441946029663
 11
1.1431169509887695
 21
0.2748018503189087
 31
0.36636441946029663
  0
LINE
  8
0
 10
1.1431169509887695
 20
0.2748018503189087
 30
0.36636441946029663
 11
1.142287254333496
 21
0.27543848752975464
 31
0.36636441946029663
  0
LINE
  8
0
 10
1.142287254333496
 20
0.27543848752975464
 30
0.36636441946029663
 11
1.1415598392486572
 21
0.27638643980026245
 31
0.36636441946029663
  0
LINE
  8
0
 10
1.1415598392486572
 20
0.27638643980026245
 30
0.36636441946029663
 11
1.1409231424331665
 21
0.2772161662578583
 31
0.36636441946029663
  0
LINE
  8
0
 10
1.1327930688858032
 20
0.27315324544906616
 30
0.36636441946029663
 11
1.1291917562484741
 21
0.2731471061706543
 31
0.36636441946029663
  0
LINE
  8
0
 10
1.1291917562484741
 20
0.2731471061706543
 30
0.36636441946029663
 11
1.125044822692871
 21
0.273140013217926
 31
0.36636441946029663
  0
LINE
  8
0
 10
1.125044822692871
 20
0.273140013217926
 30
0.36636441946029663
 11
1.1248739957809448
 21
0.28595274686813354
 31
0.36636441946029663
  0
LINE
  8
0
 10
1.1248739957809448
 20
0.28595274686813354
 30
0.36636441946029663
 11
1.1246771812438965
 21
0.300706684589386
 31
0.36636441946029663
  0
LINE
  8
0
 10
1.1246771812438965
 20
0.300706684589386
 30
0.36636441946029663
 11
1.1239923238754272
 21
0.30263251066207886
 31
0.36636441946029663
  0
LINE
  8
0
 10
1.1239923238754272
 20
0.30263251066207886
 30
0.36636441946029663
 11
1.1232035160064697
 21
0.3048500716686249
 31
0.36636441946029663
  0
LINE
  8
0
 10
1.1232035160064697
 20
0.3048500716686249
 30
0.36636441946029663
 11
1.1218055486679077
 21
0.30718475580215454
 31
0.36636441946029663
  0
LINE
  8
0
 10
1.1218055486679077
 20
0.30718475580215454
 30
0.36636441946029663
 11
1.1205915212631226
 21
0.30921226739883423
 31
0.36636441946029663
  0
LINE
  8
0
 10
1.1205915212631226
 20
0.30921226739883423
 30
0.36636441946029663
 11
1.118777871131897
 21
0.30955249071121216
 31
0.36636441946029663
  0
LINE
  8
0
 10
1.118777871131897
 20
0.30955249071121216
 30
0.36636441946029663
 11
1.1166895627975464
 21
0.3099442720413208
 31
0.36636441946029663
  0
LINE
  8
0
 10
1.1166895627975464
 20
0.3099442720413208
 30
0.36636441946029663
 11
1.1146619319915771
 21
0.30986446142196655
 31
0.36636441946029663
  0
LINE
  8
0
 10
1.1146619319915771
 20
0.30986446142196655
 30
0.36636441946029663
 11
1.1123270988464355
 21
0.3097725808620453
 31
0.36636441946029663
  0
LINE
  8
0
 10
1.1123270988464355
 20
0.3097725808620453
 30
0.36636441946029663
 11
1.1106749773025513
 21
0.3094615340232849
 31
0.36636441946029663
  0
LINE
  8
0
 10
1.1087725162506104
 20
0.3091033399105072
 30
0.36636441946029663
 11
1.1106749773025513
 21
0.3094615340232849
 31
0.36636441946029663
  0
LINE
  8
0
 10
1.1087725162506104
 20
0.29234203696250916
 30
0.36636441946029663
 11
1.1087725162506104
 21
0.3091033399105072
 31
0.36636441946029663
  0
LINE
  8
0
 10
1.1087725162506104
 20
0.29234203696250916
 30
0.36636441946029663
 11
1.1087725162506104
 21
0.27304115891456604
 31
0.36636441946029663
  0
LINE
  8
0
 10
1.1087725162506104
 20
0.27304115891456604
 30
0.36636441946029663
 11
1.1035614013671875
 21
0.27304115891456604
 31
0.36636441946029663
  0
LINE
  8
0
 10
1.1035614013671875
 20
0.27304115891456604
 30
0.36636441946029663
 11
1.0990359783172607
 21
0.27304115891456604
 31
0.36636441946029663
  0
LINE
  8
0
 10
1.0990359783172607
 20
0.2896340787410736
 30
0.36636441946029663
 11
1.0990359783172607
 21
0.27304115891456604
 31
0.36636441946029663
  0
LINE
  8
0
 10
1.0904818773269653
 20
0.2911738157272339
 30
0.36636441946029663
 11
1.090185284614563
 21
0.2885010540485382
 31
0.36636441946029663
  0
LINE
  8
0
 10
1.089180588722229
 20
0.28562283515930176
 30
0.36636441946029663
 11
1.090185284614563
 21
0.2885010540485382
 31
0.36636441946029663
  0
LINE
  8
0
 10
1.089180588722229
 20
0.28562283515930176
 30
0.36636441946029663
 11
1.0883110761642456
 21
0.2831322252750397
 31
0.36636441946029663
  0
LINE
  8
0
 10
1.0867127180099487
 20
0.28066062927246094
 30
0.36636441946029663
 11
1.0883110761642456
 21
0.2831322252750397
 31
0.36636441946029663
  0
LINE
  8
0
 10
1.0867127180099487
 20
0.28066062927246094
 30
0.36636441946029663
 11
1.085329532623291
 21
0.27852189540863037
 31
0.36636441946029663
  0
LINE
  8
0
 10
1.0832464694976807
 20
0.276625394821167
 30
0.36636441946029663
 11
1.085329532623291
 21
0.27852189540863037
 31
0.36636441946029663
  0
LINE
  8
0
 10
1.0832464694976807
 20
0.276625394821167
 30
0.36636441946029663
 11
1.0814439058303833
 21
0.2749842703342438
 31
0.36636441946029663
  0
LINE
  8
0
 10
1.0814439058303833
 20
0.2749842703342438
 30
0.36636441946029663
 11
1.0790181159973145
 21
0.2737920582294464
 31
0.36636441946029663
  0
LINE
  8
0
 10
1.0769189596176147
 20
0.27276042103767395
 30
0.36636441946029663
 11
1.0790181159973145
 21
0.2737920582294464
 31
0.36636441946029663
  0
LINE
  8
0
 10
1.0743157863616943
 20
0.27235379815101624
 30
0.36636441946029663
 11
1.0769189596176147
 21
0.27276042103767395
 31
0.36636441946029663
  0
LINE
  8
0
 10
1.0720630884170532
 20
0.2720019221305847
 30
0.36636441946029663
 11
1.0743157863616943
 21
0.27235379815101624
 31
0.36636441946029663
  0
LINE
  8
0
 10
1.0720630884170532
 20
0.2720019221305847
 30
0.36636441946029663
 11
1.0694599151611328
 21
0.27240854501724243
 31
0.36636441946029663
  0
LINE
  8
0
 10
1.0672073364257812
 20
0.27276045083999634
 30
0.36636441946029663
 11
1.0694599151611328
 21
0.27240854501724243
 31
0.36636441946029663
  0
LINE
  8
0
 10
1.0672073364257812
 20
0.27276045083999634
 30
0.36636441946029663
 11
1.0647815465927124
 21
0.2739526033401489
 31
0.36636441946029663
  0
LINE
  8
0
 10
1.0647815465927124
 20
0.2739526033401489
 30
0.36636441946029663
 11
1.0626823902130127
 21
0.2749842703342438
 31
0.36636441946029663
  0
LINE
  8
0
 10
1.0626823902130127
 20
0.2749842703342438
 30
0.36636441946029663
 11
1.0605993270874023
 21
0.27688074111938477
 31
0.36636441946029663
  0
LINE
  8
0
 10
1.0605993270874023
 20
0.27688074111938477
 30
0.36636441946029663
 11
1.058796763420105
 21
0.278521865606308
 31
0.36636441946029663
  0
LINE
  8
0
 10
1.057198405265808
 20
0.2809934616088867
 30
0.36636441946029663
 11
1.058796763420105
 21
0.278521865606308
 31
0.36636441946029663
  0
LINE
  8
0
 10
1.057198405265808
 20
0.2809934616088867
 30
0.36636441946029663
 11
1.0558152198791504
 21
0.28313228487968445
 31
0.36636441946029663
  0
LINE
  8
0
 10
1.0558152198791504
 20
0.28313228487968445
 30
0.36636441946029663
 11
1.0548104047775269
 21
0.2860104739665985
 31
0.36636441946029663
  0
LINE
  8
0
 10
1.0539408922195435
 20
0.2885010540485382
 30
0.36636441946029663
 11
1.0548104047775269
 21
0.2860104739665985
 31
0.36636441946029663
  0
LINE
  8
0
 10
1.0449998378753662
 20
0.28894177079200745
 30
0.36636441946029663
 11
1.0449998378753662
 21
0.27304115891456604
 31
0.36636441946029663
  0
LINE
  8
0
 10
1.0449998378753662
 20
0.27304115891456604
 30
0.36636441946029663
 11
1.0397887229919434
 21
0.27304115891456604
 31
0.36636441946029663
  0
LINE
  8
0
 10
1.0397887229919434
 20
0.27304115891456604
 30
0.36636441946029663
 11
1.0352632999420166
 21
0.27304115891456604
 31
0.36636441946029663
  0
LINE
  8
0
 10
1.0352632999420166
 20
0.29291293025016785
 30
0.36636441946029663
 11
1.0352632999420166
 21
0.27304115891456604
 31
0.36636441946029663
  0
LINE
  8
0
 10
1.0352632999420166
 20
0.29291293025016785
 30
0.36636441946029663
 11
1.0352632999420166
 21
0.31579551100730896
 31
0.36636441946029663
  0
LINE
  8
0
 10
1.0293058156967163
 20
0.3104020655155182
 30
0.36636441946029663
 11
1.0293058156967163
 21
0.3133670389652252
 31
0.36636441946029663
  0
LINE
  8
0
 10
1.0293058156967163
 20
0.3104020655155182
 30
0.36636441946029663
 11
1.024349331855774
 21
0.3104020655155182
 31
0.36636441946029663
  0
LINE
  8
0
 10
1.024349331855774
 20
0.3104020655155182
 30
0.36636441946029663
 11
1.0186419486999512
 21
0.3104020655155182
 31
0.36636441946029663
  0
LINE
  8
0
 10
1.0186419486999512
 20
0.29783061146736145
 30
0.36636441946029663
 11
1.0186419486999512
 21
0.3104020655155182
 31
0.36636441946029663
  0
LINE
  8
0
 10
1.0186419486999512
 20
0.29783061146736145
 30
0.36636441946029663
 11
1.0186419486999512
 21
0.2833544611930847
 31
0.36636441946029663
  0
LINE
  8
0
 10
1.0186419486999512
 20
0.2833544611930847
 30
0.36636441946029663
 11
1.0194478034973145
 21
0.2814570665359497
 31
0.36636441946029663
  0
LINE
  8
0
 10
1.0194478034973145
 20
0.2814570665359497
 30
0.36636441946029663
 11
1.020147681236267
 21
0.27980929613113403
 31
0.36636441946029663
  0
LINE
  8
0
 10
1.0213489532470703
 20
0.27923130989074707
 30
0.36636441946029663
 11
1.020147681236267
 21
0.27980929613113403
 31
0.36636441946029663
  0
LINE
  8
0
 10
1.0227322578430176
 20
0.27856573462486267
 30
0.36636441946029663
 11
1.0213489532470703
 21
0.27923130989074707
 31
0.36636441946029663
  0
LINE
  8
0
 10
1.0227322578430176
 20
0.27856573462486267
 30
0.36636441946029663
 11
1.0236365795135498
 21
0.27874207496643066
 31
0.36636441946029663
  0
LINE
  8
0
 10
1.0236365795135498
 20
0.27874207496643066
 30
0.36636441946029663
 11
1.0246779918670654
 21
0.27894511818885803
 31
0.36636441946029663
  0
LINE
  8
0
 10
1.0254440307617188
 20
0.2792642414569855
 30
0.36636441946029663
 11
1.0246779918670654
 21
0.27894511818885803
 31
0.36636441946029663
  0
LINE
  8
0
 10
1.026326060295105
 20
0.27963167428970337
 30
0.36636441946029663
 11
1.0254440307617188
 21
0.2792642414569855
 31
0.36636441946029663
  0
LINE
  8
0
 10
1.026326060295105
 20
0.27660009264945984
 30
0.36636441946029663
 11
1.026326060295105
 21
0.27963167428970337
 31
0.36636441946029663
  0
LINE
  8
0
 10
1.0263261795043945
 20
0.27310916781425476
 30
0.36636441946029663
 11
1.026326060295105
 21
0.27660009264945984
 31
0.36636441946029663
  0
LINE
  8
0
 10
1.0263261795043945
 20
0.27310916781425476
 30
0.36636441946029663
 11
1.0227545499801636
 21
0.27310916781425476
 31
0.36636441946029663
  0
LINE
  8
0
 10
1.0227545499801636
 20
0.27310916781425476
 30
0.36636441946029663
 11
1.0186419486999512
 21
0.27310916781425476
 31
0.36636441946029663
  0
LINE
  8
0
 10
1.0186419486999512
 20
0.27310916781425476
 30
0.36636441946029663
 11
1.017212152481079
 21
0.2732373774051666
 31
0.36636441946029663
  0
LINE
  8
0
 10
1.0159704685211182
 20
0.27334871888160706
 30
0.36636441946029663
 11
1.017212152481079
 21
0.2732373774051666
 31
0.36636441946029663
  0
LINE
  8
0
 10
1.0148165225982666
 20
0.27373334765434265
 30
0.36636441946029663
 11
1.0159704685211182
 21
0.27334871888160706
 31
0.36636441946029663
  0
LINE
  8
0
 10
1.0138144493103027
 20
0.27406734228134155
 30
0.36636441946029663
 11
1.0148165225982666
 21
0.27373334765434265
 31
0.36636441946029663
  0
LINE
  8
0
 10
1.0138144493103027
 20
0.27406734228134155
 30
0.36636441946029663
 11
1.0129170417785645
 21
0.2747083902359009
 31
0.36636441946029663
  0
LINE
  8
0
 10
1.0129170417785645
 20
0.2747083902359009
 30
0.36636441946029663
 11
1.0121376514434814
 21
0.275265097618103
 31
0.36636441946029663
  0
LINE
  8
0
 10
1.0121376514434814
 20
0.275265097618103
 30
0.36636441946029663
 11
1.011496663093567
 21
0.2759385406970978
 31
0.36636441946029663
  0
LINE
  8
0
 10
1.011496663093567
 20
0.2759385406970978
 30
0.36636441946029663
 11
1.0109399557113647
 21
0.2765233814716339
 31
0.36636441946029663
  0
LINE
  8
0
 10
1.0109399557113647
 20
0.2765233814716339
 30
0.36636441946029663
 11
1.0105552673339844
 21
0.2776772677898407
 31
0.36636441946029663
  0
LINE
  8
0
 10
1.0105552673339844
 20
0.2776772677898407
 30
0.36636441946029663
 11
1.010221242904663
 21
0.2786793112754822
 31
0.36636441946029663
  0
LINE
  8
0
 10
1.010221242904663
 20
0.2786793112754822
 30
0.36636441946029663
 11
1.009876012802124
 21
0.2800896167755127
 31
0.36636441946029663
  0
LINE
  8
0
 10
1.0095762014389038
 20
0.28131434321403503
 30
0.36636441946029663
 11
1.009876012802124
 21
0.2800896167755127
 31
0.36636441946029663
  0
LINE
  8
0
 10
0.9992494583129883
 20
0.2783578932285309
 30
0.36636441946029663
 11
0.9993591904640198
 21
0.2792088985443115
 31
0.36636441946029663
  0
LINE
  8
0
 10
0.9991230368614197
 20
0.27737799286842346
 30
0.36636441946029663
 11
0.9992494583129883
 21
0.2783578932285309
 31
0.36636441946029663
  0
LINE
  8
0
 10
0.9987438917160034
 20
0.27664998173713684
 30
0.36636441946029663
 11
0.9991230368614197
 21
0.27737799286842346
 31
0.36636441946029663
  0
LINE
  8
0
 10
0.9984145760536194
 20
0.2760177552700043
 30
0.36636441946029663
 11
0.9987438917160034
 21
0.27664998173713684
 31
0.36636441946029663
  0
LINE
  8
0
 10
0.9977825880050659
 20
0.27545151114463806
 30
0.36636441946029663
 11
0.9984145760536194
 21
0.2760177552700043
 31
0.36636441946029663
  0
LINE
  8
0
 10
0.9977825880050659
 20
0.27545151114463806
 30
0.36636441946029663
 11
0.9972337484359741
 21
0.2749597728252411
 31
0.36636441946029663
  0
LINE
  8
0
 10
0.9963489770889282
 20
0.2745553255081177
 30
0.36636441946029663
 11
0.9972337484359741
 21
0.2749597728252411
 31
0.36636441946029663
  0
LINE
  8
0
 10
0.9963489770889282
 20
0.2745553255081177
 30
0.36636441946029663
 11
0.9955806136131287
 21
0.2742040753364563
 31
0.36636441946029663
  0
LINE
  8
0
 10
0.9955806136131287
 20
0.2742040753364563
 30
0.36636441946029663
 11
0.9944430589675903
 21
0.2739613950252533
 31
0.36636441946029663
  0
LINE
  8
0
 10
0.9944430589675903
 20
0.2739613950252533
 30
0.36636441946029663
 11
0.993455171585083
 21
0.2737506628036499
 31
0.36636441946029663
  0
LINE
  8
0
 10
0.993455171585083
 20
0.2737506628036499
 30
0.36636441946029663
 11
0.9920648336410522
 21
0.2736798822879791
 31
0.36636441946029663
  0
LINE
  8
0
 10
0.9908574223518372
 20
0.2736184597015381
 30
0.36636441946029663
 11
0.9920648336410522
 21
0.2736798822879791
 31
0.36636441946029663
  0
LINE
  8
0
 10
0.9908574223518372
 20
0.2736184597015381
 30
0.36636441946029663
 11
0.9876183271408081
 21
0.2735016345977783
 31
0.36636441946029663
  0
LINE
  8
0
 10
0.9838883876800537
 20
0.27336713671684265
 30
0.36636441946029663
 11
0.9876183271408081
 21
0.2735016345977783
 31
0.36636441946029663
  0
LINE
  8
0
 10
0.9838883876800537
 20
0.27336713671684265
 30
0.36636441946029663
 11
0.980465292930603
 21
0.2734786868095398
 31
0.36636441946029663
  0
LINE
  8
0
 10
0.980465292930603
 20
0.2734786868095398
 30
0.36636441946029663
 11
0.9765235781669617
 21
0.2736071050167084
 31
0.36636441946029663
  0
LINE
  8
0
 10
0.9765235781669617
 20
0.2736071050167084
 30
0.36636441946029663
 11
0.9740964770317078
 21
0.27469921112060547
 31
0.36636441946029663
  0
LINE
  8
0
 10
0.9740964770317078
 20
0.27469921112060547
 30
0.36636441946029663
 11
0.9713016748428345
 21
0.27595677971839905
 31
0.36636441946029663
  0
LINE
  8
0
 10
0.9713016748428345
 20
0.27595677971839905
 30
0.36636441946029663
 11
0.9695180654525757
 21
0.27832722663879395
 31
0.36636441946029663
  0
LINE
  8
0
 10
0.96746426820755
 20
0.28105679154396057
 30
0.36636441946029663
 11
0.9695180654525757
 21
0.27832722663879395
 31
0.36636441946029663
  0
LINE
  8
0
 10
0.9603336453437805
 20
0.27660009264945984
 30
0.36636441946029663
 11
0.9603336453437805
 21
0.27963167428970337
 31
0.36636441946029663
  0
LINE
  8
0
 10
0.9603336453437805
 20
0.27310916781425476
 30
0.36636441946029663
 11
0.9603336453437805
 21
0.27660009264945984
 31
0.36636441946029663
  0
LINE
  8
0
 10
0.9603336453437805
 20
0.27310916781425476
 30
0.36636441946029663
 11
0.9567621350288391
 21
0.27310916781425476
 31
0.36636441946029663
  0
LINE
  8
0
 10
0.9567621350288391
 20
0.27310916781425476
 30
0.36636441946029663
 11
0.9526494741439819
 21
0.27310916781425476
 31
0.36636441946029663
  0
LINE
  8
0
 10
0.9526494741439819
 20
0.27310916781425476
 30
0.36636441946029663
 11
0.9512196779251099
 21
0.2732373774051666
 31
0.36636441946029663
  0
LINE
  8
0
 10
0.9512196779251099
 20
0.2732373774051666
 30
0.36636441946029663
 11
0.9499779939651489
 21
0.27334871888160706
 31
0.36636441946029663
  0
LINE
  8
0
 10
0.9499779939651489
 20
0.27334871888160706
 30
0.36636441946029663
 11
0.9488241076469421
 21
0.27373331785202026
 31
0.36636441946029663
  0
LINE
  8
0
 10
0.9478220343589783
 20
0.27406734228134155
 30
0.36636441946029663
 11
0.9488241076469421
 21
0.27373331785202026
 31
0.36636441946029663
  0
LINE
  8
0
 10
0.9469245672225952
 20
0.2747083902359009
 30
0.36636441946029663
 11
0.9478220343589783
 21
0.27406734228134155
 31
0.36636441946029663
  0
LINE
  8
0
 10
0.9469245672225952
 20
0.2747083902359009
 30
0.36636441946029663
 11
0.9461451768875122
 21
0.275265097618103
 31
0.36636441946029663
  0
LINE
  8
0
 10
0.9455041885375977
 20
0.2759385406970978
 30
0.36636441946029663
 11
0.9461451768875122
 21
0.275265097618103
 31
0.36636441946029663
  0
LINE
  8
0
 10
0.9449474811553955
 20
0.2765233814716339
 30
0.36636441946029663
 11
0.9455041885375977
 21
0.2759385406970978
 31
0.36636441946029663
  0
LINE
  8
0
 10
0.9449474811553955
 20
0.2765233814716339
 30
0.36636441946029663
 11
0.9445628523826599
 21
0.2776772677898407
 31
0.36636441946029663
  0
LINE
  8
0
 10
0.9442288279533386
 20
0.2786793112754822
 30
0.36636441946029663
 11
0.9445628523826599
 21
0.2776772677898407
 31
0.36636441946029663
  0
LINE
  8
0
 10
0.9438835382461548
 20
0.2800896167755127
 30
0.36636441946029663
 11
0.9442288279533386
 21
0.2786793112754822
 31
0.36636441946029663
  0
LINE
  8
0
 10
0.9435836672782898
 20
0.2813143730163574
 30
0.36636441946029663
 11
0.9438835382461548
 21
0.2800896167755127
 31
0.36636441946029663
  0
LINE
  8
0
 10
0.9435504674911499
 20
0.28226256370544434
 30
0.36636441946029663
 11
0.9435836672782898
 21
0.2813143730163574
 31
0.36636441946029663
  0
LINE
  8
0
 10
0.9435504674911499
 20
0.28226256370544434
 30
0.36636441946029663
 11
0.9435122609138489
 21
0.2833544611930847
 31
0.36636441946029663
  0
LINE
  8
0
 10
0.9334747791290283
 20
0.2832280695438385
 30
0.36636441946029663
 11
0.9316688179969788
 21
0.2799084782600403
 31
0.36636441946029663
  0
LINE
  8
0
 10
0.9295892119407654
 20
0.2760859429836273
 30
0.36636441946029663
 11
0.9316688179969788
 21
0.2799084782600403
 31
0.36636441946029663
  0
LINE
  8
0
 10
0.9295892119407654
 20
0.2760859429836273
 30
0.36636441946029663
 11
0.9266575574874878
 21
0.2745775282382965
 31
0.36636441946029663
  0
LINE
  8
0
 10
0.923281729221344
 20
0.2728405296802521
 30
0.36636441946029663
 11
0.9266575574874878
 21
0.2745775282382965
 31
0.36636441946029663
  0
LINE
  8
0
 10
0.923281729221344
 20
0.2728405296802521
 30
0.36636441946029663
 11
0.9148049354553223
 21
0.27304646372795105
 31
0.36636441946029663
  0
LINE
  8
0
 10
0.9148049354553223
 20
0.27304646372795105
 30
0.36636441946029663
 11
0.9050437808036804
 21
0.27328360080718994
 31
0.36636441946029663
  0
LINE
  8
0
 10
0.9050437808036804
 20
0.27328360080718994
 30
0.36636441946029663
 11
0.9049658179283142
 21
0.27563175559043884
 31
0.36636441946029663
  0
LINE
  8
0
 10
0.9049658179283142
 20
0.27563175559043884
 30
0.36636441946029663
 11
0.9048760533332825
 21
0.27833569049835205
 31
0.36636441946029663
  0
LINE
  8
0
 10
0.9092972874641418
 20
0.27812978625297546
 30
0.36636441946029663
 11
0.9048760533332825
 21
0.27833569049835205
 31
0.36636441946029663
  0
LINE
  8
0
 10
0.9143884778022766
 20
0.2778926491737366
 30
0.36636441946029663
 11
0.9092972874641418
 21
0.27812978625297546
 31
0.36636441946029663
  0
LINE
  8
0
 10
0.9173201322555542
 20
0.27828100323677063
 30
0.36636441946029663
 11
0.9143884778022766
 21
0.2778926491737366
 31
0.36636441946029663
  0
LINE
  8
0
 10
0.9173201322555542
 20
0.27828100323677063
 30
0.36636441946029663
 11
0.920695960521698
 21
0.278728187084198
 31
0.36636441946029663
  0
LINE
  8
0
 10
0.9225019216537476
 20
0.28071919083595276
 30
0.36636441946029663
 11
0.920695960521698
 21
0.278728187084198
 31
0.36636441946029663
  0
LINE
  8
0
 10
0.9245814681053162
 20
0.28301188349723816
 30
0.36636441946029663
 11
0.9225019216537476
 21
0.28071919083595276
 31
0.36636441946029663
  0
LINE
  8
0
 10
0.9251537322998047
 20
0.28531038761138916
 30
0.36636441946029663
 11
0.9245814681053162
 21
0.28301188349723816
 31
0.36636441946029663
  0
LINE
  8
0
 10
0.9251537322998047
 20
0.28531038761138916
 30
0.36636441946029663
 11
0.9258126616477966
 21
0.2879571318626404
 31
0.36636441946029663
  0
LINE
  8
0
 10
0.9258931875228882
 20
0.290603905916214
 30
0.36636441946029663
 11
0.9258126616477966
 21
0.2879571318626404
 31
0.36636441946029663
  0
LINE
  8
0
 10
0.9258931875228882
 20
0.290603905916214
 30
0.36636441946029663
 11
0.9259631037712097
 21
0.292902410030365
 31
0.36636441946029663
  0
LINE
  8
0
 10
0.9252222776412964
 20
0.2945506274700165
 30
0.36636441946029663
 11
0.9259631037712097
 21
0.292902410030365
 31
0.36636441946029663
  0
LINE
  8
0
 10
0.9252222776412964
 20
0.2945506274700165
 30
0.36636441946029663
 11
0.924369215965271
 21
0.29644855856895447
 31
0.36636441946029663
  0
LINE
  8
0
 10
0.924369215965271
 20
0.29644855856895447
 30
0.36636441946029663
 11
0.9223961234092712
 21
0.29709991812705994
 31
0.36636441946029663
  0
LINE
  8
0
 10
0.9223961234092712
 20
0.29709991812705994
 30
0.36636441946029663
 11
0.9201241135597229
 21
0.29784998297691345
 31
0.36636441946029663
  0
LINE
  8
0
 10
0.9201241135597229
 20
0.29784998297691345
 30
0.36636441946029663
 11
0.9168209433555603
 21
0.29816898703575134
 31
0.36636441946029663
  0
LINE
  8
0
 10
0.9168209433555603
 20
0.29816898703575134
 30
0.36636441946029663
 11
0.913017213344574
 21
0.2985363304615021
 31
0.36636441946029663
  0
LINE
  8
0
 10
0.913017213344574
 20
0.2985363304615021
 30
0.36636441946029663
 11
0.9095999598503113
 21
0.3002864122390747
 31
0.36636441946029663
  0
LINE
  8
0
 10
0.9095999598503113
 20
0.3002864122390747
 30
0.36636441946029663
 11
0.90566486120224
 21
0.3023016154766083
 31
0.36636441946029663
  0
LINE
  8
0
 10
0.9047621488571167
 20
0.3047633767127991
 30
0.36636441946029663
 11
0.90566486120224
 21
0.3023016154766083
 31
0.36636441946029663
  0
LINE
  8
0
 10
0.9047621488571167
 20
0.3047633767127991
 30
0.36636441946029663
 11
0.9037225842475891
 21
0.30759814381599426
 31
0.36636441946029663
  0
LINE
  8
0
 10
0.9033784866333008
 20
0.31088557839393616
 30
0.36636441946029663
 11
0.9037225842475891
 21
0.30759814381599426
 31
0.36636441946029663
  0
LINE
  8
0
 10
0.9033784866333008
 20
0.31088557839393616
 30
0.36636441946029663
 11
0.902982234954834
 21
0.3146710991859436
 31
0.36636441946029663
  0
LINE
  8
0
 10
0.902982234954834
 20
0.3146710991859436
 30
0.36636441946029663
 11
0.8989856243133545
 21
0.3157649636268616
 31
0.36636441946029663
  0
LINE
  8
0
 10
0.8912003636360168
 20
0.2968016564846039
 30
0.36636441946029663
 11
0.8989856243133545
 21
0.3157649636268616
 31
0.36636441946029663
  0
LINE
  8
0
 10
0.882235586643219
 20
0.27496519684791565
 30
0.36636441946029663
 11
0.8912003636360168
 21
0.2968016564846039
 31
0.36636441946029663
  0
LINE
  8
0
 10
0.8776136636734009
 20
0.26414716243743896
 30
0.36636441946029663
 11
0.882235586643219
 21
0.27496519684791565
 31
0.36636441946029663
  0
LINE
  8
0
 10
0.8722914457321167
 20
0.2516900599002838
 30
0.36636441946029663
 11
0.8776136636734009
 21
0.26414716243743896
 31
0.36636441946029663
  0
LINE
  8
0
 10
0.8722914457321167
 20
0.2516900599002838
 30
0.36636441946029663
 11
0.867832601070404
 21
0.2516900599002838
 31
0.36636441946029663
  0
LINE
  8
0
 10
0.867832601070404
 20
0.2516900599002838
 30
0.36636441946029663
 11
0.8639605045318604
 21
0.2516900599002838
 31
0.36636441946029663
  0
LINE
  8
0
 10
0.8639605045318604
 20
0.2516900599002838
 30
0.36636441946029663
 11
0.8685824275016785
 21
0.2625080645084381
 31
0.36636441946029663
  0
LINE
  8
0
 10
0.8685824275016785
 20
0.2625080645084381
 30
0.36636441946029663
 11
0.8739046454429626
 21
0.27496519684791565
 31
0.36636441946029663
  0
LINE
  8
0
 10
0.8739046454429626
 20
0.27496519684791565
 30
0.36636441946029663
 11
0.8659500479698181
 21
0.2968040406703949
 31
0.36636441946029663
  0
LINE
  8
0
 10
0.8535136580467224
 20
0.2792088985443115
 30
0.36636441946029663
 11
0.8535136580467224
 21
0.2931404411792755
 31
0.36636441946029663
  0
LINE
  8
0
 10
0.8534039258956909
 20
0.2783578932285309
 30
0.36636441946029663
 11
0.8535136580467224
 21
0.2792088985443115
 31
0.36636441946029663
  0
LINE
  8
0
 10
0.8532775044441223
 20
0.27737799286842346
 30
0.36636441946029663
 11
0.8534039258956909
 21
0.2783578932285309
 31
0.36636441946029663
  0
LINE
  8
0
 10
0.8528982996940613
 20
0.27664998173713684
 30
0.36636441946029663
 11
0.8532775044441223
 21
0.27737799286842346
 31
0.36636441946029663
  0
LINE
  8
0
 10
0.852569043636322
 20
0.2760177552700043
 30
0.36636441946029663
 11
0.8528982996940613
 21
0.27664998173713684
 31
0.36636441946029663
  0
LINE
  8
0
 10
0.8519370555877686
 20
0.27545151114463806
 30
0.36636441946029663
 11
0.852569043636322
 21
0.2760177552700043
 31
0.36636441946029663
  0
LINE
  8
0
 10
0.8513882160186768
 20
0.2749597728252411
 30
0.36636441946029663
 11
0.8519370555877686
 21
0.27545151114463806
 31
0.36636441946029663
  0
LINE
  8
0
 10
0.8513882160186768
 20
0.2749597728252411
 30
0.36636441946029663
 11
0.8505034446716309
 21
0.2745553255081177
 31
0.36636441946029663
  0
LINE
  8
0
 10
0.8505034446716309
 20
0.2745553255081177
 30
0.36636441946029663
 11
0.8497350811958313
 21
0.2742040753364563
 31
0.36636441946029663
  0
LINE
  8
0
 10
0.8497350811958313
 20
0.2742040753364563
 30
0.36636441946029663
 11
0.848597526550293
 21
0.2739613950252533
 31
0.36636441946029663
  0
LINE
  8
0
 10
0.848597526550293
 20
0.2739613950252533
 30
0.36636441946029663
 11
0.8476096391677856
 21
0.2737506628036499
 31
0.36636441946029663
  0
LINE
  8
0
 10
0.8476096391677856
 20
0.2737506628036499
 30
0.36636441946029663
 11
0.8462193012237549
 21
0.2736798822879791
 31
0.36636441946029663
  0
LINE
  8
0
 10
0.8462193012237549
 20
0.2736798822879791
 30
0.36636441946029663
 11
0.8450118899345398
 21
0.2736184597015381
 31
0.36636441946029663
  0
LINE
  8
0
 10
0.841772735118866
 20
0.2735016345977783
 30
0.36636441946029663
 11
0.8450118899345398
 21
0.2736184597015381
 31
0.36636441946029663
  0
LINE
  8
0
 10
0.841772735118866
 20
0.2735016345977783
 30
0.36636441946029663
 11
0.8380428552627563
 21
0.27336713671684265
 31
0.36636441946029663
  0
LINE
  8
0
 10
0.8380428552627563
 20
0.27336713671684265
 30
0.36636441946029663
 11
0.8346197605133057
 21
0.2734786868095398
 31
0.36636441946029663
  0
LINE
  8
0
 10
0.8346197605133057
 20
0.2734786868095398
 30
0.36636441946029663
 11
0.8306780457496643
 21
0.2736071050167084
 31
0.36636441946029663
  0
LINE
  8
0
 10
0.8306780457496643
 20
0.2736071050167084
 30
0.36636441946029663
 11
0.8282509446144104
 21
0.27469921112060547
 31
0.36636441946029663
  0
LINE
  8
0
 10
0.8282509446144104
 20
0.27469921112060547
 30
0.36636441946029663
 11
0.8254561424255371
 21
0.27595677971839905
 31
0.36636441946029663
  0
LINE
  8
0
 10
0.8254561424255371
 20
0.27595677971839905
 30
0.36636441946029663
 11
0.8236725330352783
 21
0.27832722663879395
 31
0.36636441946029663
  0
LINE
  8
0
 10
0.8216187357902527
 20
0.28105679154396057
 30
0.36636441946029663
 11
0.8236725330352783
 21
0.27832722663879395
 31
0.36636441946029663
  0
LINE
  8
0
 10
0.8121412992477417
 20
0.27304115891456604
 30
0.36636441946029663
 11
0.8069301247596741
 21
0.27304115891456604
 31
0.36636441946029663
  0
LINE
  8
0
 10
0.8069301247596741
 20
0.27304115891456604
 30
0.36636441946029663
 11
0.8024047017097473
 21
0.27304115891456604
 31
0.36636441946029663
  0
LINE
  8
0
 10
0.8024047017097473
 20
0.27304115891456604
 30
0.36636441946029663
 11
0.8024047017097473
 21
0.29894179105758667
 31
0.36636441946029663
  0
LINE
  8
0
 10
0.7949771285057068
 20
0.30216383934020996
 30
0.36636441946029663
 11
0.7939860224723816
 21
0.30031806230545044
 31
0.36636441946029663
  0
LINE
  8
0
 10
0.7928447723388672
 20
0.29819267988204956
 30
0.36636441946029663
 11
0.7939860224723816
 21
0.30031806230545044
 31
0.36636441946029663
  0
LINE
  8
0
 10
0.7928447723388672
 20
0.29819267988204956
 30
0.36636441946029663
 11
0.7911942601203918
 21
0.29684680700302124
 31
0.36636441946029663
  0
LINE
  8
0
 10
0.7911942601203918
 20
0.29684680700302124
 30
0.36636441946029663
 11
0.7892937064170837
 21
0.2952970266342163
 31
0.36636441946029663
  0
LINE
  8
0
 10
0.7892937064170837
 20
0.2952970266342163
 30
0.36636441946029663
 11
0.7828091382980347
 21
0.29525724053382874
 31
0.36636441946029663
  0
LINE
  8
0
 10
0.7828091382980347
 20
0.29525724053382874
 30
0.36636441946029663
 11
0.7753421664237976
 21
0.29521146416664124
 31
0.36636441946029663
  0
LINE
  8
0
 10
0.7753293514251709
 20
0.2976216673851013
 30
0.36636441946029663
 11
0.7753421664237976
 21
0.29521146416664124
 31
0.36636441946029663
  0
LINE
  8
0
 10
0.7753146290779114
 20
0.30039703845977783
 30
0.36636441946029663
 11
0.7753293514251709
 21
0.2976216673851013
 31
0.36636441946029663
  0
LINE
  8
0
 10
0.7793354392051697
 20
0.30039703845977783
 30
0.36636441946029663
 11
0.7753146290779114
 21
0.30039703845977783
 31
0.36636441946029663
  0
LINE
  8
0
 10
0.7793354392051697
 20
0.30039703845977783
 30
0.36636441946029663
 11
0.7839654088020325
 21
0.30039703845977783
 31
0.36636441946029663
  0
LINE
  8
0
 10
0.7850942611694336
 20
0.30092737078666687
 30
0.36636441946029663
 11
0.7839654088020325
 21
0.30039703845977783
 31
0.36636441946029663
  0
LINE
  8
0
 10
0.7863941192626953
 20
0.30153805017471313
 30
0.36636441946029663
 11
0.7850942611694336
 21
0.30092737078666687
 31
0.36636441946029663
  0
LINE
  8
0
 10
0.7863941192626953
 20
0.30153805017471313
 30
0.36636441946029663
 11
0.7869900465011597
 21
0.30272310972213745
 31
0.36636441946029663
  0
LINE
  8
0
 10
0.787676215171814
 20
0.30408772826194763
 30
0.36636441946029663
 11
0.7869900465011597
 21
0.30272310972213745
 31
0.36636441946029663
  0
LINE
  8
0
 10
0.787676215171814
 20
0.30408772826194763
 30
0.36636441946029663
 11
0.7874954342842102
 21
0.3115510046482086
 31
0.36636441946029663
  0
LINE
  8
0
 10
0.7874954342842102
 20
0.3115510046482086
 30
0.36636441946029663
 11
0.7872872352600098
 21
0.32014504075050354
 31
0.36636441946029663
  0
LINE
  8
0
 10
0.7861595153808594
 20
0.32129642367362976
 30
0.36636441946029663
 11
0.7872872352600098
 21
0.32014504075050354
 31
0.36636441946029663
  0
LINE
  8
0
 10
0.7848609685897827
 20
0.32262223958969116
 30
0.36636441946029663
 11
0.7861595153808594
 21
0.32129642367362976
 31
0.36636441946029663
  0
LINE
  8
0
 10
0.7848609685897827
 20
0.32262223958969116
 30
0.36636441946029663
 11
0.783889651298523
 21
0.3230850398540497
 31
0.36636441946029663
  0
LINE
  8
0
 10
0.783889651298523
 20
0.3230850398540497
 30
0.36636441946029663
 11
0.7827712297439575
 21
0.3236179053783417
 31
0.36636441946029663
  0
LINE
  8
0
 10
0.7827712297439575
 20
0.3236179053783417
 30
0.36636441946029663
 11
0.7766047120094299
 21
0.3236179053783417
 31
0.36636441946029663
  0
LINE
  8
0
 10
0.7766047120094299
 20
0.3236179053783417
 30
0.36636441946029663
 11
0.7695039510726929
 21
0.3236179053783417
 31
0.36636441946029663
  0
LINE
  8
0
 10
0.7695039510726929
 20
0.300110399723053
 30
0.36636441946029663
 11
0.7695039510726929
 21
0.3236179053783417
 31
0.36636441946029663
  0
LINE
  8
0
 10
0.7695039510726929
 20
0.27304115891456604
 30
0.36636441946029663
 11
0.7695039510726929
 21
0.300110399723053
 31
0.36636441946029663
  0
LINE
  8
0
 10
0.7695039510726929
 20
0.27304115891456604
 30
0.36636441946029663
 11
0.7652642726898193
 21
0.27304115891456604
 31
0.36636441946029663
  0
LINE
  8
0
 10
0.7652642726898193
 20
0.27304115891456604
 30
0.36636441946029663
 11
0.7615824341773987
 21
0.27304115891456604
 31
0.36636441946029663
  0
LINE
  8
0
 10
1.2343201637268066
 20
0.2444489449262619
 30
0.36636441946029663
 11
0.7449502348899841
 21
0.2442511022090912
 31
0.36636441946029663
  0
LINE
  8
0
 10
1.2343201637268066
 20
0.2444489449262619
 30
0.36636441946029663
 11
1.2342735528945923
 21
0.35966628789901733
 31
0.36636441946029663
  0
LINE
  8
0
 10
1.2342735528945923
 20
0.35966628789901733
 30
0.36636441946029663
 11
0.7449036836624146
 21
0.3594684302806854
 31
0.36636441946029663
  0
LINE
  8
0
 10
0.7615824341773987
 20
0.32849109172821045
 30
0.36636441946029663
 11
0.7658221125602722
 21
0.32849109172821045
 31
0.36636441946029663
  0
LINE
  8
0
 10
0.7658221125602722
 20
0.32849109172821045
 30
0.36636441946029663
 11
0.7695039510726929
 21
0.32849109172821045
 31
0.36636441946029663
  0
LINE
  8
0
 10
0.7756704092025757
 20
0.32849112153053284
 30
0.36636441946029663
 11
0.7695039510726929
 21
0.32849109172821045
 31
0.36636441946029663
  0
LINE
  8
0
 10
0.7827712297439575
 20
0.32849109172821045
 30
0.36636441946029663
 11
0.7756704092025757
 21
0.32849112153053284
 31
0.36636441946029663
  0
LINE
  8
0
 10
0.7864956855773926
 20
0.32770389318466187
 30
0.36636441946029663
 11
0.7827712297439575
 21
0.32849109172821045
 31
0.36636441946029663
  0
LINE
  8
0
 10
0.7864956855773926
 20
0.32770389318466187
 30
0.36636441946029663
 11
0.7907843589782715
 21
0.3267974257469177
 31
0.36636441946029663
  0
LINE
  8
0
 10
0.7920652031898499
 20
0.32567769289016724
 30
0.36636441946029663
 11
0.7907843589782715
 21
0.3267974257469177
 31
0.36636441946029663
  0
LINE
  8
0
 10
0.7935400605201721
 20
0.3243882954120636
 30
0.36636441946029663
 11
0.7920652031898499
 21
0.32567769289016724
 31
0.36636441946029663
  0
LINE
  8
0
 10
0.8024047017097473
 20
0.3287666141986847
 30
0.36636441946029663
 11
0.8076158165931702
 21
0.3287666141986847
 31
0.36636441946029663
  0
LINE
  8
0
 10
0.8076158165931702
 20
0.3287666141986847
 30
0.36636441946029663
 11
0.8121412992477417
 21
0.3287666440010071
 31
0.36636441946029663
  0
LINE
  8
0
 10
0.8121412992477417
 20
0.30286604166030884
 30
0.36636441946029663
 11
0.8121412992477417
 21
0.3287666440010071
 31
0.36636441946029663
  0
LINE
  8
0
 10
0.8219579458236694
 20
0.29422223567962646
 30
0.36636441946029663
 11
0.8239251971244812
 21
0.2962675392627716
 31
0.36636441946029663
  0
LINE
  8
0
 10
0.8261904716491699
 20
0.2986226975917816
 30
0.36636441946029663
 11
0.8239251971244812
 21
0.2962675392627716
 31
0.36636441946029663
  0
LINE
  8
0
 10
0.8299898505210876
 20
0.2997494041919708
 30
0.36636441946029663
 11
0.8261904716491699
 21
0.2986226975917816
 31
0.36636441946029663
  0
LINE
  8
0
 10
0.8332892656326294
 20
0.30072784423828125
 30
0.36636441946029663
 11
0.8299898505210876
 21
0.2997494041919708
 31
0.36636441946029663
  0
LINE
  8
0
 10
0.8365887403488159
 20
0.3005649149417877
 30
0.36636441946029663
 11
0.8332892656326294
 21
0.30072784423828125
 31
0.36636441946029663
  0
LINE
  8
0
 10
0.8403880596160889
 20
0.3003772497177124
 30
0.36636441946029663
 11
0.8365887403488159
 21
0.3005649149417877
 31
0.36636441946029663
  0
LINE
  8
0
 10
0.8403880596160889
 20
0.3003772497177124
 30
0.36636441946029663
 11
0.8404016494750977
 21
0.2974396347999573
 31
0.36636441946029663
  0
LINE
  8
0
 10
0.8404173254966736
 20
0.2940569519996643
 30
0.36636441946029663
 11
0.8404016494750977
 21
0.2974396347999573
 31
0.36636441946029663
  0
LINE
  8
0
 10
0.8404173254966736
 20
0.2940569519996643
 30
0.36636441946029663
 11
0.8387582302093506
 21
0.2941349446773529
 31
0.36636441946029663
  0
LINE
  8
0
 10
0.8387582302093506
 20
0.2941349446773529
 30
0.36636441946029663
 11
0.8368477821350098
 21
0.29422473907470703
 31
0.36636441946029663
  0
LINE
  8
0
 10
0.8349372744560242
 20
0.2939428389072418
 30
0.36636441946029663
 11
0.8368477821350098
 21
0.29422473907470703
 31
0.36636441946029663
  0
LINE
  8
0
 10
0.8349372744560242
 20
0.2939428389072418
 30
0.36636441946029663
 11
0.8332781791687012
 21
0.2936980426311493
 31
0.36636441946029663
  0
LINE
  8
0
 10
0.8332781791687012
 20
0.2936980426311493
 30
0.36636441946029663
 11
0.8325181007385254
 21
0.29287317395210266
 31
0.36636441946029663
  0
LINE
  8
0
 10
0.8325181007385254
 20
0.29287317395210266
 30
0.36636441946029663
 11
0.8316428065299988
 21
0.29192331433296204
 31
0.36636441946029663
  0
LINE
  8
0
 10
0.8309459686279297
 20
0.28981226682662964
 30
0.36636441946029663
 11
0.8316428065299988
 21
0.29192331433296204
 31
0.36636441946029663
  0
LINE
  8
0
 10
0.8301436305046082
 20
0.2873813509941101
 30
0.36636441946029663
 11
0.8309459686279297
 21
0.28981226682662964
 31
0.36636441946029663
  0
LINE
  8
0
 10
0.8301436305046082
 20
0.2873813509941101
 30
0.36636441946029663
 11
0.8304044008255005
 21
0.2855204641819
 31
0.36636441946029663
  0
LINE
  8
0
 10
0.8307046890258789
 20
0.28337764739990234
 30
0.36636441946029663
 11
0.8304044008255005
 21
0.2855204641819
 31
0.36636441946029663
  0
LINE
  8
0
 10
0.8307046890258789
 20
0.28337764739990234
 30
0.36636441946029663
 11
0.8314017653465271
 21
0.28218644857406616
 31
0.36636441946029663
  0
LINE
  8
0
 10
0.8314017653465271
 20
0.28218644857406616
 30
0.36636441946029663
 11
0.8322044014930725
 21
0.2808147966861725
 31
0.36636441946029663
  0
LINE
  8
0
 10
0.833099365234375
 20
0.2803325355052948
 30
0.36636441946029663
 11
0.8322044014930725
 21
0.2808147966861725
 31
0.36636441946029663
  0
LINE
  8
0
 10
0.8341299295425415
 20
0.2797771990299225
 30
0.36636441946029663
 11
0.833099365234375
 21
0.2803325355052948
 31
0.36636441946029663
  0
LINE
  8
0
 10
0.8341299295425415
 20
0.2797771990299225
 30
0.36636441946029663
 11
0.8366588354110718
 21
0.27951306104660034
 31
0.36636441946029663
  0
LINE
  8
0
 10
0.8366588354110718
 20
0.27951306104660034
 30
0.36636441946029663
 11
0.8395708799362183
 21
0.2792088985443115
 31
0.36636441946029663
  0
LINE
  8
0
 10
0.8420997858047485
 20
0.2792088985443115
 30
0.36636441946029663
 11
0.8395708799362183
 21
0.2792088985443115
 31
0.36636441946029663
  0
LINE
  8
0
 10
0.8450118899345398
 20
0.2792088985443115
 30
0.36636441946029663
 11
0.8420997858047485
 21
0.2792088985443115
 31
0.36636441946029663
  0
LINE
  8
0
 10
0.8450118899345398
 20
0.2792088985443115
 30
0.36636441946029663
 11
0.8450118899345398
 21
0.29130738973617554
 31
0.36636441946029663
  0
LINE
  8
0
 10
0.8450118899345398
 20
0.29130738973617554
 30
0.36636441946029663
 11
0.8450118899345398
 21
0.3052389621734619
 31
0.36636441946029663
  0
LINE
  8
0
 10
0.8450118899345398
 20
0.3052389621734619
 30
0.36636441946029663
 11
0.8442603945732117
 21
0.3064250946044922
 31
0.36636441946029663
  0
LINE
  8
0
 10
0.8442603945732117
 20
0.3064250946044922
 30
0.36636441946029663
 11
0.8433950543403625
 21
0.30779099464416504
 31
0.36636441946029663
  0
LINE
  8
0
 10
0.8433950543403625
 20
0.30779099464416504
 30
0.36636441946029663
 11
0.842086672782898
 21
0.30896300077438354
 31
0.36636441946029663
  0
LINE
  8
0
 10
0.8405801057815552
 20
0.3103126287460327
 30
0.36636441946029663
 11
0.842086672782898
 21
0.30896300077438354
 31
0.36636441946029663
  0
LINE
  8
0
 10
0.837047815322876
 20
0.31028881669044495
 30
0.36636441946029663
 11
0.8405801057815552
 21
0.3103126287460327
 31
0.36636441946029663
  0
LINE
  8
0
 10
0.837047815322876
 20
0.31028881669044495
 30
0.36636441946029663
 11
0.8329802751541138
 21
0.31026139855384827
 31
0.36636441946029663
  0
LINE
  8
0
 10
0.832139253616333
 20
0.3097746968269348
 30
0.36636441946029663
 11
0.8329802751541138
 21
0.31026139855384827
 31
0.36636441946029663
  0
LINE
  8
0
 10
0.8311707973480225
 20
0.3092142343521118
 30
0.36636441946029663
 11
0.832139253616333
 21
0.3097746968269348
 31
0.36636441946029663
  0
LINE
  8
0
 10
0.8289077877998352
 20
0.30935174226760864
 30
0.36636441946029663
 11
0.8311707973480225
 21
0.3092142343521118
 31
0.36636441946029663
  0
LINE
  8
0
 10
0.8289077877998352
 20
0.30935174226760864
 30
0.36636441946029663
 11
0.8263018727302551
 21
0.30951008200645447
 31
0.36636441946029663
  0
LINE
  8
0
 10
0.8263018727302551
 20
0.30951008200645447
 30
0.36636441946029663
 11
0.8262890577316284
 21
0.312703013420105
 31
0.36636441946029663
  0
LINE
  8
0
 10
0.8262890577316284
 20
0.312703013420105
 30
0.36636441946029663
 11
0.8262779116630554
 21
0.31547582149505615
 31
0.36636441946029663
  0
LINE
  8
0
 10
0.8285520672798157
 20
0.3156147003173828
 30
0.36636441946029663
 11
0.8262779116630554
 21
0.31547582149505615
 31
0.36636441946029663
  0
LINE
  8
0
 10
0.8311707973480225
 20
0.3157746493816376
 30
0.36636441946029663
 11
0.8285520672798157
 21
0.3156147003173828
 31
0.36636441946029663
  0
LINE
  8
0
 10
0.8320118188858032
 20
0.31569498777389526
 30
0.36636441946029663
 11
0.8311707973480225
 21
0.3157746493816376
 31
0.36636441946029663
  0
LINE
  8
0
 10
0.8329802751541138
 20
0.3156032860279083
 30
0.36636441946029663
 11
0.8320118188858032
 21
0.31569498777389526
 31
0.36636441946029663
  0
LINE
  8
0
 10
0.8384883999824524
 20
0.3156876564025879
 30
0.36636441946029663
 11
0.8329802751541138
 21
0.3156032860279083
 31
0.36636441946029663
  0
LINE
  8
0
 10
0.8448309898376465
 20
0.3157848119735718
 30
0.36636441946029663
 11
0.8384883999824524
 21
0.3156876564025879
 31
0.36636441946029663
  0
LINE
  8
0
 10
0.8455196619033813
 20
0.3154386281967163
 30
0.36636441946029663
 11
0.8448309898376465
 21
0.3157848119735718
 31
0.36636441946029663
  0
LINE
  8
0
 10
0.8463126420974731
 20
0.3150399923324585
 30
0.36636441946029663
 11
0.8455196619033813
 21
0.3154386281967163
 31
0.36636441946029663
  0
LINE
  8
0
 10
0.8472055196762085
 20
0.3145093619823456
 30
0.36636441946029663
 11
0.8463126420974731
 21
0.3150399923324585
 31
0.36636441946029663
  0
LINE
  8
0
 10
0.8472055196762085
 20
0.3145093619823456
 30
0.36636441946029663
 11
0.8479809761047363
 21
0.31404852867126465
 31
0.36636441946029663
  0
LINE
  8
0
 10
0.8487564921379089
 20
0.3134134113788605
 30
0.36636441946029663
 11
0.8479809761047363
 21
0.31404852867126465
 31
0.36636441946029663
  0
LINE
  8
0
 10
0.8494299650192261
 20
0.3128618597984314
 30
0.36636441946029663
 11
0.8487564921379089
 21
0.3134134113788605
 31
0.36636441946029663
  0
LINE
  8
0
 10
0.8500880599021912
 20
0.31212225556373596
 30
0.36636441946029663
 11
0.8494299650192261
 21
0.3128618597984314
 31
0.36636441946029663
  0
LINE
  8
0
 10
0.8506595492362976
 20
0.31147998571395874
 30
0.36636441946029663
 11
0.8500880599021912
 21
0.31212225556373596
 31
0.36636441946029663
  0
LINE
  8
0
 10
0.8512002229690552
 20
0.31063589453697205
 30
0.36636441946029663
 11
0.8506595492362976
 21
0.31147998571395874
 31
0.36636441946029663
  0
LINE
  8
0
 10
0.8590421080589294
 20
0.31576937437057495
 30
0.36636441946029663
 11
0.8642532229423523
 21
0.31576937437057495
 31
0.36636441946029663
  0
LINE
  8
0
 10
0.868778645992279
 20
0.31576937437057495
 30
0.36636441946029663
 11
0.8642532229423523
 21
0.31576937437057495
 31
0.36636441946029663
  0
LINE
  8
0
 10
0.8733445405960083
 20
0.3019307255744934
 30
0.36636441946029663
 11
0.868778645992279
 21
0.31576937437057495
 31
0.36636441946029663
  0
LINE
  8
0
 10
0.8786022067070007
 20
0.28599536418914795
 30
0.36636441946029663
 11
0.8733445405960083
 21
0.3019307255744934
 31
0.36636441946029663
  0
LINE
  8
0
 10
0.8840630054473877
 20
0.29983240365982056
 30
0.36636441946029663
 11
0.8786022067070007
 21
0.28599536418914795
 31
0.36636441946029663
  0
LINE
  8
0
 10
0.8840630054473877
 20
0.29983240365982056
 30
0.36636441946029663
 11
0.8903511762619019
 21
0.3157658874988556
 31
0.36636441946029663
  0
LINE
  8
0
 10
0.8943643569946289
 20
0.31576547026634216
 30
0.36636441946029663
 11
0.8903511762619019
 21
0.3157658874988556
 31
0.36636441946029663
  0
LINE
  8
0
 10
0.9044016003608704
 20
0.32198426127433777
 30
0.36636441946029663
 11
0.9046734571456909
 21
0.3233848810195923
 31
0.36636441946029663
  0
LINE
  8
0
 10
0.906643271446228
 20
0.32522788643836975
 30
0.36636441946029663
 11
0.9046734571456909
 21
0.3233848810195923
 31
0.36636441946029663
  0
LINE
  8
0
 10
0.906643271446228
 20
0.32522788643836975
 30
0.36636441946029663
 11
0.9089115858078003
 21
0.32735010981559753
 31
0.36636441946029663
  0
LINE
  8
0
 10
0.9137811660766602
 20
0.3282541334629059
 30
0.36636441946029663
 11
0.9089115858078003
 21
0.32735010981559753
 31
0.36636441946029663
  0
LINE
  8
0
 10
0.9180100560188293
 20
0.32903918623924255
 30
0.36636441946029663
 11
0.9137811660766602
 21
0.3282541334629059
 31
0.36636441946029663
  0
LINE
  8
0
 10
0.9246184229850769
 20
0.32903918623924255
 30
0.36636441946029663
 11
0.9180100560188293
 21
0.32903918623924255
 31
0.36636441946029663
  0
LINE
  8
0
 10
0.9303572773933411
 20
0.32903918623924255
 30
0.36636441946029663
 11
0.9246184229850769
 21
0.32903918623924255
 31
0.36636441946029663
  0
LINE
  8
0
 10
0.9303572773933411
 20
0.32654160261154175
 30
0.36636441946029663
 11
0.9303572773933411
 21
0.32903918623924255
 31
0.36636441946029663
  0
LINE
  8
0
 10
0.9303572773933411
 20
0.32654160261154175
 30
0.36636441946029663
 11
0.9303572773933411
 21
0.323665589094162
 31
0.36636441946029663
  0
LINE
  8
0
 10
0.9303572773933411
 20
0.323665589094162
 30
0.36636441946029663
 11
0.9237489104270935
 21
0.323665589094162
 31
0.36636441946029663
  0
LINE
  8
0
 10
0.9237489104270935
 20
0.323665589094162
 30
0.36636441946029663
 11
0.9180100560188293
 21
0.323665589094162
 31
0.36636441946029663
  0
LINE
  8
0
 10
0.9165540337562561
 20
0.32300320267677307
 30
0.36636441946029663
 11
0.9180100560188293
 21
0.323665589094162
 31
0.36636441946029663
  0
LINE
  8
0
 10
0.9165540337562561
 20
0.32300320267677307
 30
0.36636441946029663
 11
0.915289580821991
 21
0.3224279582500458
 31
0.36636441946029663
  0
LINE
  8
0
 10
0.915289580821991
 20
0.3224279582500458
 30
0.36636441946029663
 11
0.9140251278877258
 21
0.3215220272541046
 31
0.36636441946029663
  0
LINE
  8
0
 10
0.9140251278877258
 20
0.3215220272541046
 30
0.36636441946029663
 11
0.9125691056251526
 21
0.3204788565635681
 31
0.36636441946029663
  0
LINE
  8
0
 10
0.9125691056251526
 20
0.3204788565635681
 30
0.36636441946029663
 11
0.9120254516601562
 21
0.3178098201751709
 31
0.36636441946029663
  0
LINE
  8
0
 10
0.9120254516601562
 20
0.3178098201751709
 30
0.36636441946029663
 11
0.9113994836807251
 21
0.31473639607429504
 31
0.36636441946029663
  0
LINE
  8
0
 10
0.9119458198547363
 20
0.31238600611686707
 30
0.36636441946029663
 11
0.9113994836807251
 21
0.31473639607429504
 31
0.36636441946029663
  0
LINE
  8
0
 10
0.9119458198547363
 20
0.31238600611686707
 30
0.36636441946029663
 11
0.9125749468803406
 21
0.3096795082092285
 31
0.36636441946029663
  0
LINE
  8
0
 10
0.9134777188301086
 20
0.30855944752693176
 30
0.36636441946029663
 11
0.9125749468803406
 21
0.3096795082092285
 31
0.36636441946029663
  0
LINE
  8
0
 10
0.9145172238349915
 20
0.30726972222328186
 30
0.36636441946029663
 11
0.9134777188301086
 21
0.30855944752693176
 31
0.36636441946029663
  0
LINE
  8
0
 10
0.9145172238349915
 20
0.30726972222328186
 30
0.36636441946029663
 11
0.9166005849838257
 21
0.3066785931587219
 31
0.36636441946029663
  0
LINE
  8
0
 10
0.9166005849838257
 20
0.3066785931587219
 30
0.36636441946029663
 11
0.9189994931221008
 21
0.3059978783130646
 31
0.36636441946029663
  0
LINE
  8
0
 10
0.9189994931221008
 20
0.3059978783130646
 30
0.36636441946029663
 11
0.9223027229309082
 21
0.3056788742542267
 31
0.36636441946029663
  0
LINE
  8
0
 10
0.9261063933372498
 20
0.30531153082847595
 30
0.36636441946029663
 11
0.9223027229309082
 21
0.3056788742542267
 31
0.36636441946029663
  0
LINE
  8
0
 10
0.9280794858932495
 20
0.30442771315574646
 30
0.36636441946029663
 11
0.9261063933372498
 21
0.30531153082847595
 31
0.36636441946029663
  0
LINE
  8
0
 10
0.9303514957427979
 20
0.30340999364852905
 30
0.36636441946029663
 11
0.9280794858932495
 21
0.30442771315574646
 31
0.36636441946029663
  0
LINE
  8
0
 10
0.9316651821136475
 20
0.3017617464065552
 30
0.36636441946029663
 11
0.9303514957427979
 21
0.30340999364852905
 31
0.36636441946029663
  0
LINE
  8
0
 10
0.9331778883934021
 20
0.2998637855052948
 30
0.36636441946029663
 11
0.9316651821136475
 21
0.3017617464065552
 31
0.36636441946029663
  0
LINE
  8
0
 10
0.9335465431213379
 20
0.29541200399398804
 30
0.36636441946029663
 11
0.9331778883934021
 21
0.2998637855052948
 31
0.36636441946029663
  0
LINE
  8
0
 10
0.9435122609138489
 20
0.29592588543891907
 30
0.36636441946029663
 11
0.9435122609138489
 21
0.3104020655155182
 31
0.36636441946029663
  0
LINE
  8
0
 10
0.9435122609138489
 20
0.3129769265651703
 30
0.36636441946029663
 11
0.9435122609138489
 21
0.3104020655155182
 31
0.36636441946029663
  0
LINE
  8
0
 10
0.9435122609138489
 20
0.3159419298171997
 30
0.36636441946029663
 11
0.9435122609138489
 21
0.3129769265651703
 31
0.36636441946029663
  0
LINE
  8
0
 10
0.9435122609138489
 20
0.3159419298171997
 30
0.36636441946029663
 11
0.9435122609138489
 21
0.3197285234928131
 31
0.36636441946029663
  0
LINE
  8
0
 10
0.9435122609138489
 20
0.3197285234928131
 30
0.36636441946029663
 11
0.9435122609138489
 21
0.32408881187438965
 31
0.36636441946029663
  0
LINE
  8
0
 10
0.9484025835990906
 20
0.32408881187438965
 30
0.36636441946029663
 11
0.9435122609138489
 21
0.32408881187438965
 31
0.36636441946029663
  0
LINE
  8
0
 10
0.9526494741439819
 20
0.32408881187438965
 30
0.36636441946029663
 11
0.9484025835990906
 21
0.32408881187438965
 31
0.36636441946029663
  0
LINE
  8
0
 10
0.9526494741439819
 20
0.32408881187438965
 30
0.36636441946029663
 11
0.9526494741439819
 21
0.32030221819877625
 31
0.36636441946029663
  0
LINE
  8
0
 10
0.9526494741439819
 20
0.3159419298171997
 30
0.36636441946029663
 11
0.9526494741439819
 21
0.32030221819877625
 31
0.36636441946029663
  0
LINE
  8
0
 10
0.9526494741439819
 20
0.3159419298171997
 30
0.36636441946029663
 11
0.9576059579849243
 21
0.3159419298171997
 31
0.36636441946029663
  0
LINE
  8
0
 10
0.9633133411407471
 20
0.3159419298171997
 30
0.36636441946029663
 11
0.9576059579849243
 21
0.3159419298171997
 31
0.36636441946029663
  0
LINE
  8
0
 10
0.9633133411407471
 20
0.3133670389652252
 30
0.36636441946029663
 11
0.9633133411407471
 21
0.3159419298171997
 31
0.36636441946029663
  0
LINE
  8
0
 10
0.9633133411407471
 20
0.3104020655155182
 30
0.36636441946029663
 11
0.9633133411407471
 21
0.3133670389652252
 31
0.36636441946029663
  0
LINE
  8
0
 10
0.9633133411407471
 20
0.3104020655155182
 30
0.36636441946029663
 11
0.9583569169044495
 21
0.3104020655155182
 31
0.36636441946029663
  0
LINE
  8
0
 10
0.9583569169044495
 20
0.3104020655155182
 30
0.36636441946029663
 11
0.9526494741439819
 21
0.3104020655155182
 31
0.36636441946029663
  0
LINE
  8
0
 10
0.9526494741439819
 20
0.29783061146736145
 30
0.36636441946029663
 11
0.9526494741439819
 21
0.3104020655155182
 31
0.36636441946029663
  0
LINE
  8
0
 10
0.9526494741439819
 20
0.2833544611930847
 30
0.36636441946029663
 11
0.9526494741439819
 21
0.29783061146736145
 31
0.36636441946029663
  0
LINE
  8
0
 10
0.9526494741439819
 20
0.2833544611930847
 30
0.36636441946029663
 11
0.95345538854599
 21
0.2814570665359497
 31
0.36636441946029663
  0
LINE
  8
0
 10
0.95345538854599
 20
0.2814570665359497
 30
0.36636441946029663
 11
0.9541552662849426
 21
0.27980929613113403
 31
0.36636441946029663
  0
LINE
  8
0
 10
0.9553564786911011
 20
0.27923130989074707
 30
0.36636441946029663
 11
0.9541552662849426
 21
0.27980929613113403
 31
0.36636441946029663
  0
LINE
  8
0
 10
0.9338666796684265
 20
0.29154592752456665
 30
0.36636441946029663
 11
0.9335465431213379
 21
0.29541200399398804
 31
0.36636441946029663
  0
LINE
  8
0
 10
0.9338666796684265
 20
0.29154592752456665
 30
0.36636441946029663
 11
0.9336845278739929
 21
0.28767985105514526
 31
0.36636441946029663
  0
LINE
  8
0
 10
0.9334747791290283
 20
0.2832280695438385
 30
0.36636441946029663
 11
0.9336845278739929
 21
0.28767985105514526
 31
0.36636441946029663
  0
LINE
  8
0
 10
0.9435122609138489
 20
0.2833544611930847
 30
0.36636441946029663
 11
0.9435122609138489
 21
0.29592588543891907
 31
0.36636441946029663
  0
LINE
  8
0
 10
0.9037683010101318
 20
0.3187211751937866
 30
0.36636441946029663
 11
0.902982234954834
 21
0.3146710991859436
 31
0.36636441946029663
  0
LINE
  8
0
 10
0.9044016003608704
 20
0.32198426127433777
 30
0.36636441946029663
 11
0.9037683010101318
 21
0.3187211751937866
 31
0.36636441946029663
  0
LINE
  8
0
 10
0.8989856243133545
 20
0.3157649636268616
 30
0.36636441946029663
 11
0.8943643569946289
 21
0.31576547026634216
 31
0.36636441946029663
  0
LINE
  8
0
 10
0.7615824341773987
 20
0.32849109172821045
 30
0.36636441946029663
 11
0.7615824341773987
 21
0.3258829116821289
 31
0.36636441946029663
  0
LINE
  8
0
 10
0.7449502348899841
 20
0.2442511022090912
 30
0.36636441946029663
 11
0.7449036836624146
 21
0.3594684302806854
 31
0.36636441946029663
  0
LINE
  8
0
 10
0.7615824341773987
 20
0.27304115891456604
 30
0.36636441946029663
 11
0.7615824341773987
 21
0.2965487241744995
 31
0.36636441946029663
  0
LINE
  8
0
 10
0.7615824341773987
 20
0.2965487241744995
 30
0.36636441946029663
 11
0.7615824341773987
 21
0.3236179053783417
 31
0.36636441946029663
  0
LINE
  8
0
 10
0.7615824341773987
 20
0.3258829116821289
 30
0.36636441946029663
 11
0.7615824341773987
 21
0.3236179053783417
 31
0.36636441946029663
  0
LINE
  8
0
 10
0.8516697287559509
 20
0.3099028766155243
 30
0.36636441946029663
 11
0.8512002229690552
 21
0.31063589453697205
 31
0.36636441946029663
  0
LINE
  8
0
 10
0.8520929217338562
 20
0.3089543282985687
 30
0.36636441946029663
 11
0.8516697287559509
 21
0.3099028766155243
 31
0.36636441946029663
  0
LINE
  8
0
 10
0.852460503578186
 20
0.30813056230545044
 30
0.36636441946029663
 11
0.8520929217338562
 21
0.3089543282985687
 31
0.36636441946029663
  0
LINE
  8
0
 10
0.8529499769210815
 20
0.30678656697273254
 30
0.36636441946029663
 11
0.852460503578186
 21
0.30813056230545044
 31
0.36636441946029663
  0
LINE
  8
0
 10
0.8535136580467224
 20
0.3052389323711395
 30
0.36636441946029663
 11
0.8529499769210815
 21
0.30678656697273254
 31
0.36636441946029663
  0
LINE
  8
0
 10
0.8535136580467224
 20
0.3052389323711395
 30
0.36636441946029663
 11
0.8535136580467224
 21
0.2931404411792755
 31
0.36636441946029663
  0
LINE
  8
0
 10
0.8659500479698181
 20
0.2968040406703949
 30
0.36636441946029663
 11
0.8590421080589294
 21
0.31576937437057495
 31
0.36636441946029663
  0
LINE
  8
0
 10
0.7949771285057068
 20
0.30216383934020996
 30
0.36636441946029663
 11
0.7952736616134644
 21
0.30316653847694397
 31
0.36636441946029663
  0
LINE
  8
0
 10
0.8024047017097473
 20
0.29894179105758667
 30
0.36636441946029663
 11
0.8024047017097473
 21
0.3287666141986847
 31
0.36636441946029663
  0
LINE
  8
0
 10
0.7944997549057007
 20
0.3219471871852875
 30
0.36636441946029663
 11
0.7935400605201721
 21
0.3243882954120636
 31
0.36636441946029663
  0
LINE
  8
0
 10
0.7944997549057007
 20
0.3219471871852875
 30
0.36636441946029663
 11
0.7956048250198364
 21
0.31913623213768005
 31
0.36636441946029663
  0
LINE
  8
0
 10
0.7955653667449951
 20
0.31105512380599976
 30
0.36636441946029663
 11
0.7956048250198364
 21
0.31913623213768005
 31
0.36636441946029663
  0
LINE
  8
0
 10
0.795531153678894
 20
0.30403730273246765
 30
0.36636441946029663
 11
0.7955653667449951
 21
0.31105512380599976
 31
0.36636441946029663
  0
LINE
  8
0
 10
0.7952736616134644
 20
0.30316653847694397
 30
0.36636441946029663
 11
0.795531153678894
 21
0.30403730273246765
 31
0.36636441946029663
  0
LINE
  8
0
 10
0.9993591904640198
 20
0.2792088985443115
 30
0.36636441946029663
 11
0.9993591904640198
 21
0.2931404411792755
 31
0.36636441946029663
  0
LINE
  8
0
 10
1.0095429420471191
 20
0.2822625935077667
 30
0.36636441946029663
 11
1.0095762014389038
 21
0.28131434321403503
 31
0.36636441946029663
  0
LINE
  8
0
 10
1.0095429420471191
 20
0.2822625935077667
 30
0.36636441946029663
 11
1.0095046758651733
 21
0.2833544611930847
 31
0.36636441946029663
  0
LINE
  8
0
 10
1.0095046758651733
 20
0.2833544611930847
 30
0.36636441946029663
 11
1.0095046758651733
 21
0.29592588543891907
 31
0.36636441946029663
  0
LINE
  8
0
 10
1.0095046758651733
 20
0.2972836196422577
 30
0.36636441946029663
 11
1.0095046758651733
 21
0.29592588543891907
 31
0.36636441946029663
  0
LINE
  8
0
 10
0.9993591904640198
 20
0.29966795444488525
 30
0.36636441946029663
 11
0.9993591904640198
 21
0.2931404411792755
 31
0.36636441946029663
  0
LINE
  8
0
 10
0.8121412992477417
 20
0.27304115891456604
 30
0.36636441946029663
 11
0.8121412992477417
 21
0.30286604166030884
 31
0.36636441946029663
  0
LINE
  8
0
 10
0.8211978077888489
 20
0.2839827835559845
 30
0.36636441946029663
 11
0.8216187357902527
 21
0.28105679154396057
 31
0.36636441946029663
  0
LINE
  8
0
 10
0.8211978077888489
 20
0.2839827835559845
 30
0.36636441946029663
 11
0.8207131028175354
 21
0.2873520851135254
 31
0.36636441946029663
  0
LINE
  8
0
 10
0.8212916851043701
 20
0.290545254945755
 30
0.36636441946029663
 11
0.8207131028175354
 21
0.2873520851135254
 31
0.36636441946029663
  0
LINE
  8
0
 10
0.8212916851043701
 20
0.290545254945755
 30
0.36636441946029663
 11
0.8219579458236694
 21
0.29422223567962646
 31
0.36636441946029663
  0
ENDSEC
  0
EOF
