  0
SECTION
  2
HEADER
  9
$ACADVER
  1
AC1009
  9
$INSBASE
 10
0.0
 20
0.0
 30
0.0
  9
$EXTMIN
 10
0.0
 20
0.0
 30
0.0
  9
$EXTMAX
 10
0.0
 20
0.0
 30
0.0
  0
ENDSEC
  0
SECTION
  2
TABLES
  0
TABLE
  2
VPORT
 70
1
  0
VPORT
  2
*ACTIVE
 70
0
 10
0.0
 20
0.0
 11
1.0
 21
1.0
 12
-5.0
 22
1.0
 13
0.0
 23
0.0
 14
0.1
 24
0.1
 15
0.1
 25
0.1
 16
0.0
 26
0.0
 36
1.0
 17
0.0
 27
0.0
 37
0.0
 40
10.0
 41
1.0
 42
50.0
 43
0.0
 44
0.0
 50
0.0
 51
0.0
 71
0
 72
100
 73
1
 74
1
 75
0
 76
0
 77
0
 78
0
  0
ENDTAB
  0
TABLE
  2
LTYPE
 70
8
  0
LTYPE
  2
CONTINUOUS
 70
0
  3
Solid line
 72
65
 73
0
 40
0.0
  0
LTYPE
  2
DOT
 70
0
  3
. . . . . . .
 72
65
 73
2
 40
0.25
 49
0.0
 49
-0.25
  0
LTYPE
  2
DASHED
 70
0
  3
__ __ __ __ __
 72
65
 73
2
 40
0.8
 49
0.5
 49
-0.3
  0
LTYPE
  2
DASHDOT
 70
0
  3
__ . __ . __ .
 72
65
 73
4
 40
1.0
 49
0.5
 49
-0.25
 49
0.0
 49
-0.25
  0
LTYPE
  2
DIVIDE
 70
0
  3
____ . . ____ . . 
 72
65
 73
6
 40
1.25
 49
0.5
 49
-0.25
 49
0.0
 49
-0.25
 49
0.0
 49
-0.25
  0
LTYPE
  2
BORDER
 70
0
  3
__ __ . __ __ . 
 72
65
 73
6
 40
1.75
 49
0.5
 49
-0.25
 49
0.5
 49
-0.25
 49
0.0
 49
-0.25
  0
LTYPE
  2
HIDDEN
 70
0
  3
__ __ __ __ __
 72
65
 73
2
 40
0.4
 49
0.25
 49
-0.25
  0
LTYPE
  2
CENTER
 70
0
  3
____ _ ____ _ __
 72
65
 73
4
 40
2.0
 49
1.25
 49
-0.25
 49
0.25
 49
-0.25
  0
ENDTAB
  0
TABLE
  2
LAYER
 70
1
  0
LAYER
  2
PYDXF
 70
64
 62
7
  6
continuous
  0
ENDTAB
  0
TABLE
  2
STYLE
 70
1
  0
STYLE
  2
STANDARD
 70
0
 40
0
 41
1.0
 50
0.0
 71
0
 42
1
 3
ARIAL.TTF
 4

  0
ENDTAB
  0
TABLE
  2
VIEW
 70
1
  0
VIEW
  2
BF_TOPVIEW
 70
0
 40
120.0
 10
0.0
 20
0.0
 41
200.0
 11
0.0
 21
0.0
 31
1.0
 12
0.0
 22
0.0
 32
0.0
 42
50.0
 43
0.0
 44
0.0
 50
0.0
 71
0
  0
ENDTAB
  0
ENDSEC
  0
SECTION
  2
BLOCKS
  0
ENDSEC
  0
SECTION
  2
ENTITIES
  0
LINE
  8
0
 10
0.1256677210330963
 20
0.40389373898506165
 30
0.2577177882194519
 11
0.5752216577529907
 21
0.40389373898506165
 31
0.2577177882194519
  0
LINE
  8
0
 10
0.10521025210618973
 20
0.7346667647361755
 30
0.2577177882194519
 11
0.10521023720502853
 21
0.32470524311065674
 31
0.2577177882194519
  0
LINE
  8
0
 10
0.10521025210618973
 20
0.7346667647361755
 30
0.2577177882194519
 11
0.5962099432945251
 21
0.7346667051315308
 31
0.2577177882194519
  0
LINE
  8
0
 10
0.10521023720502853
 20
0.32470524311065674
 30
0.2577177882194519
 11
0.5962099432945251
 21
0.32470521330833435
 31
0.2577177882194519
  0
LINE
  8
0
 10
0.10521025210618973
 20
0.7346667647361755
 30
0.2577177882194519
 11
0.10521025210618973
 21
0.7346667647361755
 31
0.2487177848815918
  0
LINE
  8
0
 10
0.10521025210618973
 20
0.7346667647361755
 30
0.2487177848815918
 11
0.10521023720502853
 21
0.32470524311065674
 31
0.2487177848815918
  0
LINE
  8
0
 10
0.10521025210618973
 20
0.7346667647361755
 30
0.2487177848815918
 11
0.5962099432945251
 21
0.7346667051315308
 31
0.2487177848815918
  0
LINE
  8
0
 10
0.10521023720502853
 20
0.32470524311065674
 30
0.2487177848815918
 11
0.5962099432945251
 21
0.32470521330833435
 31
0.2487177848815918
  0
LINE
  8
0
 10
0.5752216577529907
 20
0.654170572757721
 30
0.2577177882194519
 11
0.5752216577529907
 21
0.40389373898506165
 31
0.2577177882194519
  0
LINE
  8
0
 10
0.10521023720502853
 20
0.32470524311065674
 30
0.2577177882194519
 11
0.1256677210330963
 21
0.40389373898506165
 31
0.2577177882194519
  0
LINE
  8
0
 10
0.1256677210330963
 20
0.6541706323623657
 30
0.2577177882194519
 11
0.5752216577529907
 21
0.654170572757721
 31
0.2577177882194519
  0
LINE
  8
0
 10
0.5962099432945251
 20
0.32470521330833435
 30
0.2577177882194519
 11
0.5752216577529907
 21
0.40389373898506165
 31
0.2577177882194519
  0
LINE
  8
0
 10
0.5962099432945251
 20
0.32470521330833435
 30
0.2487177848815918
 11
0.5752216577529907
 21
0.40388593077659607
 31
0.2487177848815918
  0
LINE
  8
0
 10
0.5752216577529907
 20
0.40388593077659607
 30
0.2487177848815918
 11
0.5752216577529907
 21
0.6541628241539001
 31
0.2487177848815918
  0
LINE
  8
0
 10
0.5752216577529907
 20
0.6541628241539001
 30
0.2487177848815918
 11
0.1256677210330963
 21
0.6541628241539001
 31
0.2487177848815918
  0
LINE
  8
0
 10
0.5752216577529907
 20
0.40388593077659607
 30
0.2487177848815918
 11
0.1256677210330963
 21
0.40388596057891846
 31
0.2487177848815918
  0
LINE
  8
0
 10
0.5752216577529907
 20
0.654170572757721
 30
0.2577177882194519
 11
0.5752216577529907
 21
0.6541628241539001
 31
0.2487177848815918
  0
LINE
  8
0
 10
0.5962099432945251
 20
0.7346667051315308
 30
0.2487177848815918
 11
0.5962099432945251
 21
0.32470521330833435
 31
0.2487177848815918
  0
LINE
  8
0
 10
0.5752216577529907
 20
0.40389373898506165
 30
0.2577177882194519
 11
0.5752216577529907
 21
0.40388593077659607
 31
0.2487177848815918
  0
LINE
  8
0
 10
0.5962099432945251
 20
0.7346667051315308
 30
0.2577177882194519
 11
0.5962099432945251
 21
0.32470521330833435
 31
0.2577177882194519
  0
LINE
  8
0
 10
0.10521023720502853
 20
0.32470524311065674
 30
0.2577177882194519
 11
0.10521023720502853
 21
0.32470524311065674
 31
0.2487177848815918
  0
LINE
  8
0
 10
0.1256677210330963
 20
0.6541706323623657
 30
0.2577177882194519
 11
0.1256677210330963
 21
0.6541628241539001
 31
0.2487177848815918
  0
LINE
  8
0
 10
0.1256677210330963
 20
0.40389373898506165
 30
0.2577177882194519
 11
0.1256677210330963
 21
0.40388596057891846
 31
0.2487177848815918
  0
LINE
  8
0
 10
0.5962099432945251
 20
0.32470521330833435
 30
0.2577177882194519
 11
0.5962099432945251
 21
0.32470521330833435
 31
0.2487177848815918
  0
LINE
  8
0
 10
0.1256677210330963
 20
0.6541706323623657
 30
0.2577177882194519
 11
0.1256677210330963
 21
0.40389373898506165
 31
0.2577177882194519
  0
LINE
  8
0
 10
0.5962099432945251
 20
0.7346667051315308
 30
0.2577177882194519
 11
0.5962099432945251
 21
0.7346667051315308
 31
0.2487177848815918
  0
LINE
  8
0
 10
0.10521023720502853
 20
0.32470524311065674
 30
0.2487177848815918
 11
0.1256677210330963
 21
0.40388596057891846
 31
0.2487177848815918
  0
LINE
  8
0
 10
0.1256677210330963
 20
0.6541628241539001
 30
0.2487177848815918
 11
0.1256677210330963
 21
0.40388596057891846
 31
0.2487177848815918
  0
LINE
  8
0
 10
0.08842412382364273
 20
0.29858753085136414
 30
0.10140661895275116
 11
0.5974650979042053
 21
0.29858750104904175
 31
0.10140661895275116
  0
LINE
  8
0
 10
0.08842412382364273
 20
0.29858753085136414
 30
0.10140661895275116
 11
0.08842410892248154
 21
-0.1258377879858017
 31
0.10140661895275116
  0
LINE
  8
0
 10
0.08842410892248154
 20
-0.1258377879858017
 30
0.10140661895275116
 11
0.5974650382995605
 21
-0.1258378028869629
 31
0.10140661895275116
  0
LINE
  8
0
 10
0.5974650979042053
 20
0.29858750104904175
 30
0.10140661895275116
 11
0.5974650382995605
 21
-0.1258378028869629
 31
0.10140661895275116
  0
LINE
  8
0
 10
0.08842412382364273
 20
0.29858753085136414
 30
0.09240661561489105
 11
0.5974650979042053
 21
0.29858750104904175
 31
0.09240661561489105
  0
LINE
  8
0
 10
0.08842412382364273
 20
0.29858753085136414
 30
0.09240661561489105
 11
0.08842410892248154
 21
-0.1258377879858017
 31
0.09240661561489105
  0
LINE
  8
0
 10
0.08842410892248154
 20
-0.1258377879858017
 30
0.09240661561489105
 11
0.5974650382995605
 21
-0.1258378028869629
 31
0.09240661561489105
  0
LINE
  8
0
 10
0.5974650979042053
 20
0.29858750104904175
 30
0.09240661561489105
 11
0.5974650382995605
 21
-0.1258378028869629
 31
0.09240661561489105
  0
LINE
  8
0
 10
0.08842412382364273
 20
0.29858753085136414
 30
0.10140661895275116
 11
0.08842412382364273
 21
0.29858753085136414
 31
0.09240661561489105
  0
LINE
  8
0
 10
0.08842410892248154
 20
-0.1258377879858017
 30
0.10140661895275116
 11
0.08842410892248154
 21
-0.1258377879858017
 31
0.09240661561489105
  0
LINE
  8
0
 10
0.5974650979042053
 20
0.29858750104904175
 30
0.10140661895275116
 11
0.5974650979042053
 21
0.29858750104904175
 31
0.09240661561489105
  0
LINE
  8
0
 10
0.5974650382995605
 20
-0.1258378028869629
 30
0.10140661895275116
 11
0.5974650382995605
 21
-0.1258378028869629
 31
0.09240661561489105
  0
ENDSEC
  0
EOF
