  0
SECTION
  2
HEADER
  9
$ACADVER
  1
AC1009
  9
$INSBASE
 10
0.0
 20
0.0
 30
0.0
  9
$EXTMIN
 10
0.0
 20
0.0
 30
0.0
  9
$EXTMAX
 10
0.0
 20
0.0
 30
0.0
  0
ENDSEC
  0
SECTION
  2
TABLES
  0
TABLE
  2
VPORT
 70
1
  0
VPORT
  2
*ACTIVE
 70
0
 10
0.0
 20
0.0
 11
1.0
 21
1.0
 12
-5.0
 22
1.0
 13
0.0
 23
0.0
 14
0.1
 24
0.1
 15
0.1
 25
0.1
 16
0.0
 26
0.0
 36
1.0
 17
0.0
 27
0.0
 37
0.0
 40
10.0
 41
1.0
 42
50.0
 43
0.0
 44
0.0
 50
0.0
 51
0.0
 71
0
 72
100
 73
1
 74
1
 75
0
 76
0
 77
0
 78
0
  0
ENDTAB
  0
TABLE
  2
LTYPE
 70
8
  0
LTYPE
  2
CONTINUOUS
 70
0
  3
Solid line
 72
65
 73
0
 40
0.0
  0
LTYPE
  2
DOT
 70
0
  3
. . . . . . .
 72
65
 73
2
 40
0.25
 49
0.0
 49
-0.25
  0
LTYPE
  2
DASHED
 70
0
  3
__ __ __ __ __
 72
65
 73
2
 40
0.8
 49
0.5
 49
-0.3
  0
LTYPE
  2
DASHDOT
 70
0
  3
__ . __ . __ .
 72
65
 73
4
 40
1.0
 49
0.5
 49
-0.25
 49
0.0
 49
-0.25
  0
LTYPE
  2
DIVIDE
 70
0
  3
____ . . ____ . . 
 72
65
 73
6
 40
1.25
 49
0.5
 49
-0.25
 49
0.0
 49
-0.25
 49
0.0
 49
-0.25
  0
LTYPE
  2
BORDER
 70
0
  3
__ __ . __ __ . 
 72
65
 73
6
 40
1.75
 49
0.5
 49
-0.25
 49
0.5
 49
-0.25
 49
0.0
 49
-0.25
  0
LTYPE
  2
HIDDEN
 70
0
  3
__ __ __ __ __
 72
65
 73
2
 40
0.4
 49
0.25
 49
-0.25
  0
LTYPE
  2
CENTER
 70
0
  3
____ _ ____ _ __
 72
65
 73
4
 40
2.0
 49
1.25
 49
-0.25
 49
0.25
 49
-0.25
  0
ENDTAB
  0
TABLE
  2
LAYER
 70
1
  0
LAYER
  2
PYDXF
 70
64
 62
7
  6
continuous
  0
ENDTAB
  0
TABLE
  2
STYLE
 70
1
  0
STYLE
  2
STANDARD
 70
0
 40
0
 41
1.0
 50
0.0
 71
0
 42
1
 3
ARIAL.TTF
 4

  0
ENDTAB
  0
TABLE
  2
VIEW
 70
1
  0
VIEW
  2
BF_TOPVIEW
 70
0
 40
120.0
 10
0.0
 20
0.0
 41
200.0
 11
0.0
 21
0.0
 31
1.0
 12
0.0
 22
0.0
 32
0.0
 42
50.0
 43
0.0
 44
0.0
 50
0.0
 71
0
  0
ENDTAB
  0
ENDSEC
  0
SECTION
  2
BLOCKS
  0
ENDSEC
  0
SECTION
  2
ENTITIES
  0
LINE
  8
0
 10
-0.7747307419776917
 20
0.25762563943862915
 30
0.5699858665466309
 11
-0.7747307419776917
 21
0.7486199736595154
 31
0.5699858665466309
  0
LINE
  8
0
 10
-0.7747307419776917
 20
0.25762563943862915
 30
0.5699858665466309
 11
-0.6208296418190002
 21
0.25762563943862915
 31
0.5699858665466309
  0
LINE
  8
0
 10
-0.6208296418190002
 20
0.25762563943862915
 30
0.5699858665466309
 11
-0.6208296418190002
 21
0.7486199736595154
 31
0.5699858665466309
  0
LINE
  8
0
 10
-0.7747307419776917
 20
0.7486199736595154
 30
0.5699858665466309
 11
-0.6208296418190002
 21
0.7486199736595154
 31
0.5699858665466309
  0
LINE
  8
0
 10
-0.7747307419776917
 20
0.25762563943862915
 30
0.5609859228134155
 11
-0.7747307419776917
 21
0.7486199736595154
 31
0.5609859228134155
  0
LINE
  8
0
 10
-0.7747307419776917
 20
0.25762563943862915
 30
0.5609859228134155
 11
-0.6208296418190002
 21
0.25762563943862915
 31
0.5609859228134155
  0
LINE
  8
0
 10
-0.6208296418190002
 20
0.25762563943862915
 30
0.5609859228134155
 11
-0.6208296418190002
 21
0.7486199736595154
 31
0.5609859228134155
  0
LINE
  8
0
 10
-0.7747307419776917
 20
0.7486199736595154
 30
0.5609859228134155
 11
-0.6208296418190002
 21
0.7486199736595154
 31
0.5609859228134155
  0
LINE
  8
0
 10
-0.7747307419776917
 20
0.25762563943862915
 30
0.5699858665466309
 11
-0.7747307419776917
 21
0.25762563943862915
 31
0.5609859228134155
  0
LINE
  8
0
 10
-0.6208296418190002
 20
0.25762563943862915
 30
0.5699858665466309
 11
-0.6208296418190002
 21
0.25762563943862915
 31
0.5609859228134155
  0
LINE
  8
0
 10
-0.7747307419776917
 20
0.7486199736595154
 30
0.5699858665466309
 11
-0.7747307419776917
 21
0.7486199736595154
 31
0.5609859228134155
  0
LINE
  8
0
 10
-0.6208296418190002
 20
0.7486199736595154
 30
0.5699858665466309
 11
-0.6208296418190002
 21
0.7486199736595154
 31
0.5609859228134155
  0
LINE
  8
0
 10
-1.2050824165344238
 20
-0.13105978071689606
 30
0.2526293098926544
 11
-0.7807801961898804
 21
-0.13105978071689606
 31
0.2526293098926544
  0
LINE
  8
0
 10
-1.2050824165344238
 20
-0.13105978071689606
 30
0.2526293098926544
 11
-1.2050824165344238
 21
0.41273802518844604
 31
0.2526293694972992
  0
LINE
  8
0
 10
-1.2050824165344238
 20
0.41273802518844604
 30
0.2526293694972992
 11
-1.0533376932144165
 21
0.48116958141326904
 31
0.2526293694972992
  0
LINE
  8
0
 10
-1.0533376932144165
 20
0.48116958141326904
 30
0.2526293694972992
 11
-0.9920607209205627
 21
0.3736417293548584
 31
0.2539304792881012
  0
LINE
  8
0
 10
-0.7807801961898804
 20
-0.13105978071689606
 30
0.2526293098926544
 11
-0.7763322591781616
 21
-0.016354307532310486
 31
0.2539304494857788
  0
LINE
  8
0
 10
-0.7763322591781616
 20
-0.016354307532310486
 30
0.2539304494857788
 11
-0.8228592872619629
 21
-0.01696936786174774
 31
0.2552315294742584
  0
LINE
  8
0
 10
-1.013283610343933
 20
0.3392895758152008
 30
0.2552315592765808
 11
-1.028152346611023
 21
0.2902735769748688
 31
0.2552315592765808
  0
LINE
  8
0
 10
-1.028152346611023
 20
0.2902735769748688
 30
0.2552315592765808
 11
-1.0331729650497437
 21
0.23929868638515472
 31
0.2552315592765808
  0
LINE
  8
0
 10
-1.0331729650497437
 20
0.23929868638515472
 30
0.2552315592765808
 11
-1.028152346611023
 21
0.18832381069660187
 31
0.2552315592765808
  0
LINE
  8
0
 10
-1.028152346611023
 20
0.18832381069660187
 30
0.2552315592765808
 11
-1.013283610343933
 21
0.13930784165859222
 31
0.2552315294742584
  0
LINE
  8
0
 10
-1.013283610343933
 20
0.13930784165859222
 30
0.2552315294742584
 11
-0.9891380071640015
 21
0.09413449466228485
 31
0.2552315294742584
  0
LINE
  8
0
 10
-0.9891380071640015
 20
0.09413449466228485
 30
0.2552315294742584
 11
-0.9566434025764465
 21
0.05453974008560181
 31
0.2552315294742584
  0
LINE
  8
0
 10
-0.9566434025764465
 20
0.05453974008560181
 30
0.2552315294742584
 11
-0.9170485734939575
 21
0.022045165300369263
 31
0.2552315294742584
  0
LINE
  8
0
 10
-0.9170485734939575
 20
0.022045165300369263
 30
0.2552315294742584
 11
-0.8718752264976501
 21
-0.0021005866583436728
 31
0.2552315294742584
  0
LINE
  8
0
 10
-0.8718752264976501
 20
-0.0021005866583436728
 30
0.2552315294742584
 11
-0.8228592872619629
 21
-0.01696936786174774
 31
0.2552315294742584
  0
LINE
  8
0
 10
-0.9920607209205627
 20
0.3736417293548584
 30
0.2539304792881012
 11
-1.013283610343933
 21
0.3392895758152008
 31
0.2552315592765808
  0
LINE
  8
0
 10
-1.2051526308059692
 20
-0.13109569251537323
 30
0.2616289556026459
 11
-0.780850350856781
 21
-0.13109569251537323
 31
0.2616289556026459
  0
LINE
  8
0
 10
-1.2051526308059692
 20
-0.13109569251537323
 30
0.2616289556026459
 11
-1.2051526308059692
 21
0.41270211338996887
 31
0.26162901520729065
  0
LINE
  8
0
 10
-1.2051526308059692
 20
0.41270211338996887
 30
0.26162901520729065
 11
-1.053407907485962
 21
0.48113366961479187
 31
0.26162901520729065
  0
LINE
  8
0
 10
-1.053407907485962
 20
0.48113366961479187
 30
0.26162901520729065
 11
-0.9921308755874634
 21
0.3736058175563812
 31
0.26293012499809265
  0
LINE
  8
0
 10
-0.780850350856781
 20
-0.13109569251537323
 30
0.2616289556026459
 11
-0.776402473449707
 21
-0.016390204429626465
 31
0.26293009519577026
  0
LINE
  8
0
 10
-0.776402473449707
 20
-0.016390204429626465
 30
0.26293009519577026
 11
-0.8229295015335083
 21
-0.017005279660224915
 31
0.2642311751842499
  0
LINE
  8
0
 10
-1.0133538246154785
 20
0.33925363421440125
 30
0.26423120498657227
 11
-1.0282225608825684
 21
0.2902376353740692
 31
0.26423120498657227
  0
LINE
  8
0
 10
-1.0282225608825684
 20
0.2902376353740692
 30
0.26423120498657227
 11
-1.033243179321289
 21
0.23926277458667755
 31
0.26423120498657227
  0
LINE
  8
0
 10
-1.033243179321289
 20
0.23926277458667755
 30
0.26423120498657227
 11
-1.0282225608825684
 21
0.1882878988981247
 31
0.26423120498657227
  0
LINE
  8
0
 10
-1.0282225608825684
 20
0.1882878988981247
 30
0.26423120498657227
 11
-1.0133538246154785
 21
0.13927192986011505
 31
0.2642311751842499
  0
LINE
  8
0
 10
-1.0133538246154785
 20
0.13927192986011505
 30
0.2642311751842499
 11
-0.9892081618309021
 21
0.09409858286380768
 31
0.2642311751842499
  0
LINE
  8
0
 10
-0.9892081618309021
 20
0.09409858286380768
 30
0.2642311751842499
 11
-0.9567135572433472
 21
0.054503828287124634
 31
0.2642311751842499
  0
LINE
  8
0
 10
-0.9567135572433472
 20
0.054503828287124634
 30
0.2642311751842499
 11
-0.9171187877655029
 21
0.02200925350189209
 31
0.2642311751842499
  0
LINE
  8
0
 10
-0.9171187877655029
 20
0.02200925350189209
 30
0.2642311751842499
 11
-0.8719454407691956
 21
-0.0021364991553127766
 31
0.2642311751842499
  0
LINE
  8
0
 10
-0.8719454407691956
 20
-0.0021364991553127766
 30
0.2642311751842499
 11
-0.8229295015335083
 21
-0.017005279660224915
 31
0.2642311751842499
  0
LINE
  8
0
 10
-0.9921308755874634
 20
0.3736058175563812
 30
0.26293012499809265
 11
-1.0133538246154785
 21
0.33925363421440125
 31
0.26423120498657227
  0
LINE
  8
0
 10
-1.2050824165344238
 20
-0.13105978071689606
 30
0.2526293098926544
 11
-1.2051526308059692
 21
-0.13109569251537323
 31
0.2616289556026459
  0
LINE
  8
0
 10
-0.7807801961898804
 20
-0.13105978071689606
 30
0.2526293098926544
 11
-0.780850350856781
 21
-0.13109569251537323
 31
0.2616289556026459
  0
LINE
  8
0
 10
-1.2050824165344238
 20
0.41273802518844604
 30
0.2526293694972992
 11
-1.2051526308059692
 21
0.41270211338996887
 31
0.26162901520729065
  0
LINE
  8
0
 10
-1.0533376932144165
 20
0.48116958141326904
 30
0.2526293694972992
 11
-1.053407907485962
 21
0.48113366961479187
 31
0.26162901520729065
  0
LINE
  8
0
 10
-0.9920607209205627
 20
0.3736417293548584
 30
0.2539304792881012
 11
-0.9921308755874634
 21
0.3736058175563812
 31
0.26293012499809265
  0
LINE
  8
0
 10
-0.7763322591781616
 20
-0.016354307532310486
 30
0.2539304494857788
 11
-0.776402473449707
 21
-0.016390204429626465
 31
0.26293009519577026
  0
LINE
  8
0
 10
-1.013283610343933
 20
0.3392895758152008
 30
0.2552315592765808
 11
-1.0133538246154785
 21
0.33925363421440125
 31
0.26423120498657227
  0
LINE
  8
0
 10
-1.028152346611023
 20
0.2902735769748688
 30
0.2552315592765808
 11
-1.0282225608825684
 21
0.2902376353740692
 31
0.26423120498657227
  0
LINE
  8
0
 10
-1.0331729650497437
 20
0.23929868638515472
 30
0.2552315592765808
 11
-1.033243179321289
 21
0.23926277458667755
 31
0.26423120498657227
  0
LINE
  8
0
 10
-1.028152346611023
 20
0.18832381069660187
 30
0.2552315592765808
 11
-1.0282225608825684
 21
0.1882878988981247
 31
0.26423120498657227
  0
LINE
  8
0
 10
-1.013283610343933
 20
0.13930784165859222
 30
0.2552315294742584
 11
-1.0133538246154785
 21
0.13927192986011505
 31
0.2642311751842499
  0
LINE
  8
0
 10
-0.9891380071640015
 20
0.09413449466228485
 30
0.2552315294742584
 11
-0.9892081618309021
 21
0.09409858286380768
 31
0.2642311751842499
  0
LINE
  8
0
 10
-0.9566434025764465
 20
0.05453974008560181
 30
0.2552315294742584
 11
-0.9567135572433472
 21
0.054503828287124634
 31
0.2642311751842499
  0
LINE
  8
0
 10
-0.9170485734939575
 20
0.022045165300369263
 30
0.2552315294742584
 11
-0.9171187877655029
 21
0.02200925350189209
 31
0.2642311751842499
  0
LINE
  8
0
 10
-0.8718752264976501
 20
-0.0021005866583436728
 30
0.2552315294742584
 11
-0.8719454407691956
 21
-0.0021364991553127766
 31
0.2642311751842499
  0
LINE
  8
0
 10
-0.8228592872619629
 20
-0.01696936786174774
 30
0.2552315294742584
 11
-0.8229295015335083
 21
-0.017005279660224915
 31
0.2642311751842499
  0
LINE
  8
0
 10
-0.7799200415611267
 20
0.7501975297927856
 30
0.2526293098926544
 11
-1.204222321510315
 21
0.7501973509788513
 31
0.2526293098926544
  0
LINE
  8
0
 10
-0.7799200415611267
 20
0.7501975297927856
 30
0.2526293098926544
 11
-0.7799198031425476
 21
0.20639973878860474
 31
0.2526293694972992
  0
LINE
  8
0
 10
-0.7799198031425476
 20
0.20639973878860474
 30
0.2526293694972992
 11
-0.9316644668579102
 21
0.13796812295913696
 31
0.2526293694972992
  0
LINE
  8
0
 10
-0.9316644668579102
 20
0.13796812295913696
 30
0.2526293694972992
 11
-0.9929415583610535
 21
0.24549594521522522
 31
0.2539304792881012
  0
LINE
  8
0
 10
-1.204222321510315
 20
0.7501973509788513
 30
0.2526293098926544
 11
-1.2086701393127441
 21
0.6354919075965881
 31
0.2539304494857788
  0
LINE
  8
0
 10
-1.2086701393127441
 20
0.6354919075965881
 30
0.2539304494857788
 11
-1.1621431112289429
 21
0.6361069679260254
 31
0.2552315294742584
  0
LINE
  8
0
 10
-0.9717186093330383
 20
0.2798480987548828
 30
0.2552315592765808
 11
-0.9568498730659485
 21
0.32886412739753723
 31
0.2552315592765808
  0
LINE
  8
0
 10
-0.9568498730659485
 20
0.32886412739753723
 30
0.2552315592765808
 11
-0.9518293142318726
 21
0.3798390030860901
 31
0.2552315592765808
  0
LINE
  8
0
 10
-0.9518293142318726
 20
0.3798390030860901
 30
0.2552315592765808
 11
-0.9568499326705933
 21
0.43081387877464294
 31
0.2552315592765808
  0
LINE
  8
0
 10
-0.9568499326705933
 20
0.43081387877464294
 30
0.2552315592765808
 11
-0.9717187285423279
 21
0.4798298180103302
 31
0.2552315294742584
  0
LINE
  8
0
 10
-0.9717187285423279
 20
0.4798298180103302
 30
0.2552315294742584
 11
-0.9958643913269043
 21
0.52500319480896
 31
0.2552315294742584
  0
LINE
  8
0
 10
-0.9958643913269043
 20
0.52500319480896
 30
0.2552315294742584
 11
-1.0283589363098145
 21
0.5645979046821594
 31
0.2552315294742584
  0
LINE
  8
0
 10
-1.0283589363098145
 20
0.5645979046821594
 30
0.2552315294742584
 11
-1.0679538249969482
 21
0.5970924496650696
 31
0.2552315294742584
  0
LINE
  8
0
 10
-1.0679538249969482
 20
0.5970924496650696
 30
0.2552315294742584
 11
-1.1131271123886108
 21
0.6212382316589355
 31
0.2552315294742584
  0
LINE
  8
0
 10
-1.1131271123886108
 20
0.6212382316589355
 30
0.2552315294742584
 11
-1.1621431112289429
 21
0.6361069679260254
 31
0.2552315294742584
  0
LINE
  8
0
 10
-0.9929415583610535
 20
0.24549594521522522
 30
0.2539304792881012
 11
-0.9717186093330383
 21
0.2798480987548828
 31
0.2552315592765808
  0
LINE
  8
0
 10
-0.7798498272895813
 20
0.7502334117889404
 30
0.2616289556026459
 11
-1.2041521072387695
 21
0.7502332925796509
 31
0.2616289556026459
  0
LINE
  8
0
 10
-0.7798498272895813
 20
0.7502334117889404
 30
0.2616289556026459
 11
-0.779849648475647
 21
0.20643562078475952
 31
0.26162901520729065
  0
LINE
  8
0
 10
-0.779849648475647
 20
0.20643562078475952
 30
0.26162901520729065
 11
-0.9315942525863647
 21
0.13800400495529175
 31
0.26162901520729065
  0
LINE
  8
0
 10
-0.9315942525863647
 20
0.13800400495529175
 30
0.26162901520729065
 11
-0.9928713440895081
 21
0.24553182721138
 31
0.26293012499809265
  0
LINE
  8
0
 10
-1.2041521072387695
 20
0.7502332925796509
 30
0.2616289556026459
 11
-1.2085999250411987
 21
0.6355277895927429
 31
0.26293009519577026
  0
LINE
  8
0
 10
-1.2085999250411987
 20
0.6355277895927429
 30
0.26293009519577026
 11
-1.1620728969573975
 21
0.6361428499221802
 31
0.2642311751842499
  0
LINE
  8
0
 10
-0.9716484546661377
 20
0.27988401055336
 30
0.26423120498657227
 11
-0.9567797183990479
 21
0.3289000391960144
 31
0.26423120498657227
  0
LINE
  8
0
 10
-0.9567797183990479
 20
0.3289000391960144
 30
0.26423120498657227
 11
-0.9517590999603271
 21
0.37987491488456726
 31
0.26423120498657227
  0
LINE
  8
0
 10
-0.9517590999603271
 20
0.37987491488456726
 30
0.26423120498657227
 11
-0.9567797183990479
 21
0.4308497905731201
 31
0.26423120498657227
  0
LINE
  8
0
 10
-0.9567797183990479
 20
0.4308497905731201
 30
0.26423120498657227
 11
-0.9716485142707825
 21
0.4798657298088074
 31
0.2642311751842499
  0
LINE
  8
0
 10
-0.9716485142707825
 20
0.4798657298088074
 30
0.2642311751842499
 11
-0.9957941770553589
 21
0.5250390768051147
 31
0.2642311751842499
  0
LINE
  8
0
 10
-0.9957941770553589
 20
0.5250390768051147
 30
0.2642311751842499
 11
-1.0282888412475586
 21
0.564633846282959
 31
0.2642311751842499
  0
LINE
  8
0
 10
-1.0282888412475586
 20
0.564633846282959
 30
0.2642311751842499
 11
-1.0678836107254028
 21
0.5971283912658691
 31
0.2642311751842499
  0
LINE
  8
0
 10
-1.0678836107254028
 20
0.5971283912658691
 30
0.2642311751842499
 11
-1.113057017326355
 21
0.6212741136550903
 31
0.2642311751842499
  0
LINE
  8
0
 10
-1.113057017326355
 20
0.6212741136550903
 30
0.2642311751842499
 11
-1.1620728969573975
 21
0.6361428499221802
 31
0.2642311751842499
  0
LINE
  8
0
 10
-0.9928713440895081
 20
0.24553182721138
 30
0.26293012499809265
 11
-0.9716484546661377
 21
0.27988401055336
 31
0.26423120498657227
  0
LINE
  8
0
 10
-0.7799200415611267
 20
0.7501975297927856
 30
0.2526293098926544
 11
-0.7798498272895813
 21
0.7502334117889404
 31
0.2616289556026459
  0
LINE
  8
0
 10
-1.204222321510315
 20
0.7501973509788513
 30
0.2526293098926544
 11
-1.2041521072387695
 21
0.7502332925796509
 31
0.2616289556026459
  0
LINE
  8
0
 10
-0.7799198031425476
 20
0.20639973878860474
 30
0.2526293694972992
 11
-0.779849648475647
 21
0.20643562078475952
 31
0.26162901520729065
  0
LINE
  8
0
 10
-0.9316644668579102
 20
0.13796812295913696
 30
0.2526293694972992
 11
-0.9315942525863647
 21
0.13800400495529175
 31
0.26162901520729065
  0
LINE
  8
0
 10
-0.9929415583610535
 20
0.24549594521522522
 30
0.2539304792881012
 11
-0.9928713440895081
 21
0.24553182721138
 31
0.26293012499809265
  0
LINE
  8
0
 10
-1.2086701393127441
 20
0.6354919075965881
 30
0.2539304494857788
 11
-1.2085999250411987
 21
0.6355277895927429
 31
0.26293009519577026
  0
LINE
  8
0
 10
-0.9717186093330383
 20
0.2798480987548828
 30
0.2552315592765808
 11
-0.9716484546661377
 21
0.27988401055336
 31
0.26423120498657227
  0
LINE
  8
0
 10
-0.9568498730659485
 20
0.32886412739753723
 30
0.2552315592765808
 11
-0.9567797183990479
 21
0.3289000391960144
 31
0.26423120498657227
  0
LINE
  8
0
 10
-0.9518293142318726
 20
0.3798390030860901
 30
0.2552315592765808
 11
-0.9517590999603271
 21
0.37987491488456726
 31
0.26423120498657227
  0
LINE
  8
0
 10
-0.9568499326705933
 20
0.43081387877464294
 30
0.2552315592765808
 11
-0.9567797183990479
 21
0.4308497905731201
 31
0.26423120498657227
  0
LINE
  8
0
 10
-0.9717187285423279
 20
0.4798298180103302
 30
0.2552315294742584
 11
-0.9716485142707825
 21
0.4798657298088074
 31
0.2642311751842499
  0
LINE
  8
0
 10
-0.9958643913269043
 20
0.52500319480896
 30
0.2552315294742584
 11
-0.9957941770553589
 21
0.5250390768051147
 31
0.2642311751842499
  0
LINE
  8
0
 10
-1.0283589363098145
 20
0.5645979046821594
 30
0.2552315294742584
 11
-1.0282888412475586
 21
0.564633846282959
 31
0.2642311751842499
  0
LINE
  8
0
 10
-1.0679538249969482
 20
0.5970924496650696
 30
0.2552315294742584
 11
-1.0678836107254028
 21
0.5971283912658691
 31
0.2642311751842499
  0
LINE
  8
0
 10
-1.1131271123886108
 20
0.6212382316589355
 30
0.2552315294742584
 11
-1.113057017326355
 21
0.6212741136550903
 31
0.2642311751842499
  0
LINE
  8
0
 10
-1.1621431112289429
 20
0.6361069679260254
 30
0.2552315294742584
 11
-1.1620728969573975
 21
0.6361428499221802
 31
0.2642311751842499
  0
ENDSEC
  0
EOF
